<ttFont>
          <CharString index="0">
            252 637 546 rmoveto
            12 -3 -8 3 -11 -13 -16 -5 -13 -13 -7 14 -11 hhcurveto
            -5 -45 callgsubr
            -5 hvcurveto
            -15 -13 -8 1 -10 -8 -8 1 -6 hhcurveto
            -11 -5 -1 -10 -18 13 2 8 hvcurveto
            2 hlineto
            6 6 3 9 hhcurveto
            17 3 -9 -13 hvcurveto
            -20 -3 -25 -22 -10 1 -9 -9 vvcurveto
            -26 -1 -24 -3 -23 vhcurveto
            -1 -10 -6 -9 -12 -5 3 -2 -5 vvcurveto
            -7 -23 -1 -31 -3 -12 -14 -51 rcurveline
            -3 -5 -6 2 -12 -6 1 -24 callsubr
            -3 -2 -1 vvcurveto
            -11 -3 -1 -14 -5 hhcurveto
            0 -15 14 -8 callgsubr
            -2 3 1 5 -3 3 -2 5 -5 1 -3 5 -17 24 -10 9 -6 7 -4 5 -1 9 -3 4 84 callsubr
            -2 2 vhcurveto
            -2 3 1 5 -2 3 -7 9 -8 7 -7 9 -3 4 -6 3 -2 4 -3 6 0 7 -4 6 -8 11 -12 13 -6 8 rrcurveto
            -7 11 -12 6 12 vvcurveto
            27 -8 -11 -10 14 vhcurveto
            -6 10 -1 13 -7 13 rrcurveto
            -3 6 -9 5 76 callgsubr
            3 vvcurveto
            4 -6 1 -2 4 vhcurveto
            -1 6 0 3 -2 6 -2 7 -3 4 -2 7 rrcurveto
            -1 3 72 callgsubr
            23 -10 -8 57 -9 hhcurveto
            -9 -10 -8 0 hvcurveto
            1 callgsubr
            -3 0 -10 -2 callsubr
            -28 -21 0 -7 -19 -16 2 -19 -17 -9 -4 -5 -11 -11 4 -6 -2 0 -4 0 -3 vvcurveto
            -10 -3 -8 -1 -11 vhcurveto
            -5 -54 -5 -66 -11 -44 -4 -18 -4 -19 -3 -18 -7 -32 -7 -25 -8 -27 7 callsubr
            1 -1 -3 vhcurveto
            -6 -24 -4 -15 -8 -5 -4 -3 -26 -4 -3 -1 rrcurveto
            -10 -3 -8 0 -7 vvcurveto
            -10 11 -4 15 -1 vhcurveto
            31 callsubr
            hhcurveto
            3 11 12 1 6 8 7 -4 6 hhcurveto
            11 -1 -82 callsubr
            hvcurveto
            27 7 40 -14 6 29 rrcurveto
            5 -2 -4 2 -5 -9 -10 -5 -10 hhcurveto
            -6 -6 1 12 hvcurveto
            15 5 32 11 -34 callgsubr
            2 2 1 1 4 vvcurveto
            1 27 3 42 3 23 rrcurveto
            2 13 6 6 4 86 callsubr
            6 3 1 2 vvcurveto
            3 10 0 7 7 vvcurveto
            9 vlineto
            21 10 56 6 22 vhcurveto
            1 -1 2 1 vvcurveto
            7 -9 callgsubr
            8 0 -11 -6 4 vhcurveto
            7 -13 5 -8 6 -8 5 -8 6 -14 3 -4 8 -7 0 -8 4 -6 rrcurveto
            -1 6 -2 -1 vvcurveto
            3 -3 -1 -5 2 -3 rrcurveto
            0 13 -15 2 -3 vhcurveto
            4 -6 8 -8 2 -5 4 -38 callsubr
            3 -4 6 -8 11 -8 8 -9 22 -30 rcurveline
            30 -37 19 -24 39 -55 return
          </CharString>
          <CharString index="1">
            145 562 574 rmoveto
            3 -3 -4 1 -5 -12 -17 -8 -9 hhcurveto
            -17 10 17 2 -15 hvcurveto
            -6 -13 -15 4 -12 -6 -9 -4 -5 -8 -8 -2 -12 -4 -14 4 -11 -4 -4 -2 1 -3 -4 -2 -38 callsubr
            -31 callsubr
            -8 -5 -9 -4 -1 -9 rrcurveto
            -2 3 4 0 4 14 17 9 14 hhcurveto
            4 13 -3 -10 hvcurveto
            -9 -14 -34 -2 vvcurveto
            -1 -79 callgsubr
            vhcurveto
            -2 1 -3 -2 vvcurveto
            -6 -8 -24 callgsubr
            vhcurveto
            -5 -10 -3 -13 -3 -6 -2 -3 98 callsubr
            -7 1 -9 -4 -6 -14 -27 -25 -27 -12 -23 rrcurveto
            -9 -5 -12 -20 -5 hhcurveto
            -9 -10 23 3 -3 hvcurveto
            -13 16 -7 12 -5 12 -8 18 -18 27 -4 17 rrcurveto
            -6 30 -22 14 54 vvcurveto
            18 8 3 10 vhcurveto
            4 73 callgsubr
            9 8 2 11 3 hvcurveto
            3 -4 -6 1 -6 -12 -15 -5 -13 -15 2 9 -5 -2 -2 -1 -1 -6 1 8 -7 hhcurveto
            -3 hlineto
            -3 -1 -20 -6 -5 -2 -89 callgsubr
            -6 -21 -5 -13 vhcurveto
            -13 hlineto
            -15 -14 -2 -17 -4 hvcurveto
            19 -4 30 8 13 -15 rrcurveto
            0 0 -15 3 -10 vhcurveto
            5 -18 10 -17 4 -12 rrcurveto
            3 -14 11 -10 -4 vvcurveto
            -4 vlineto
            -5 3 1 1 -1 vhcurveto
            3 -9 1 -9 3 -8 1 -1 5 -8 callsubr
            6 -13 0 -14 6 -9 1 -3 7 -2 2 -3 10 -11 -1 -12 6 -13 3 -7 5 16 callgsubr
            5 -11 4 -12 5 -7 rrcurveto
            4 -4 2 2 2 -8 -1 -3 -2 -15 -1 -12 -1 -19 0 -21 -3 -18 rrcurveto
            -2 -16 -9 -14 -11 -62 callgsubr
            -5 vvcurveto
            -89 callsubr
            -70 callsubr
            -1 -9 -8 -37 -2 -1 rrcurveto
            -3 -4 -14 -1 -36 callsubr
            1 -6 hhcurveto
            -10 -10 -5 -3 -6 hvcurveto
            -1 -1 -1 -6 -1 -1 rrcurveto
            -9 -5 -11 0 -8 vvcurveto
            -8 6 -3 6 4 -43 callsubr
            11 4 18 1 8 3 rrcurveto
            5 8 30 2 11 13 5 -7 8 hhcurveto
            10 0 5 6 6 hvcurveto
            10 10 1 -2 11 3 11 2 27 11 5 1 18 5 16 -2 6 12 rrcurveto
            2 88 callgsubr
            -14 -20 -8 -14 hhcurveto
            -7 -8 2 11 hvcurveto
            11 5 18 3 7 -3 10 4 23 14 39 32 -28 callsubr
            6 vvcurveto
            15 7 10 2 9 vhcurveto
            3 31 36 11 12 vvcurveto
            1 18 22 1 6 vhcurveto
            9 11 -2 7 -4 callsubr
            vvcurveto
            3 -75 callgsubr
            4 vhcurveto
            10 17 7 16 9 14 3 -13 callsubr
            18 callsubr
            10 3 11 6 12 rrcurveto
            3 5 8 9 4 vvcurveto
            7 9 0 -9 callsubr
            3 5 2 8 2 5 12 23 5 16 13 8 rrcurveto
            14 10 36 -4 14 vvcurveto
            return
          </CharString>
          <CharString index="2">
            rmoveto
            12 -14 2 8 vvcurveto
            5 -14 9 -8 callgsubr
            26 -20 -15 28 -12 hhcurveto
            -4 -11 -11 -2 callsubr
            -82 -83 rlineto
            7 callgsubr
            3 -11 -53 callsubr
            4 7 -2 vhcurveto
            -1 3 0 -4 6 hhcurveto
            15 2 22 7 4 hvcurveto
            -76 callsubr
            3 4 rrcurveto
            19 17 5 15 19 callgsubr
            25 -34 -6 5 hvcurveto
            -19 12 4 -22 16 hhcurveto
            9 1 26 24 -14 callsubr
            endchar
          </CharString>
          <CharString index="3">
            rmoveto
            -1 5 -5 -3 -8 2 rrcurveto
            1 -3 0 4 -6 hhcurveto
            -15 -1 -22 -7 -25 callgsubr
            -3 -6 -45 callgsubr
            rrcurveto
            -25 -20 -3 -8 -7 hhcurveto
            -3 -25 33 7 -4 hvcurveto
            18 -12 -5 22 -15 hhcurveto
            -8 -27 -23 -8 -1 hvcurveto
            -13 13 -2 -8 vvcurveto
            1 -5 13 -9 3 -4 19 -24 15 -28 12 -1 rrcurveto
            5 11 11 1 1 hvcurveto
            25 27 33 31 23 25 rrcurveto
            4 4 8 -5 13 vvcurveto
            1 -83 callsubr
            1 vhcurveto
            endchar
          </CharString>
          <CharString index="4">
            2 -71 callsubr
            -4 hlineto
            -6 -1 6 4 -2 hvcurveto
            -24 25 -19 17 -13 16 rrcurveto
            8 -6 -10 31 -18 hhcurveto
            -8 -8 -19 -5 -5 hvcurveto
            -5 -5 -9 3 -12 vvcurveto
            -16 15 -5 7 -3 vhcurveto
            4 -1 0 -4 4 callsubr
            -3 8 0 -3 callgsubr
            6 -10 7 -7 6 -7 9 -4 6 -7 rrcurveto
            -4 4 -1 -7 5 hhcurveto
            -1 14 -1 -20 17 hhcurveto
            10 17 23 9 1 -83 callsubr
            1 hvcurveto
            endchar
          </CharString>
          <CharString index="5">
            230 128 rmoveto
            -12 -7 -12 -6 -4 hvcurveto
            -15 -16 7 -6 -33 -28 rrcurveto
            -36 callsubr
            -15 -9 hhcurveto
            -4 -7 -1 21 11 2 15 1 15 hvcurveto
            2 21 7 22 2 16 2 20 0 26 2 20 rrcurveto
            6 6 8 1 7 vhcurveto
            5 31 -2 36 4 32 rrcurveto
            2 13 9 15 15 5 -3 1 2 -48 callsubr
            4 4 -1 5 2 vvcurveto
            9 6 8 2 9 vhcurveto
            5 30 -2 34 4 28 1 9 8 11 2 12 10 47 -2 23 3 21 rrcurveto
            1 11 6 8 8 vvcurveto
            1 -10 24 -19 vhcurveto
            -5 -11 -12 4 -5 -4 -8 -6 -5 -15 -9 -8 -9 -10 -13 -6 -7 -6 -10 -10 -9 -14 -10 -13 rrcurveto
            -8 -10 -17 -11 -11 vvcurveto
            -4 1 -5 6 16 4 16 7 5 vhcurveto
            9 12 7 4 10 9 6 7 1 10 11 2 rrcurveto
            5 -6 2 -5 -7 85 callgsubr
            -1 -11 vhcurveto
            -8 -63 -8 -74 -10 -21 callgsubr
            -4 -41 2 -41 -5 -38 -1 -11 -5 -9 -1 -10 -4 -24 0 -21 -3 -21 rrcurveto
            -4 -18 -4 -7 -26 vvcurveto
            -27 2 -44 6 -5 vhcurveto
            -1 16 -4 2 6 12 8 1 vhcurveto
            3 1 8 -44 callsubr
            4 2 2 11 6 6 17 17 7 9 8 13 7 12 9 6 6 8 4 6 3 7 4 5 3 5 8 4 4 6 4 8 1 9 2 8 rrcurveto
            return
          </CharString>
          <CharString index="6">
            108 531 568 rmoveto
            2 -1 2 -88 callsubr
            3 3 vvcurveto
            5 -4 4 -7 -5 -10 -6 -7 -6 vhcurveto
            -3 -4 1 2 -5 -2 rrcurveto
            -10 -19 -19 -9 -18 hhcurveto
            -14 hlineto
            -8 -7 -3 -3 -1 -6 4 -3 -8 -11 -2 -11 hhcurveto
            -13 -20 3 8 hvcurveto
            6 11 11 9 vvcurveto
            4 -3 5 0 callgsubr
            0 0 vhcurveto
            -6 -10 -17 -35 -21 -7 -12 4 -10 -9 -10 -3 -10 -10 -13 3 -11 hhcurveto
            0 -18 -2 -6 -1 vhcurveto
            -13 -4 -28 -31 -14 -13 rrcurveto
            -13 -13 -30 -28 -9 vvcurveto
            -4 6 -4 5 14 16 29 3 5 vhcurveto
            5 3 -66 callgsubr
            2 rrcurveto
            9 25 42 11 51 hhcurveto
            18 -2 -3 -12 hvcurveto
            -28 -14 -59 -20 -6 -58 callsubr
            -20 -15 -60 -1 vvcurveto
            -4 -28 1 -28 -5 -25 rrcurveto
            -1 -11 -6 -9 0 -2 0 -78 callsubr
            -3 vlineto
            -4 -15 -4 -9 -11 -5 1 -7 -7 -15 -7 -12 -6 vvcurveto
            -3 -32 2 -16 -7 -14 rrcurveto
            -23 -10 -8 -1 -16 -9 -7 2 -4 hhcurveto
            -16 -13 -15 -7 -8 6 -4 8 hvcurveto
            15 24 12 26 15 12 -4 11 hhcurveto
            13 -1 7 11 4 5 6 6 13 -2 11 3 8 3 7 3 7 2 16 4 22 -8 2 18 rrcurveto
            5 -3 -4 2 -5 -19 -16 -7 -13 hhcurveto
            -4 -3 1 3 -3 hvcurveto
            3 4 54 1 vvcurveto
            2 10 5 7 1 5 2 16 -1 20 2 22 rrcurveto
            2 20 5 24 21 7 0 6 6 vvcurveto
            14 5 7 3 16 vhcurveto
            5 35 2 57 7 28 rrcurveto
            36 10 -7 63 32 6 9 -1 8 6 18 -3 7 hhcurveto
            6 -1 6 9 12 7 7 3 10 2 9 5 9 5 45 16 -14 callsubr
            6 18 4 0 vhcurveto
            return
          </CharString>
          <CharString index="7">
            34 415 125 rmoveto
            5 -6 1 -1 5 vhcurveto
            -18 5 -19 -11 -9 hvcurveto
            -3 -3 -10 6 -12 vvcurveto
            -15 -10 7 -6 -4 vhcurveto
            -13 -19 0 -13 -14 hhcurveto
            -30 -21 68 49 -22 hvcurveto
            -1 2 -5 6 -1 3 rrcurveto
            -7 18 -7 27 7 vvcurveto
            12 9 3 16 20 vhcurveto
            19 25 43 68 13 12 rrcurveto
            9 11 13 12 9 vvcurveto
            12 -23 16 -12 callgsubr
            -2 -5 -1 -17 -28 -3 -9 vhcurveto
            -7 -18 -33 -49 -13 -16 -5 -5 -2 -8 -4 -6 rrcurveto
            -30 -23 -28 -45 -21 hhcurveto
            -2 -1 1 2 -2 hvcurveto
            0 4 9 1 vvcurveto
            17 54 -5 21 3 24 1 7 5 7 1 8 6 29 -2 37 3 32 5 53 13 57 4 47 rrcurveto
            5 -3 4 7 vvcurveto
            1 10 56 28 -66 callgsubr
            -17 -7 -3 -8 -3 -5 hvcurveto
            -13 -9 -8 -4 -9 -9 -5 -6 -1 -8 -45 callgsubr
            -5 -5 5 -8 -12 -3 -2 -31 callsubr
            -3 -3 -3 -6 2 -2 -3 rrcurveto
            -16 -17 -22 -23 -1 hhcurveto
            -1 0 1 0 hvcurveto
            10 callsubr
            -14 vvcurveto
            -11 4 -2 5 9 5 15 6 2 vhcurveto
            1 5 3 0 3 -88 callsubr
            -2 -88 callsubr
            5 5 17 callgsubr
            2 rrcurveto
            31 callgsubr
            hvcurveto
            6 9 9 5 5 hhcurveto
            4 1 -3 -9 -50 -16 -45 -1 -13 hvcurveto
            -6 4 -3 -8 vvcurveto
            -31 -10 -41 -5 -35 vhcurveto
            -2 -16 0 -6 -5 -11 rrcurveto
            -9 4 -7 -9 vvcurveto
            -10 -7 -9 -1 -7 vhcurveto
            -1 -12 0 1 -2 -7 -6 -19 -1 -20 -1 -23 rrcurveto
            -7 -30 callgsubr
            -6 3 -2 -5 vvcurveto
            -2 vlineto
            -7 -12 -7 -26 -9 -8 3 -7 -6 vvcurveto
            -6 -5 -19 -2 -5 vhcurveto
            -2 -7 -5 -2 -6 1 7 -11 -1 vvcurveto
            -2 -2 -2 -1 vhcurveto
            -1 hlineto
            1 -8 3 -6 -6 -10 -13 -16 -13 vvcurveto
            -6 5 -3 11 14 2 10 4 7 vhcurveto
            6 4 6 1 -88 callsubr
            4 4 14 4 10 3 9 7 12 -27 callsubr
            2 11 0 14 12 vvcurveto
            18 5 40 19 4 34 -56 -10 5 vhcurveto
            3 -5 -2 -5 3 -5 3 -5 8 -2 4 -4 12 -13 4 -24 9 -10 rrcurveto
            -18 18 13 -19 19 hhcurveto
            14 20 19 10 7 hvcurveto
            3 5 1 9 3 5 15 18 9 8 9 10 6 6 7 -72 callgsubr
            4 5 -2 6 2 4 rrcurveto
            4 8 11 6 8 vvcurveto
            return
          </CharString>
          <CharString index="8">
            rmoveto
            1 -5 6 -3 5 vhcurveto
            17 -13 -15 17 -10 -5 -5 -2 1 hhcurveto
            0 vlineto
            -5 -2 -45 -39 -8 -17 -4 -8 -3 -24 -2 -6 rrcurveto
            -2 -7 -1 -7 -5 -19 12 3 -7 vvcurveto
            -4 vlineto
            2 17 -40 9 7 7 7 7 9 vhcurveto
            3 2 6 -2 -12 callsubr
            6 9 13 7 5 19 11 -66 callsubr
            26 rrcurveto
            2 12 3 11 10 vvcurveto
            5 -1 6 -2 5 vhcurveto
            -37 -35 rmoveto
            -2 0 -3 -2 vvcurveto
            -19 -16 -41 -6 -6 -14 23 11 5 3 64 17 6 13 -20 -16 3 vhcurveto
            endchar
          </CharString>
          <CharString index="9">
            hhcurveto
            16 6 15 13 6 hvcurveto
            -59 callsubr
            11 13 11 17 7 11 15 18 16 18 6 14 rrcurveto
            2 7 14 5 8 vvcurveto
            3 -1 3 -4 4 vhcurveto
            return
          </CharString>
          <CharString index="10">
            12 16 5 -8 5 10 callgsubr
            14 21 1 5 3 13 4 14 -27 callsubr
            return
          </CharString>
          <CharString index="11">
            -97 callsubr
            endchar
          </CharString>
          <CharString index="12">
            -4 -17 32 -10 -18 -2 -1 -3 -3 vvcurveto
            17 callsubr
            -6 0 vvcurveto
            -2 -5 -33 -13 0 vvcurveto
            -2 vlineto
            -79 callgsubr
            0 vhcurveto
            -5 hlineto
            -14 -5 -20 5 -15 vvcurveto
            -19 12 1 2 13 20 14 -61 callsubr
            9 9 6 2 5 5 3 callsubr
            -13 callsubr
            return
          </CharString>
          <CharString index="13">
            34 5 -7 25 24 hhcurveto
            20 5 15 -3 9 16 rrcurveto
            4 -6 -8 1 -10 -9 -10 -1 -10 -14 -9 3 -10 hhcurveto
            -16 -11 -11 -3 -15 hvcurveto
            -30 -7 -37 8 -18 vvcurveto
            -10 17 -6 8 vhcurveto
            9 10 9 9 hhcurveto
            4 3 -1 -6 -11 -5 -13 -2 -15 hvcurveto
            -3 -18 2 -24 -3 -24 -2 -8 -4 -7 -1 -10 rrcurveto
            return
          </CharString>
          <CharString index="14">
            2 vhcurveto
            -39 -3 7 -25 -37 -9 rrcurveto
            -1 -2 -1 0 return
          </CharString>
          <CharString index="15">
            1 -3 8 -6 5 -9 6 -10 1 -12 4 -4 5 -4 return
          </CharString>
          <CharString index="16">
            2 -1 2 1 vvcurveto
            return
          </CharString>
          <CharString index="17">
            -2 -3 1 -7 callsubr
            return
          </CharString>
          <CharString index="18">
            -2 0 -2 return
          </CharString>
          <CharString index="19">
            2 3 3 return
          </CharString>
          <CharString index="20">
            6 rrcurveto
            7 13 17 32 19 vvcurveto
            10 return
          </CharString>
          <CharString index="21">
            2 2 vvcurveto
            return
          </CharString>
          <CharString index="22">
            -5 -1 -1 return
          </CharString>
          <CharString index="23">
            -102 rmoveto
            6 -4 11 -5 9 vhcurveto
            -1 -72 callsubr
            return
          </CharString>
          <CharString index="24">
            0 1 -1 return
          </CharString>
          <CharString index="25">
            6 2 5 return
          </CharString>
          <CharString index="26">
            1 2 0 return
          </CharString>
          <CharString index="27">
            -42 callsubr
            -3 return
          </CharString>
          <CharString index="28">
            2 4 4 return
          </CharString>
          <CharString index="29">
            -2 -2 vvcurveto
            return
          </CharString>
          <CharString index="30">
            vvcurveto
            -9 9 -55 callsubr
            1 -2 5 1 return
          </CharString>
          <CharString index="31">
            2 3 6 5 return
          </CharString>
          <CharString index="32">
            -79 callgsubr
            0 -1 return
          </CharString>
          <CharString index="33">
            -29 callsubr
            -6 rrcurveto
            -5 -6 callsubr
            return
          </CharString>
          <CharString index="34">
            56 callgsubr
            4 3 2 return
          </CharString>
          <CharString index="35">
            3 -5 2 -2 4 -3 25 callgsubr
            return
          </CharString>
          <CharString index="36">
            -3 -89 callsubr
            hhcurveto
            return
          </CharString>
          <CharString index="37">
            -1 -2 vhcurveto
            return
          </CharString>
          <CharString index="38">
            -2 0 -1 return
          </CharString>
          <CharString index="39">
            23 callsubr
            -26 -44 rcurveline
            -2 -3 52 callgsubr
            rrcurveto
            -1 -1 -4 0 -1 vvcurveto
            -2 -3 0 -3 -1 -2 -1 -1 -3 0 -1 -2 rrcurveto
            -2 return
          </CharString>
          <CharString index="40">
            -2 -45 callsubr
            0 return
          </CharString>
          <CharString index="41">
            1 10 7 return
          </CharString>
          <CharString index="42">
            1 -2 -89 callsubr
            hhcurveto
            return
          </CharString>
          <CharString index="43">
            -5 -2 -4 return
          </CharString>
          <CharString index="44">
            -3 -3 -7 return
          </CharString>
          <CharString index="45">
            2 -63 callgsubr
            vvcurveto
            return
          </CharString>
          <CharString index="46">
            1 4 vhcurveto
            return
          </CharString>
          <CharString index="47">
            -3 rrcurveto
            -2 6 8 -8 6 3 2 4 3 -29 callgsubr
            hhcurveto
            12 16 24 13 14 hvcurveto
            7 5 return
          </CharString>
          <CharString index="48">
            -38 callgsubr
            vhcurveto
            return
          </CharString>
          <CharString index="49">
            1 -6 -5 return
          </CharString>
          <CharString index="50">
            -3 -3 -2 return
          </CharString>
          <CharString index="51">
            -1 0 -1 -1 -2 return
          </CharString>
          <CharString index="52">
            106 callgsubr
            3 -7 0 -8 0 vvcurveto
            return
          </CharString>
          <CharString index="53">
            54 callsubr
            2 vvcurveto
            return
          </CharString>
          <CharString index="54">
            vvcurveto
            -9 7 return
          </CharString>
          <CharString index="55">
            -23 callsubr
            -1 6 -5 -7 -1 -7 -2 -3 vhcurveto
            -3 -2 -35 -14 -9 14 callgsubr
            -18 -45 -22 -36 -17 -39 -23 -50 -23 -51 -24 -43 return
          </CharString>
          <CharString index="56">
            2 -91 callgsubr
            vvcurveto
            return
          </CharString>
          <CharString index="57">
            -1 -1 -85 callsubr
            return
          </CharString>
          <CharString index="58">
            1 6 1 return
          </CharString>
          <CharString index="59">
            1 4 1 return
          </CharString>
          <CharString index="60">
            -3 -3 -4 return
          </CharString>
          <CharString index="61">
            4 6 3 3 return
          </CharString>
          <CharString index="62">
            -2 -2 -3 return
          </CharString>
          <CharString index="63">
            0 3 2 return
          </CharString>
          <CharString index="64">
            5 1 -88 callgsubr
            return
          </CharString>
          <CharString index="65">
            -2 -4 1 return
          </CharString>
          <CharString index="66">
            -3 2 -3 vhcurveto
            28 3 -14 18 11 15 rrcurveto
            1 1 9 2 1 hhcurveto
            11 10 9 15 6 8 5 7 14 9 3 4 callgsubr
            0 16 2 10 rrcurveto
            7 35 return
          </CharString>
          <CharString index="67">
            4 8 9 2 2 0 return
          </CharString>
          <CharString index="68">
            -2 1 -44 callgsubr
            return
          </CharString>
          <CharString index="69">
            -4 -3 -6 return
          </CharString>
          <CharString index="70">
            4 5 1 return
          </CharString>
          <CharString index="71">
            -7 -6 -6 return
          </CharString>
          <CharString index="72">
            7 9 vvcurveto
            -13 callgsubr
            1 1 vhcurveto
            return
          </CharString>
          <CharString index="73">
            1 7 1 return
          </CharString>
          <CharString index="74">
            0 -44 callgsubr
            return
          </CharString>
          <CharString index="75">
            -7 callsubr
            -1 -2 return
          </CharString>
          <CharString index="76">
            2 -5 -3 return
          </CharString>
          <CharString index="77">
            -91 callsubr
            1 return
          </CharString>
          <CharString index="78">
            -7 -5 -3 -4 return
          </CharString>
          <CharString index="79">
            7 -1 6 return
          </CharString>
          <CharString index="80">
            1 9 rrcurveto
            return
          </CharString>
          <CharString index="81">
            -6 0 -4 return
          </CharString>
          <CharString index="82">
            4 rrcurveto
            2 return
          </CharString>
          <CharString index="83">
            -6 -2 -4 return
          </CharString>
          <CharString index="84">
            rmoveto
            1 -76 callsubr
            vvcurveto
            2 return
          </CharString>
          <CharString index="85">
            0 -67 callsubr
            -5 return
          </CharString>
          <CharString index="86">
            1 0 -86 callsubr
            return
          </CharString>
          <CharString index="87">
            -3 -5 -31 callsubr
            return
          </CharString>
          <CharString index="88">
            2 51 callsubr
            return
          </CharString>
          <CharString index="89">
            2 2 0 1 hhcurveto
            return
          </CharString>
          <CharString index="90">
            -11 -5 -5 -3 return
          </CharString>
          <CharString index="91">
            -57 callsubr
            -6 return
          </CharString>
          <CharString index="92">
            2 -2 2 vhcurveto
            return
          </CharString>
          <CharString index="93">
            1 5 rrcurveto
            return
          </CharString>
          <CharString index="94">
            5 5 4 return
          </CharString>
          <CharString index="95">
            3 2 7 return
          </CharString>
          <CharString index="96">
            -2 -4 -6 return
          </CharString>
          <CharString index="97">
            2 3 -1 return
          </CharString>
          <CharString index="98">
            2 4 vhcurveto
            return
          </CharString>
          <CharString index="99">
            -4 1 -2 return
          </CharString>
          <CharString index="100">
            -5 -2 -3 return
          </CharString>
          <CharString index="101">
            -8 -8 1 -10 vvcurveto
            -2 5 -18 15 return
          </CharString>
          <CharString index="102">
            -70 callsubr
            -2 return
          </CharString>
          <CharString index="103">
            2 -1 3 2 return
          </CharString>
          <CharString index="104">
            1 -4 -3 return
          </CharString>
          <CharString index="105">
            -1 -1 hvcurveto
            return
          </CharString>
          <CharString index="106">
            6 1 2 return
          </CharString>
          <CharString index="107">
            6 -2 4 return
          </CharString>
          <CharString index="108">
            1 2 6 1 1 return
          </CharString>
          <CharString index="109">
            1 -4 -2 return
          </CharString>
          <CharString index="110">
            4 2 3 return
          </CharString>
          <CharString index="111">
            2 -1 4 return
          </CharString>
          <CharString index="112">
            6 2 1 return
          </CharString>
          <CharString index="113">
            -2 -6 -3 return
          </CharString>
          <CharString index="114">
            rrcurveto
            -1 -3 return
          </CharString>
          <CharString index="115">
            0 -79 callgsubr
            return
          </CharString>
          <CharString index="116">
            -5 -3 -7 -6 return
          </CharString>
          <CharString index="117">
            0 -6 -7 return
          </CharString>
          <CharString index="118">
            0 1 vvcurveto
            return
          </CharString>
          <CharString index="119">
            -2 -3 hvcurveto
            return
          </CharString>
          <CharString index="120">
            7 34 callgsubr
            return
          </CharString>
          <CharString index="121">
            -3 -47 callsubr
            -3 return
          </CharString>
          <CharString index="122">
            -2 rrcurveto
            -3 return
          </CharString>
          <CharString index="123">
            hhcurveto
            -16 -14 return
          </CharString>
          <CharString index="124">
            1 -2 3 return
          </CharString>
          <CharString index="125">
            2 6 6 return
          </CharString>
          <CharString index="126">
            6 10 2 return
          </CharString>
          <CharString index="127">
            -1 -68 callgsubr
            return
          </CharString>
          <CharString index="128">
            10 callgsubr
            14 10 callgsubr
            3 14 4 14 -27 callsubr
            return
          </CharString>
          <CharString index="129">
            -2 -13 -3 rrcurveto
            -1 -6 -12 -12 -22 hhcurveto
            -13 -18 2 4 -13 hvcurveto
            46 12 42 18 36 vhcurveto
            2 5 return
          </CharString>
          <CharString index="130">
            29 callsubr
            -19 -45 -22 -36 -16 -39 -24 -50 -22 -51 -25 -43 return
          </CharString>
          <CharString index="131">
            1 -13 -3 -1 hvcurveto
            -1 -4 -5 -6 vvcurveto
            -12 19 -3 12 -5 vhcurveto
            -6 15 9 -6 8 11 1 return
          </CharString>
          <CharString index="132">
            -2 -47 callsubr
            -2 3 -2 hhcurveto
            -1 -8 -5 -2 -6 return
          </CharString>
          <CharString index="133">
            -1 -4 rrcurveto
            101 callgsubr
            return
          </CharString>
          <CharString index="134">
            hhcurveto
            -16 -3 -7 -9 -3 -10 rrcurveto
            -2 -10 -6 -32 -15 vvcurveto
            -6 1 -10 4 -4 vhcurveto
            -3 4 return
          </CharString>
          <CharString index="135">
            5 15 3 8 hhcurveto
            10 2 -13 -11 hvcurveto
            -19 -7 -16 -13 vvcurveto
            16 callgsubr
            6 return
          </CharString>
          <CharString index="136">
            -2 -35 -14 -8 14 callgsubr
            return
          </CharString>
          <CharString index="137">
            -3 -6 -61 callgsubr
            -3 -1 return
          </CharString>
          <CharString index="138">
            3 -32 callgsubr
            return
          </CharString>
          <CharString index="139">
            -2 -3 0 -7 callsubr
            return
          </CharString>
          <CharString index="140">
            -20 callsubr
            -5 return
          </CharString>
          <CharString index="141">
            -43 callgsubr
            5 return
          </CharString>
          <CharString index="142">
            -5 -26 callsubr
            return
          </CharString>
          <CharString index="143">
            3 1 -51 callgsubr
            return
          </CharString>
          <CharString index="144">
            3 -4 3 -15 17 -1 3 rrcurveto
            -1 -1 return
          </CharString>
          <CharString index="145">
            -1 -26 callgsubr
            return
          </CharString>
          <CharString index="146">
            -4 -3 callsubr
            return
          </CharString>
          <CharString index="147">
            -4 0 -7 -1 -4 rrcurveto
            -13 -31 -13 -63 -22 vvcurveto
            -18 4 -6 return
          </CharString>
          <CharString index="148">
            23 14 9 vhcurveto
            2 5 1 -75 callgsubr
            4 7 8 8 1 return
          </CharString>
          <CharString index="149">
            rmoveto
            2 -2 -73 callgsubr
            return
          </CharString>
          <CharString index="150">
            -2 -8 102 callgsubr
            return
          </CharString>
          <CharString index="151">
            12 -9 -6 -9 5 rrcurveto
            return
          </CharString>
          <CharString index="152">
            -2 -2 0 -6 -2 -3 return
          </CharString>
          <CharString index="153">
            -1 -69 callsubr
            hhcurveto
            return
          </CharString>
          <CharString index="154">
            -25 callsubr
            3 return
          </CharString>
          <CharString index="155">
            4 4 7 2 return
          </CharString>
          <CharString index="156">
            -3 -2 0 -3 return
          </CharString>
          <CharString index="157">
            -2 3 0 5 return
          </CharString>
          <CharString index="158">
            -34 callgsubr
            3 return
          </CharString>
          <CharString index="159">
            3 3 rrcurveto
            10 return
          </CharString>
          <CharString index="160">
            -2 -4 -2 -7 -1 -7 -3 rrcurveto
            -4 -8 -1 -5 -4 hhcurveto
            return
          </CharString>
          <CharString index="161">
            4 2 -1 1 return
          </CharString>
          <CharString index="162">
            2 -32 callgsubr
            return
          </CharString>
          <CharString index="163">
            3 0 1 4 return
          </CharString>
          <CharString index="164">
            -88 callgsubr
            11 return
          </CharString>
          <CharString index="165">
            2 1 0 2 return
          </CharString>
          <CharString index="166">
            -46 callgsubr
            5 return
          </CharString>
          <CharString index="167">
            18 -37 callsubr
            return
          </CharString>
          <CharString index="168">
            -3 -3 callsubr
            return
          </CharString>
          <CharString index="169">
            -2 -3 1 -2 return
          </CharString>
          <CharString index="170">
            -2 -53 callgsubr
            return
          </CharString>
          <CharString index="171">
            4 -14 callgsubr
            5 111 callsubr
            -1 2 0 vhcurveto
            return
          </CharString>
          <CharString index="172">
            0 11 11 hvcurveto
            21 23 29 83 callgsubr
          </CharString>
          <CharString index="173">
            30 rrcurveto
            4 3 1 -88 callgsubr
            return
          </CharString>
          <CharString index="174">
            7 5 -2 8 vvcurveto
            6 21 52 return
          </CharString>
          <CharString index="175">
            -17 callsubr
            -3 return
          </CharString>
          <CharString index="176">
            1 2 -1 2 hhcurveto
            return
          </CharString>
          <CharString index="177">
            -15 -4 -9 -6 return
          </CharString>
          <CharString index="178">
            -3 2 -6 4 return
          </CharString>
          <CharString index="179">
            rmoveto
            6 -4 5 return
          </CharString>
          <CharString index="180">
            -4 1 3 vvcurveto
            return
          </CharString>
          <CharString index="181">
            -64 callsubr
            -3 return
          </CharString>
          <CharString index="182">
            4 4 6 -1 return
          </CharString>
          <CharString index="183">
            1 hhcurveto
            16 4 return
          </CharString>
          <CharString index="184">
            -1 1 -3 -1 return
          </CharString>
          <CharString index="185">
            15 -1 13 hhcurveto
            6 5 0 1 5 hvcurveto
            39 4 return
          </CharString>
          <CharString index="186">
            vhcurveto
            -10 callgsubr
            0 vhcurveto
            return
          </CharString>
          <CharString index="187">
            -6 -9 -23 -2 -23 hhcurveto
            return
          </CharString>
          <CharString index="188">
            2 -12 3 -3 vhcurveto
            -3 return
          </CharString>
          <CharString index="189">
            2 callgsubr
            -47 callsubr
            return
          </CharString>
          <CharString index="190">
            -4 -45 callgsubr
            return
          </CharString>
          <CharString index="191">
            rrcurveto
            3 callgsubr
            return
          </CharString>
          <CharString index="192">
            1 9 8 21 return
          </CharString>
          <CharString index="193">
            4 0 4 3 return
          </CharString>
          <CharString index="194">
            7 -2 5 -2 return
          </CharString>
          <CharString index="195">
            38 callgsubr
            3 return
          </CharString>
          <CharString index="196">
            21 8 14 8 15 8 13 -88 callsubr
            1 return
          </CharString>
          <CharString index="197">
            -8 -8 -10 -14 -17 -13 -14 -9 -12 rrcurveto
            -18 return
          </CharString>
          <CharString index="198">
            rmoveto
            3 -2 -8 4 -2 hhcurveto
            -7 -9 -12 -2 return
          </CharString>
          <CharString index="199">
            -26 -1 -10 -2 -31 rrcurveto
            -1 return
          </CharString>
          <CharString index="200">
            2 -88 callsubr
            4 return
          </CharString>
          <CharString index="201">
            7 3 5 3 6 return
          </CharString>
          <CharString index="202">
            18 callgsubr
            6 2 return
          </CharString>
          <CharString index="203">
            -8 -1 -1 -7 hvcurveto
            return
          </CharString>
          <CharString index="204">
            -4 -1 1 -2 -2 return
          </CharString>
          <CharString index="205">
            -4 -1 -2 -3 -4 return
          </CharString>
          <CharString index="206">
            -5 callsubr
            -6 return
          </CharString>
          <CharString index="207">
            1 2 hvcurveto
            3 2 return
          </CharString>
          <CharString index="208">
            11 4 6 1 9 return
          </CharString>
          <CharString index="209">
            2 -4 -3 -3 -3 return
          </CharString>
          <CharString index="210">
            6 59 callsubr
            return
          </CharString>
          <CharString index="211">
            vvcurveto
            2 -1 3 return
          </CharString>
          <CharString index="212">
            -4 2 callsubr
            return
          </CharString>
          <CharString index="213">
            3 3 1 2 return
          </CharString>
          <CharString index="214">
            -6 -15 -26 -7 vvcurveto
            -4 11 -4 2 vhcurveto
            return
          </CharString>
          <CharString index="215">
            hvcurveto
            1 -10 -10 5 -11 -7 callsubr
            -3 return
          </CharString>
          <CharString index="216">
            -35 callgsubr
            -1 return
          </CharString>
          <CharString index="217">
            7 rrcurveto
            2 6 return
          </CharString>
          <CharString index="218">
            3 1 vvcurveto
            1 return
          </CharString>
          <CharString index="219">
            -30 callgsubr
            -5 return
          </CharString>
        <CharString name=".notdef">
          -139 endchar
        </CharString>
        <CharString name="A">
          149 495 29 rmoveto
          4 -42 callsubr
          -5 -9 -14 -4 -10 hhcurveto
          -4 -4 0 2 -3 hvcurveto
          -3 2 -11 31 -1 -25 callsubr
          0 2 3 6 1 6 7 vvcurveto
          11 -6 8 -2 10 vhcurveto
          -4 20 3 23 -2 19 rrcurveto
          -1 7 -8 10 8 4 1 4 5 vvcurveto
          10 -6 10 -1 11 vhcurveto
          -4 33 0 46 -15 30 rrcurveto
          -4 13 -2 12 1 2 3 2 8 vvcurveto
          10 -2 7 -2 11 vhcurveto
          -4 19 4 38 -3 16 -2 8 -12 13 -1 4 rrcurveto
          14 -4 7 5 -18 hhcurveto
          -9 -1 -9 -2 -4 hvcurveto
          -7 -4 -8 3 -7 -16 callsubr
          -8 -5 -4 rrcurveto
          -7 -5 -9 -1 -3 -2 -83 callgsubr
          -3 -36 -11 -1 -12 vhcurveto
          -1 -9 -14 -4 -8 vvcurveto
          -6 6 -3 3 vhcurveto
          10 8 13 8 hhcurveto
          -13 callgsubr
          -28 callgsubr
          -7 -30 -26 -42 -3 -8 -3 -4 -31 callsubr
          -24 callsubr
          -8 -47 callgsubr
          -5 -10 2 -9 -4 -3 rrcurveto
          -79 callgsubr
          0 0 -2 -89 callgsubr
          -1 vlineto
          -14 -25 -20 -43 1 -2 -89 callgsubr
          -7 -10 -9 -1 -6 vhcurveto
          84 callgsubr
          -4 -5 -16 -27 -10 -28 -13 -25 -6 -11 -7 -10 -6 -12 -7 -14 -6 -22 -5 -4 rrcurveto
          8 callsubr
          vhcurveto
          77 callsubr
          86 callgsubr
          -1 0 -78 callsubr
          -4 -15 -9 -3 -1 vhcurveto
          -10 -5 -43 11 -31 87 callgsubr
          12 24 42 11 -61 callsubr
          24 4 56 0 21 vvcurveto
          -12 10 -37 -6 20 vvcurveto
          9 8 71 callgsubr
          8 24 4 12 5 11 15 27 22 1 40 5 37 4 33 0 32 3 rrcurveto
          1 12 7 2 5 hhcurveto
          19 -5 -35 -15 2 hvcurveto
          1 -7 5 -10 2 -9 rrcurveto
          1 -10 1 -13 -11 vvcurveto
          -10 -1 -9 -70 callsubr
          -8 -8 -48 13 -19 vvcurveto
          -7 11 -6 16 -1 vhcurveto
          14 14 7 10 12 12 -7 6 hhcurveto
          1 hlineto
          1 27 12 2 1 vhcurveto
          17 8 51 -13 19 vvcurveto
          2 -1 23 callgsubr
          -157 164 rmoveto
          -7 -9 -19 4 -18 5 callgsubr
          -39 -46 -10 -42 hhcurveto
          3 25 15 22 11 22 10 23 8 25 11 22 10 21 15 20 11 21 13 25 7 29 16 22 rrcurveto
          1 hlineto
          11 7 -87 -33 3 hvcurveto
          -11 vlineto
          5 -15 2 -28 5 -26 1 -10 4 -10 2 -10 rrcurveto
          -5 -4 0 -2 1 5 -8 -6 vvcurveto
          -89 callsubr
          -1 -1 vhcurveto
          endchar
        </CharString>
        <CharString name="AE">
          363 690 125 rmoveto
          70 callsubr
          -5 hvcurveto
          -26 -26 -6 -6 -4 -8 -5 -4 rlinecurve
          -63 callsubr
          2 -24 callgsubr
          -3 -8 -12 -3 -3 rrcurveto
          -5 -12 -14 0 -14 -29 -22 3 -7 -4 0 -2 -4 -4 -4 63 callgsubr
          -11 -8 0 hvcurveto
          -16 -5 rlineto
          -2 5 -2 16 10 vvcurveto
          4 9 2 10 2 14 rrcurveto
          1 3 0 1 2 vvcurveto
          2 0 1 -88 callgsubr
          2 22 2 15 2 13 2 10 3 9 2 9 rrcurveto
          4 -1 -66 callgsubr
          vhcurveto
          2 9 4 12 6 vvcurveto
          2 vlineto
          1 7 -1 8 8 vvcurveto
          9 2 5 6 11 13 18 -6 14 hhcurveto
          -1 12 15 -1 12 hhcurveto
          29 -1 13 18 24 hvcurveto
          5 -73 callsubr
          2 4 2 1 -23 callgsubr
          -2 3 3 2 2 0 7 2 2 rrcurveto
          4 6 8 7 7 vvcurveto
          2 0 2 -2 -93 callsubr
          -1 -5 -7 1 -7 -13 -9 -4 -10 hhcurveto
          -20 -50 4 6 hvcurveto
          5 5 6 1 8 -4 7 34 callsubr
          6 vvcurveto
          7 vlineto
          1 23 6 21 9 vvcurveto
          6 vlineto
          1 8 0 8 1 7 3 12 4 13 3 12 rrcurveto
          17 10 15 3 25 22 25 -3 12 28 callsubr
          10 -1 20 5 3 vhcurveto
          2 -46 callsubr
          4 3 5 2 7 2 -87 callsubr
          -4 7 -14 vhcurveto
          -14 -4 -9 -12 -5 -62 callgsubr
          -10 4 -47 callsubr
          4 3 -9 -22 -14 -8 -20 -7 -6 1 -7 16 callsubr
          -6 -2 -15 hvcurveto
          -1 -17 -16 -1 -17 hhcurveto
          -2 -2 1 -3 -19 hvcurveto
          -24 -2 -36 6 -6 -21 rrcurveto
          -7 4 6 -1 8 7 8 1 8 hhcurveto
          -31 callgsubr
          -14 7 hvcurveto
          -7 -9 -11 -12 -19 -17 -15 -30 -38 -42 -6 -12 callgsubr
          1 -5 -5 -6 -3 -4 -9 -3 -2 -3 -7 -10 -1 -9 -6 -3 rrcurveto
          -1 0 0 0 vhcurveto
          -2 -6 rlineto
          -1 vlineto
          -21 -25 -31 -43 1 vvcurveto
          -1 -2 -33 callsubr
          -2 -8 -12 -9 -4 -5 -5 -10 -1 0 -5 -5 -25 -26 -17 -29 -21 -25 -8 -11 -11 -10 -8 -12 -11 -14 -12 -21 -8 -85 callsubr
          rcurveline
          -5 vlineto
          -1 -5 -26 -11 -2 -6 rrcurveto
          -5 vlineto
          -1 -4 -18 -9 -3 -1 -11 -5 -40 11 -9 -31 rrcurveto
          -7 -2 6 -2 12 hhcurveto
          25 43 11 1 5 hvcurveto
          25 4 56 0 7 21 -10 10 -38 -5 6 20 2 8 10 7 2 4 16 24 7 12 9 11 23 27 21 1 42 5 37 4 34 1 33 3 rrcurveto
          1 12 8 1 5 hhcurveto
          19 -16 -35 -15 -2 hvcurveto
          -1 -7 3 -10 -1 -9 -2 -10 -3 -13 -3 -10 -3 -11 -3 -9 -2 -1 -10 -9 -44 13 -6 -19 -2 -7 10 -6 15 -1 rrcurveto
          14 16 7 10 hhcurveto
          12 10 -7 2 60 hvcurveto
          8 10 4 13 12 78 callsubr
          51 -9 1 30 -96 callgsubr
          -306 63 rmoveto
          -10 -9 -18 4 -18 5 callgsubr
          -40 -49 -10 -43 hhcurveto
          11 25 21 22 18 22 16 23 15 25 18 22 16 21 21 20 17 21 20 25 14 29 23 22 rrcurveto
          1 hlineto
          1 0 0 -1 1 hvcurveto
          -1 -40 -4 -27 -6 -34 -4 -18 rlinecurve
          -3 -11 rlineto
          -15 -6 -28 -3 -26 vhcurveto
          -1 -10 1 -10 -1 -10 -1 -5 -3 0 -1 -1 rrcurveto
          0 3 -8 -2 -6 vhcurveto
          -2 -1 -2 -2 -1 vhcurveto
          endchar
        </CharString>
        <CharString name="AEacute">
          363 690 125 rmoveto
          70 callsubr
          -5 hvcurveto
          -26 -26 -6 -6 -4 -8 -5 -4 rlinecurve
          -63 callsubr
          2 -24 callgsubr
          -3 -8 -12 -3 -3 rrcurveto
          -5 -12 -14 0 -14 -29 -22 3 -7 -4 0 -2 -4 -4 -4 63 callgsubr
          -11 -8 0 hvcurveto
          -16 -5 rlineto
          -2 5 -2 16 10 vvcurveto
          4 9 2 10 2 14 rrcurveto
          1 3 0 1 2 vvcurveto
          2 0 1 -88 callgsubr
          2 22 2 15 2 13 2 10 3 9 2 9 rrcurveto
          4 -1 -66 callgsubr
          vhcurveto
          2 9 4 12 6 vvcurveto
          2 vlineto
          1 7 -1 8 8 vvcurveto
          9 2 5 6 11 13 18 -6 14 hhcurveto
          -1 12 15 -1 12 hhcurveto
          29 -1 13 18 24 hvcurveto
          5 -73 callsubr
          2 4 2 1 -23 callgsubr
          -2 3 3 2 2 0 7 2 2 rrcurveto
          4 6 8 7 7 vvcurveto
          2 0 2 -2 -93 callsubr
          -1 -5 -7 1 -7 -13 -9 -4 -10 hhcurveto
          -20 -50 4 6 hvcurveto
          5 5 6 1 8 -4 7 34 callsubr
          6 vvcurveto
          7 vlineto
          1 23 6 21 9 vvcurveto
          6 vlineto
          1 8 0 8 1 7 3 12 4 13 3 12 rrcurveto
          17 10 15 3 25 22 25 -3 12 28 callsubr
          10 -1 20 5 3 vhcurveto
          2 -46 callsubr
          4 3 5 2 7 2 -87 callsubr
          -4 7 -14 vhcurveto
          -14 -4 -9 -12 -5 -62 callgsubr
          -10 4 -47 callsubr
          4 3 -9 -22 -14 -8 -20 -7 -6 1 -7 16 callsubr
          -6 -2 -15 hvcurveto
          -1 -17 -16 -1 -17 hhcurveto
          -2 -2 1 -3 -19 hvcurveto
          -24 -2 -36 6 -6 -21 rrcurveto
          -7 4 6 -1 8 7 8 1 8 hhcurveto
          -31 callgsubr
          -14 7 hvcurveto
          -7 -9 -11 -12 -19 -17 -15 -30 -38 -42 -6 -12 callgsubr
          1 -5 -5 -6 -3 -4 -9 -3 -2 -3 -7 -10 -1 -9 -6 -3 rrcurveto
          -1 0 0 0 vhcurveto
          -2 -6 rlineto
          -1 vlineto
          -21 -25 -31 -43 1 vvcurveto
          -1 -2 -33 callsubr
          -2 -8 -12 -9 -4 -5 -5 -10 -1 0 -5 -5 -25 -26 -17 -29 -21 -25 -8 -11 -11 -10 -8 -12 -11 -14 -12 -21 -8 -85 callsubr
          rcurveline
          -5 vlineto
          -1 -5 -26 -11 -2 -6 rrcurveto
          -5 vlineto
          -1 -4 -18 -9 -3 -1 -11 -5 -40 11 -9 -31 rrcurveto
          -7 -2 6 -2 12 hhcurveto
          25 43 11 1 5 hvcurveto
          25 4 56 0 7 21 -10 10 -38 -5 6 20 2 8 10 7 2 4 16 24 7 12 9 11 23 27 21 1 42 5 37 4 34 1 33 3 rrcurveto
          1 12 8 1 5 hhcurveto
          19 -16 -35 -15 -2 hvcurveto
          -1 -7 3 -10 -1 -9 -2 -10 -3 -13 -3 -10 -3 -11 -3 -9 -2 -1 -10 -9 -44 13 -6 -19 -2 -7 10 -6 15 -1 rrcurveto
          14 16 7 10 hhcurveto
          12 10 -7 2 60 hvcurveto
          8 10 4 13 12 78 callsubr
          51 -9 1 30 -96 callgsubr
          -306 63 rmoveto
          -10 -9 -18 4 -18 5 callgsubr
          -40 -49 -10 -43 hhcurveto
          11 25 21 22 18 22 16 23 15 25 18 22 16 21 21 20 17 21 20 25 14 29 23 22 rrcurveto
          1 hlineto
          1 0 0 -1 1 hvcurveto
          -1 -40 -4 -27 -6 -34 -4 -18 rlinecurve
          -3 -11 rlineto
          -15 -6 -28 -3 -26 vhcurveto
          -1 -10 1 -10 -1 -10 -1 -5 -3 0 -1 -1 rrcurveto
          0 3 -8 -2 -6 vhcurveto
          -2 -1 -2 -2 -1 vhcurveto
          275 466 -106 callgsubr
          endchar
        </CharString>
        <CharString name="Aacute">
          149 495 29 rmoveto
          4 -42 callsubr
          -5 -9 -14 -4 -10 hhcurveto
          -4 -4 0 2 -3 hvcurveto
          -3 2 -11 31 -1 -25 callsubr
          0 2 3 6 1 6 7 vvcurveto
          11 -6 8 -2 10 vhcurveto
          -4 20 3 23 -2 19 rrcurveto
          -1 7 -8 10 8 4 1 4 5 vvcurveto
          10 -6 10 -1 11 vhcurveto
          -4 33 0 46 -15 30 rrcurveto
          -4 13 -2 12 1 2 3 2 8 vvcurveto
          10 -2 7 -2 11 vhcurveto
          -4 19 4 38 -3 16 -2 8 -12 13 -1 4 rrcurveto
          14 -4 7 5 -18 hhcurveto
          -9 -1 -9 -2 -4 hvcurveto
          -7 -4 -8 3 -7 -16 callsubr
          -8 -5 -4 rrcurveto
          -7 -5 -9 -1 -3 -2 -83 callgsubr
          -3 -36 -11 -1 -12 vhcurveto
          -1 -9 -14 -4 -8 vvcurveto
          -6 6 -3 3 vhcurveto
          10 8 13 8 hhcurveto
          -13 callgsubr
          -28 callgsubr
          -7 -30 -26 -42 -3 -8 -3 -4 -31 callsubr
          -24 callsubr
          -8 -47 callgsubr
          -5 -10 2 -9 -4 -3 rrcurveto
          -79 callgsubr
          0 0 -2 -89 callgsubr
          -1 vlineto
          -14 -25 -20 -43 1 -2 -89 callgsubr
          -7 -10 -9 -1 -6 vhcurveto
          84 callgsubr
          -4 -5 -16 -27 -10 -28 -13 -25 -6 -11 -7 -10 -6 -12 -7 -14 -6 -22 -5 -4 rrcurveto
          8 callsubr
          vhcurveto
          77 callsubr
          86 callgsubr
          -1 0 -78 callsubr
          -4 -15 -9 -3 -1 vhcurveto
          -10 -5 -43 11 -31 87 callgsubr
          12 24 42 11 -61 callsubr
          24 4 56 0 21 vvcurveto
          -12 10 -37 -6 20 vvcurveto
          9 8 71 callgsubr
          8 24 4 12 5 11 15 27 22 1 40 5 37 4 33 0 32 3 rrcurveto
          1 12 7 2 5 hhcurveto
          19 -5 -35 -15 2 hvcurveto
          1 -7 5 -10 2 -9 rrcurveto
          1 -10 1 -13 -11 vvcurveto
          -10 -1 -9 -70 callsubr
          -8 -8 -48 13 -19 vvcurveto
          -7 11 -6 16 -1 vhcurveto
          14 14 7 10 12 12 -7 6 hhcurveto
          1 hlineto
          1 27 12 2 1 vhcurveto
          17 8 51 -13 19 vvcurveto
          2 -1 23 callgsubr
          -157 164 rmoveto
          -7 -9 -19 4 -18 5 callgsubr
          -39 -46 -10 -42 hhcurveto
          3 25 15 22 11 22 10 23 8 25 11 22 10 21 15 20 11 21 13 25 7 29 16 22 rrcurveto
          1 hlineto
          11 7 -87 -33 3 hvcurveto
          -11 vlineto
          5 -15 2 -28 5 -26 1 -10 4 -10 2 -10 rrcurveto
          -5 -4 0 -2 1 5 -8 -6 vvcurveto
          -89 callsubr
          -1 -1 vhcurveto
          105 463 -106 callgsubr
          endchar
        </CharString>
        <CharString name="Abreve">
          149 495 29 rmoveto
          4 -42 callsubr
          -5 -9 -14 -4 -10 hhcurveto
          -4 -4 0 2 -3 hvcurveto
          -3 2 -11 31 -1 -25 callsubr
          0 2 3 6 1 6 7 vvcurveto
          11 -6 8 -2 10 vhcurveto
          -4 20 3 23 -2 19 rrcurveto
          -1 7 -8 10 8 4 1 4 5 vvcurveto
          10 -6 10 -1 11 vhcurveto
          -4 33 0 46 -15 30 rrcurveto
          -4 13 -2 12 1 2 3 2 8 vvcurveto
          10 -2 7 -2 11 vhcurveto
          -4 19 4 38 -3 16 -2 8 -12 13 -1 4 rrcurveto
          14 -4 7 5 -18 hhcurveto
          -9 -1 -9 -2 -4 hvcurveto
          -7 -4 -8 3 -7 -16 callsubr
          -8 -5 -4 rrcurveto
          -7 -5 -9 -1 -3 -2 -83 callgsubr
          -3 -36 -11 -1 -12 vhcurveto
          -1 -9 -14 -4 -8 vvcurveto
          -6 6 -3 3 vhcurveto
          10 8 13 8 hhcurveto
          -13 callgsubr
          -28 callgsubr
          -7 -30 -26 -42 -3 -8 -3 -4 -31 callsubr
          -24 callsubr
          -8 -47 callgsubr
          -5 -10 2 -9 -4 -3 rrcurveto
          -79 callgsubr
          0 0 -2 -89 callgsubr
          -1 vlineto
          -14 -25 -20 -43 1 -2 -89 callgsubr
          -7 -10 -9 -1 -6 vhcurveto
          84 callgsubr
          -4 -5 -16 -27 -10 -28 -13 -25 -6 -11 -7 -10 -6 -12 -7 -14 -6 -22 -5 -4 rrcurveto
          8 callsubr
          vhcurveto
          77 callsubr
          86 callgsubr
          -1 0 -78 callsubr
          -4 -15 -9 -3 -1 vhcurveto
          -10 -5 -43 11 -31 87 callgsubr
          12 24 42 11 -61 callsubr
          24 4 56 0 21 vvcurveto
          -12 10 -37 -6 20 vvcurveto
          9 8 71 callgsubr
          8 24 4 12 5 11 15 27 22 1 40 5 37 4 33 0 32 3 rrcurveto
          1 12 7 2 5 hhcurveto
          19 -5 -35 -15 2 hvcurveto
          1 -7 5 -10 2 -9 rrcurveto
          1 -10 1 -13 -11 vvcurveto
          -10 -1 -9 -70 callsubr
          -8 -8 -48 13 -19 vvcurveto
          -7 11 -6 16 -1 vhcurveto
          14 14 7 10 12 12 -7 6 hhcurveto
          1 hlineto
          1 27 12 2 1 vhcurveto
          17 8 51 -13 19 vvcurveto
          2 -1 23 callgsubr
          -157 164 rmoveto
          -7 -9 -19 4 -18 5 callgsubr
          -39 -46 -10 -42 hhcurveto
          3 25 15 22 11 22 10 23 8 25 11 22 10 21 15 20 11 21 13 25 7 29 16 22 rrcurveto
          1 hlineto
          11 7 -87 -33 3 hvcurveto
          -11 vlineto
          5 -15 2 -28 5 -26 1 -10 4 -10 2 -10 rrcurveto
          -5 -4 0 -2 1 5 -8 -6 vvcurveto
          -89 callsubr
          -1 -1 vhcurveto
          89 497 rmoveto
          -3 -1 2 -3 hhcurveto
          -5 -11 -23 12 callsubr
          -75 callsubr
          -1 -83 callgsubr
          -2 -7 -3 -2 -1 vhcurveto
          14 callsubr
          -2 rrcurveto
          -7 -10 -38 callsubr
          -3 -4 1 -5 49 callsubr
          hhcurveto
          -6 1 5 1 -1 callgsubr
          2 -3 -1 -4 2 rrcurveto
          11 -16 -12 33 -6 hhcurveto
          -7 -10 -7 -5 -7 hvcurveto
          -13 -8 -7 -5 -8 vvcurveto
          -5 6 -12 5 -3 vhcurveto
          2 -2 -1 -1 2 -3 4 -6 0 callsubr
          -3 7 -5 7 -11 4 5 callgsubr
          11 20 -3 8 hhcurveto
          9 21 -12 callsubr
          hvcurveto
          3 2 1 5 7 6 callgsubr
          9 20 callgsubr
          1 1 0 5 callsubr
          rrcurveto
          5 7 6 3 2 vvcurveto
          3 -34 callgsubr
          -34 callsubr
          1 4 3 -36 callgsubr
          -31 callgsubr
          9 9 -56 callgsubr
        </CharString>
        <CharString name="Acircumflex">
          149 495 29 rmoveto
          4 -42 callsubr
          -5 -9 -14 -4 -10 hhcurveto
          -4 -4 0 2 -3 hvcurveto
          -3 2 -11 31 -1 -25 callsubr
          0 2 3 6 1 6 7 vvcurveto
          11 -6 8 -2 10 vhcurveto
          -4 20 3 23 -2 19 rrcurveto
          -1 7 -8 10 8 4 1 4 5 vvcurveto
          10 -6 10 -1 11 vhcurveto
          -4 33 0 46 -15 30 rrcurveto
          -4 13 -2 12 1 2 3 2 8 vvcurveto
          10 -2 7 -2 11 vhcurveto
          -4 19 4 38 -3 16 -2 8 -12 13 -1 4 rrcurveto
          14 -4 7 5 -18 hhcurveto
          -9 -1 -9 -2 -4 hvcurveto
          -7 -4 -8 3 -7 -16 callsubr
          -8 -5 -4 rrcurveto
          -7 -5 -9 -1 -3 -2 -83 callgsubr
          -3 -36 -11 -1 -12 vhcurveto
          -1 -9 -14 -4 -8 vvcurveto
          -6 6 -3 3 vhcurveto
          10 8 13 8 hhcurveto
          -13 callgsubr
          -28 callgsubr
          -7 -30 -26 -42 -3 -8 -3 -4 -31 callsubr
          -24 callsubr
          -8 -47 callgsubr
          -5 -10 2 -9 -4 -3 rrcurveto
          -79 callgsubr
          0 0 -2 -89 callgsubr
          -1 vlineto
          -14 -25 -20 -43 1 -2 -89 callgsubr
          -7 -10 -9 -1 -6 vhcurveto
          84 callgsubr
          -4 -5 -16 -27 -10 -28 -13 -25 -6 -11 -7 -10 -6 -12 -7 -14 -6 -22 -5 -4 rrcurveto
          8 callsubr
          vhcurveto
          77 callsubr
          86 callgsubr
          -1 0 -78 callsubr
          -4 -15 -9 -3 -1 vhcurveto
          -10 -5 -43 11 -31 87 callgsubr
          12 24 42 11 -61 callsubr
          24 4 56 0 21 vvcurveto
          -12 10 -37 -6 20 vvcurveto
          9 8 71 callgsubr
          8 24 4 12 5 11 15 27 22 1 40 5 37 4 33 0 32 3 rrcurveto
          1 12 7 2 5 hhcurveto
          19 -5 -35 -15 2 hvcurveto
          1 -7 5 -10 2 -9 rrcurveto
          1 -10 1 -13 -11 vvcurveto
          -10 -1 -9 -70 callsubr
          -8 -8 -48 13 -19 vvcurveto
          -7 11 -6 16 -1 vhcurveto
          14 14 7 10 12 12 -7 6 hhcurveto
          1 hlineto
          1 27 12 2 1 vhcurveto
          17 8 51 -13 19 vvcurveto
          2 -1 23 callgsubr
          -157 164 rmoveto
          -7 -9 -19 4 -18 5 callgsubr
          -39 -46 -10 -42 hhcurveto
          3 25 15 22 11 22 10 23 8 25 11 22 10 21 15 20 11 21 13 25 7 29 16 22 rrcurveto
          1 hlineto
          11 7 -87 -33 3 hvcurveto
          -11 vlineto
          5 -15 2 -28 5 -26 1 -10 4 -10 2 -10 rrcurveto
          -5 -4 0 -2 1 5 -8 -6 vvcurveto
          -89 callsubr
          -1 -1 vhcurveto
          81 398 -105 callsubr
        </CharString>
        <CharString name="Adieresis">
          149 495 29 rmoveto
          4 -42 callsubr
          -5 -9 -14 -4 -10 hhcurveto
          -4 -4 0 2 -3 hvcurveto
          -3 2 -11 31 -1 -25 callsubr
          0 2 3 6 1 6 7 vvcurveto
          11 -6 8 -2 10 vhcurveto
          -4 20 3 23 -2 19 rrcurveto
          -1 7 -8 10 8 4 1 4 5 vvcurveto
          10 -6 10 -1 11 vhcurveto
          -4 33 0 46 -15 30 rrcurveto
          -4 13 -2 12 1 2 3 2 8 vvcurveto
          10 -2 7 -2 11 vhcurveto
          -4 19 4 38 -3 16 -2 8 -12 13 -1 4 rrcurveto
          14 -4 7 5 -18 hhcurveto
          -9 -1 -9 -2 -4 hvcurveto
          -7 -4 -8 3 -7 -16 callsubr
          -8 -5 -4 rrcurveto
          -7 -5 -9 -1 -3 -2 -83 callgsubr
          -3 -36 -11 -1 -12 vhcurveto
          -1 -9 -14 -4 -8 vvcurveto
          -6 6 -3 3 vhcurveto
          10 8 13 8 hhcurveto
          -13 callgsubr
          -28 callgsubr
          -7 -30 -26 -42 -3 -8 -3 -4 -31 callsubr
          -24 callsubr
          -8 -47 callgsubr
          -5 -10 2 -9 -4 -3 rrcurveto
          -79 callgsubr
          0 0 -2 -89 callgsubr
          -1 vlineto
          -14 -25 -20 -43 1 -2 -89 callgsubr
          -7 -10 -9 -1 -6 vhcurveto
          84 callgsubr
          -4 -5 -16 -27 -10 -28 -13 -25 -6 -11 -7 -10 -6 -12 -7 -14 -6 -22 -5 -4 rrcurveto
          8 callsubr
          vhcurveto
          77 callsubr
          86 callgsubr
          -1 0 -78 callsubr
          -4 -15 -9 -3 -1 vhcurveto
          -10 -5 -43 11 -31 87 callgsubr
          12 24 42 11 -61 callsubr
          24 4 56 0 21 vvcurveto
          -12 10 -37 -6 20 vvcurveto
          9 8 71 callgsubr
          8 24 4 12 5 11 15 27 22 1 40 5 37 4 33 0 32 3 rrcurveto
          1 12 7 2 5 hhcurveto
          19 -5 -35 -15 2 hvcurveto
          1 -7 5 -10 2 -9 rrcurveto
          1 -10 1 -13 -11 vvcurveto
          -10 -1 -9 -70 callsubr
          -8 -8 -48 13 -19 vvcurveto
          -7 11 -6 16 -1 vhcurveto
          14 14 7 10 12 12 -7 6 hhcurveto
          1 hlineto
          1 27 12 2 1 vhcurveto
          17 8 51 -13 19 vvcurveto
          2 -1 23 callgsubr
          -157 164 rmoveto
          -7 -9 -19 4 -18 5 callgsubr
          -39 -46 -10 -42 hhcurveto
          3 25 15 22 11 22 10 23 8 25 11 22 10 21 15 20 11 21 13 25 7 29 16 22 rrcurveto
          1 hlineto
          11 7 -87 -33 3 hvcurveto
          -11 vlineto
          5 -15 2 -28 5 -26 1 -10 4 -10 2 -10 rrcurveto
          -5 -4 0 -2 1 5 -8 -6 vvcurveto
          -89 callsubr
          -1 -1 vhcurveto
          -2 463 rmoveto
          80 callgsubr
          9 -11 5 -80 callgsubr
          3 -4 -1 4 -7 hhcurveto
          -7 -6 -4 0 hvcurveto
          -6 -1 -12 1 -8 -7 -3 -3 -58 callsubr
          -6 rrcurveto
          -3 -4 0 -70 callgsubr
          10 callsubr
          -20 -12 -5 -10 vvcurveto
          -1 0 -1 0 vhcurveto
          4 7 -14 9 hhcurveto
          18 13 36 7 8 hvcurveto
          3 3 -2 1 -88 callsubr
          4 6 4 -88 callsubr
          5 -2 5 -69 callgsubr
          -49 callsubr
          -88 callgsubr
          105 hmoveto
          -37 callgsubr
          -86 callsubr
          9 -11 5 -80 callgsubr
          3 -5 0 4 -7 hhcurveto
          -8 -6 -4 0 hvcurveto
          -6 -1 -11 1 -8 -7 -4 -3 -58 callsubr
          -6 rrcurveto
          -2 -4 -1 -70 callgsubr
          1 -6 -7 -20 -13 -5 -10 vvcurveto
          -26 callgsubr
          0 vhcurveto
          4 7 -14 8 hhcurveto
          18 14 36 7 7 hvcurveto
          3 3 -2 1 -88 callsubr
          4 7 3 callsubr
          2 -66 callgsubr
          -69 callgsubr
          1 -43 callsubr
          endchar
        </CharString>
        <CharString name="Agrave">
          149 495 29 rmoveto
          4 -42 callsubr
          -5 -9 -14 -4 -10 hhcurveto
          -4 -4 0 2 -3 hvcurveto
          -3 2 -11 31 -1 -25 callsubr
          0 2 3 6 1 6 7 vvcurveto
          11 -6 8 -2 10 vhcurveto
          -4 20 3 23 -2 19 rrcurveto
          -1 7 -8 10 8 4 1 4 5 vvcurveto
          10 -6 10 -1 11 vhcurveto
          -4 33 0 46 -15 30 rrcurveto
          -4 13 -2 12 1 2 3 2 8 vvcurveto
          10 -2 7 -2 11 vhcurveto
          -4 19 4 38 -3 16 -2 8 -12 13 -1 4 rrcurveto
          14 -4 7 5 -18 hhcurveto
          -9 -1 -9 -2 -4 hvcurveto
          -7 -4 -8 3 -7 -16 callsubr
          -8 -5 -4 rrcurveto
          -7 -5 -9 -1 -3 -2 -83 callgsubr
          -3 -36 -11 -1 -12 vhcurveto
          -1 -9 -14 -4 -8 vvcurveto
          -6 6 -3 3 vhcurveto
          10 8 13 8 hhcurveto
          -13 callgsubr
          -28 callgsubr
          -7 -30 -26 -42 -3 -8 -3 -4 -31 callsubr
          -24 callsubr
          -8 -47 callgsubr
          -5 -10 2 -9 -4 -3 rrcurveto
          -79 callgsubr
          0 0 -2 -89 callgsubr
          -1 vlineto
          -14 -25 -20 -43 1 -2 -89 callgsubr
          -7 -10 -9 -1 -6 vhcurveto
          84 callgsubr
          -4 -5 -16 -27 -10 -28 -13 -25 -6 -11 -7 -10 -6 -12 -7 -14 -6 -22 -5 -4 rrcurveto
          8 callsubr
          vhcurveto
          77 callsubr
          86 callgsubr
          -1 0 -78 callsubr
          -4 -15 -9 -3 -1 vhcurveto
          -10 -5 -43 11 -31 87 callgsubr
          12 24 42 11 -61 callsubr
          24 4 56 0 21 vvcurveto
          -12 10 -37 -6 20 vvcurveto
          9 8 71 callgsubr
          8 24 4 12 5 11 15 27 22 1 40 5 37 4 33 0 32 3 rrcurveto
          1 12 7 2 5 hhcurveto
          19 -5 -35 -15 2 hvcurveto
          1 -7 5 -10 2 -9 rrcurveto
          1 -10 1 -13 -11 vvcurveto
          -10 -1 -9 -70 callsubr
          -8 -8 -48 13 -19 vvcurveto
          -7 11 -6 16 -1 vhcurveto
          14 14 7 10 12 12 -7 6 hhcurveto
          1 hlineto
          1 27 12 2 1 vhcurveto
          17 8 51 -13 19 vvcurveto
          2 -1 23 callgsubr
          -157 164 rmoveto
          -7 -9 -19 4 -18 5 callgsubr
          -39 -46 -10 -42 hhcurveto
          3 25 15 22 11 22 10 23 8 25 11 22 10 21 15 20 11 21 13 25 7 29 16 22 rrcurveto
          1 hlineto
          11 7 -87 -33 3 hvcurveto
          -11 vlineto
          5 -15 2 -28 5 -26 1 -10 4 -10 2 -10 rrcurveto
          -5 -4 0 -2 1 5 -8 -6 vvcurveto
          -89 callsubr
          -1 -1 vhcurveto
          -25 385 rmoveto
          -103 callsubr
        </CharString>
        <CharString name="Amacron">
          149 495 29 rmoveto
          4 -42 callsubr
          -5 -9 -14 -4 -10 hhcurveto
          -4 -4 0 2 -3 hvcurveto
          -3 2 -11 31 -1 -25 callsubr
          0 2 3 6 1 6 7 vvcurveto
          11 -6 8 -2 10 vhcurveto
          -4 20 3 23 -2 19 rrcurveto
          -1 7 -8 10 8 4 1 4 5 vvcurveto
          10 -6 10 -1 11 vhcurveto
          -4 33 0 46 -15 30 rrcurveto
          -4 13 -2 12 1 2 3 2 8 vvcurveto
          10 -2 7 -2 11 vhcurveto
          -4 19 4 38 -3 16 -2 8 -12 13 -1 4 rrcurveto
          14 -4 7 5 -18 hhcurveto
          -9 -1 -9 -2 -4 hvcurveto
          -7 -4 -8 3 -7 -16 callsubr
          -8 -5 -4 rrcurveto
          -7 -5 -9 -1 -3 -2 -83 callgsubr
          -3 -36 -11 -1 -12 vhcurveto
          -1 -9 -14 -4 -8 vvcurveto
          -6 6 -3 3 vhcurveto
          10 8 13 8 hhcurveto
          -13 callgsubr
          -28 callgsubr
          -7 -30 -26 -42 -3 -8 -3 -4 -31 callsubr
          -24 callsubr
          -8 -47 callgsubr
          -5 -10 2 -9 -4 -3 rrcurveto
          -79 callgsubr
          0 0 -2 -89 callgsubr
          -1 vlineto
          -14 -25 -20 -43 1 -2 -89 callgsubr
          -7 -10 -9 -1 -6 vhcurveto
          84 callgsubr
          -4 -5 -16 -27 -10 -28 -13 -25 -6 -11 -7 -10 -6 -12 -7 -14 -6 -22 -5 -4 rrcurveto
          8 callsubr
          vhcurveto
          77 callsubr
          86 callgsubr
          -1 0 -78 callsubr
          -4 -15 -9 -3 -1 vhcurveto
          -10 -5 -43 11 -31 87 callgsubr
          12 24 42 11 -61 callsubr
          24 4 56 0 21 vvcurveto
          -12 10 -37 -6 20 vvcurveto
          9 8 71 callgsubr
          8 24 4 12 5 11 15 27 22 1 40 5 37 4 33 0 32 3 rrcurveto
          1 12 7 2 5 hhcurveto
          19 -5 -35 -15 2 hvcurveto
          1 -7 5 -10 2 -9 rrcurveto
          1 -10 1 -13 -11 vvcurveto
          -10 -1 -9 -70 callsubr
          -8 -8 -48 13 -19 vvcurveto
          -7 11 -6 16 -1 vhcurveto
          14 14 7 10 12 12 -7 6 hhcurveto
          1 hlineto
          1 27 12 2 1 vhcurveto
          17 8 51 -13 19 vvcurveto
          2 -1 23 callgsubr
          -157 164 rmoveto
          -7 -9 -19 4 -18 5 callgsubr
          -39 -46 -10 -42 hhcurveto
          3 25 15 22 11 22 10 23 8 25 11 22 10 21 15 20 11 21 13 25 7 29 16 22 rrcurveto
          1 hlineto
          11 7 -87 -33 3 hvcurveto
          -11 vlineto
          5 -15 2 -28 5 -26 1 -10 4 -10 2 -10 rrcurveto
          -5 -4 0 -2 1 5 -8 -6 vvcurveto
          -89 callsubr
          -1 -1 vhcurveto
          146 446 -102 callgsubr
        </CharString>
        <CharString name="Aogonek">
          149 456 -60 callgsubr
          -13 109 callsubr
          5 12 3 10 vhcurveto
          -2 5 3 -1 3 hhcurveto
          1 hlineto
          1 27 12 2 1 vhcurveto
          17 8 51 -13 19 vvcurveto
          2 -1 23 callgsubr
          4 -42 callsubr
          -5 -9 -14 -4 -10 hhcurveto
          -4 -4 0 2 -3 hvcurveto
          -3 2 -11 31 -1 -25 callsubr
          0 2 3 6 1 6 7 vvcurveto
          11 -6 8 -2 10 vhcurveto
          -4 20 3 23 -2 19 rrcurveto
          -1 7 -8 10 8 4 1 4 5 vvcurveto
          10 -6 10 -1 11 vhcurveto
          -4 33 0 46 -15 30 rrcurveto
          -4 13 -2 12 1 2 3 2 8 vvcurveto
          10 -2 7 -2 11 vhcurveto
          -4 19 4 38 -3 16 -2 8 -12 13 -1 4 rrcurveto
          14 -4 7 5 -18 hhcurveto
          -9 -1 -9 -2 -4 hvcurveto
          -7 -4 -8 3 -7 -16 callsubr
          -8 -5 -4 rrcurveto
          -7 -5 -9 -1 -3 -2 -83 callgsubr
          -3 -36 -11 -1 -12 vhcurveto
          -1 -9 -14 -4 -8 vvcurveto
          -6 6 -3 3 vhcurveto
          10 8 13 8 hhcurveto
          -13 callgsubr
          -28 callgsubr
          -7 -30 -26 -42 -3 -8 -3 -4 -31 callsubr
          -24 callsubr
          -8 -47 callgsubr
          -5 -10 2 -9 -4 -3 rrcurveto
          -79 callgsubr
          0 0 -2 -89 callgsubr
          -1 vlineto
          -14 -25 -20 -43 1 -2 -89 callgsubr
          -7 -10 -9 -1 -6 vhcurveto
          84 callgsubr
          -4 -5 -16 -27 -10 -28 -13 -25 -6 -11 -7 -10 -6 -12 -7 -14 -6 -22 -5 -4 rrcurveto
          8 callsubr
          vhcurveto
          77 callsubr
          86 callgsubr
          -1 0 -78 callsubr
          -4 -15 -9 -3 -1 vhcurveto
          -10 -5 -43 11 -31 87 callgsubr
          12 24 42 11 -61 callsubr
          24 4 56 0 21 vvcurveto
          -12 10 -37 -6 20 vvcurveto
          9 8 71 callgsubr
          8 24 4 12 5 11 15 27 22 1 40 5 37 4 33 0 32 3 rrcurveto
          1 12 7 2 5 hhcurveto
          19 -5 -35 -15 2 hvcurveto
          1 -7 5 -10 2 -9 rrcurveto
          1 -10 1 -13 -11 vvcurveto
          -10 -1 -9 -70 callsubr
          -8 -8 -48 13 -19 vvcurveto
          -7 11 -6 16 -1 vhcurveto
          14 14 7 10 hhcurveto
          3 2 0 -1 3 hvcurveto
          -5 -9 -5 -9 -4 -3 rrcurveto
          -65 callgsubr
          -3 -8 2 -5 -2 -8 rrcurveto
          -4 -3 -1 -5 -77 callsubr
          3 -1 2 -2 1 -5 3 -2 rrcurveto
          7 -8 22 -13 -4 -1 -1 -2 -1 vvcurveto
          -1 1 0 1 vhcurveto
          -37 callgsubr
          1 5 0 30 callgsubr
          5 hvcurveto
          13 callsubr
          -118 315 rmoveto
          -7 -9 -19 4 -18 5 callgsubr
          -39 -46 -10 -42 hhcurveto
          3 25 15 22 11 22 10 23 8 25 11 22 10 21 15 20 11 21 13 25 7 29 16 22 rrcurveto
          1 hlineto
          11 7 -87 -33 3 hvcurveto
          -11 vlineto
          5 -15 2 -28 5 -26 1 -10 4 -10 2 -10 rrcurveto
          -5 -4 0 -2 1 5 -8 -6 vvcurveto
          -89 callsubr
          -1 -1 vhcurveto
          endchar
        </CharString>
        <CharString name="Aring">
          149 495 29 rmoveto
          4 -42 callsubr
          -5 -9 -14 -4 -10 hhcurveto
          -4 -4 0 2 -3 hvcurveto
          -3 2 -11 31 -1 -25 callsubr
          0 2 3 6 1 6 7 vvcurveto
          11 -6 8 -2 10 vhcurveto
          -4 20 3 23 -2 19 rrcurveto
          -1 7 -8 10 8 4 1 4 5 vvcurveto
          10 -6 10 -1 11 vhcurveto
          -4 33 0 46 -15 30 rrcurveto
          -4 13 -2 12 1 2 3 2 8 vvcurveto
          10 -2 7 -2 11 vhcurveto
          -4 19 4 38 -3 16 -2 8 -12 13 -1 4 rrcurveto
          14 -4 7 5 -18 hhcurveto
          -9 -1 -9 -2 -4 hvcurveto
          -7 -4 -8 3 -7 -16 callsubr
          -8 -5 -4 rrcurveto
          -7 -5 -9 -1 -3 -2 -83 callgsubr
          -3 -36 -11 -1 -12 vhcurveto
          -1 -9 -14 -4 -8 vvcurveto
          -6 6 -3 3 vhcurveto
          10 8 13 8 hhcurveto
          -13 callgsubr
          -28 callgsubr
          -7 -30 -26 -42 -3 -8 -3 -4 -31 callsubr
          -24 callsubr
          -8 -47 callgsubr
          -5 -10 2 -9 -4 -3 rrcurveto
          -79 callgsubr
          0 0 -2 -89 callgsubr
          -1 vlineto
          -14 -25 -20 -43 1 -2 -89 callgsubr
          -7 -10 -9 -1 -6 vhcurveto
          84 callgsubr
          -4 -5 -16 -27 -10 -28 -13 -25 -6 -11 -7 -10 -6 -12 -7 -14 -6 -22 -5 -4 rrcurveto
          8 callsubr
          vhcurveto
          77 callsubr
          86 callgsubr
          -1 0 -78 callsubr
          -4 -15 -9 -3 -1 vhcurveto
          -10 -5 -43 11 -31 87 callgsubr
          12 24 42 11 -61 callsubr
          24 4 56 0 21 vvcurveto
          -12 10 -37 -6 20 vvcurveto
          9 8 71 callgsubr
          8 24 4 12 5 11 15 27 22 1 40 5 37 4 33 0 32 3 rrcurveto
          1 12 7 2 5 hhcurveto
          19 -5 -35 -15 2 hvcurveto
          1 -7 5 -10 2 -9 rrcurveto
          1 -10 1 -13 -11 vvcurveto
          -10 -1 -9 -70 callsubr
          -8 -8 -48 13 -19 vvcurveto
          -7 11 -6 16 -1 vhcurveto
          14 14 7 10 12 12 -7 6 hhcurveto
          1 hlineto
          1 27 12 2 1 vhcurveto
          17 8 51 -13 19 vvcurveto
          2 -1 23 callgsubr
          -157 164 rmoveto
          -7 -9 -19 4 -18 5 callgsubr
          -39 -46 -10 -42 hhcurveto
          3 25 15 22 11 22 10 23 8 25 11 22 10 21 15 20 11 21 13 25 7 29 16 22 rrcurveto
          1 hlineto
          11 7 -87 -33 3 hvcurveto
          -11 vlineto
          5 -15 2 -28 5 -26 1 -10 4 -10 2 -10 rrcurveto
          -5 -4 0 -2 1 5 -8 -6 vvcurveto
          -89 callsubr
          -1 -1 vhcurveto
          45 482 -99 callsubr
        </CharString>
        <CharString name="Atilde">
          149 495 29 rmoveto
          4 -42 callsubr
          -5 -9 -14 -4 -10 hhcurveto
          -4 -4 0 2 -3 hvcurveto
          -3 2 -11 31 -1 -25 callsubr
          0 2 3 6 1 6 7 vvcurveto
          11 -6 8 -2 10 vhcurveto
          -4 20 3 23 -2 19 rrcurveto
          -1 7 -8 10 8 4 1 4 5 vvcurveto
          10 -6 10 -1 11 vhcurveto
          -4 33 0 46 -15 30 rrcurveto
          -4 13 -2 12 1 2 3 2 8 vvcurveto
          10 -2 7 -2 11 vhcurveto
          -4 19 4 38 -3 16 -2 8 -12 13 -1 4 rrcurveto
          14 -4 7 5 -18 hhcurveto
          -9 -1 -9 -2 -4 hvcurveto
          -7 -4 -8 3 -7 -16 callsubr
          -8 -5 -4 rrcurveto
          -7 -5 -9 -1 -3 -2 -83 callgsubr
          -3 -36 -11 -1 -12 vhcurveto
          -1 -9 -14 -4 -8 vvcurveto
          -6 6 -3 3 vhcurveto
          10 8 13 8 hhcurveto
          -13 callgsubr
          -28 callgsubr
          -7 -30 -26 -42 -3 -8 -3 -4 -31 callsubr
          -24 callsubr
          -8 -47 callgsubr
          -5 -10 2 -9 -4 -3 rrcurveto
          -79 callgsubr
          0 0 -2 -89 callgsubr
          -1 vlineto
          -14 -25 -20 -43 1 -2 -89 callgsubr
          -7 -10 -9 -1 -6 vhcurveto
          84 callgsubr
          -4 -5 -16 -27 -10 -28 -13 -25 -6 -11 -7 -10 -6 -12 -7 -14 -6 -22 -5 -4 rrcurveto
          8 callsubr
          vhcurveto
          77 callsubr
          86 callgsubr
          -1 0 -78 callsubr
          -4 -15 -9 -3 -1 vhcurveto
          -10 -5 -43 11 -31 87 callgsubr
          12 24 42 11 -61 callsubr
          24 4 56 0 21 vvcurveto
          -12 10 -37 -6 20 vvcurveto
          9 8 71 callgsubr
          8 24 4 12 5 11 15 27 22 1 40 5 37 4 33 0 32 3 rrcurveto
          1 12 7 2 5 hhcurveto
          19 -5 -35 -15 2 hvcurveto
          1 -7 5 -10 2 -9 rrcurveto
          1 -10 1 -13 -11 vvcurveto
          -10 -1 -9 -70 callsubr
          -8 -8 -48 13 -19 vvcurveto
          -7 11 -6 16 -1 vhcurveto
          14 14 7 10 12 12 -7 6 hhcurveto
          1 hlineto
          1 27 12 2 1 vhcurveto
          17 8 51 -13 19 vvcurveto
          2 -1 23 callgsubr
          -157 164 rmoveto
          -7 -9 -19 4 -18 5 callgsubr
          -39 -46 -10 -42 hhcurveto
          3 25 15 22 11 22 10 23 8 25 11 22 10 21 15 20 11 21 13 25 7 29 16 22 rrcurveto
          1 hlineto
          11 7 -87 -33 3 hvcurveto
          -11 vlineto
          5 -15 2 -28 5 -26 1 -10 4 -10 2 -10 rrcurveto
          -5 -4 0 -2 1 5 -8 -6 vvcurveto
          -89 callsubr
          -1 -1 vhcurveto
          128 471 rmoveto
          10 -5 6 -6 -2 -2 -1 -70 callsubr
          -14 -22 -20 -32 -9 -1 rrcurveto
          -6 -18 5 1 -3 hvcurveto
          -79 callgsubr
          -1 -2 -2 -1 -3 hhcurveto
          -3 -34 callsubr
          -2 hvcurveto
          -16 8 -16 7 -12 7 rrcurveto
          8 -15 -15 14 -13 hhcurveto
          -14 -1 -5 -8 -8 hvcurveto
          -24 callgsubr
          -1 -4 -3 -79 callgsubr
          -4 -2 -67 callsubr
          -3 -1 -6 -7 -5 -7 -11 -8 rrcurveto
          -15 -12 -10 2 -16 vvcurveto
          -10 3 -4 9 12 -1 10 20 14 vhcurveto
          1 1 5 0 -36 callgsubr
          6 6 -3 12 13 hhcurveto
          10 9 -12 -3 12 hvcurveto
          20 -6 17 -11 14 -9 11 -7 14 -3 8 -5 rrcurveto
          -4 6 -66 callgsubr
          hhcurveto
          17 7 12 2 3 hvcurveto
          2 1 9 11 2 vvcurveto
          10 14 45 28 16 vvcurveto
          endchar
        </CharString>
        <CharString name="B">
          105 443 413 rmoveto
          2 -10 7 -4 6 vhcurveto
          -7 9 -3 11 -1 2 -3 3 -9 2 -7 5 rrcurveto
          4 -3 -4 15 -5 46 callsubr
          -4 -49 callsubr
          -3 hvcurveto
          -3 3 -7 -2 -4 3 -3 2 2 5 -2 4 -6 9 -16 2 -15 7 rrcurveto
          3 -9 -11 8 -6 hhcurveto
          -4 2 3 1 -1 hvcurveto
          -12 5 -21 -2 8 3 8 18 10 7 -1 5 6 -17 callgsubr
          3 -2 1 -3 vhcurveto
          -2 hlineto
          -3 -10 -8 -8 -2 -89 callsubr
          -1 vvcurveto
          -2 -9 -5 -2 -1 vhcurveto
          -21 -15 -1 -5 -14 -2 rrcurveto
          -16 -18 8 -15 hhcurveto
          -16 -24 -31 -10 -10 hvcurveto
          -11 -10 -23 -13 -17 vvcurveto
          -3 0 -5 6 vhcurveto
          11 10 31 23 2 0 -1 4 11 14 3 12 hhcurveto
          7 7 -1 -6 4 hvcurveto
          -1 2 0 -28 -3 -14 rrcurveto
          -1 -7 -6 -7 -4 vvcurveto
          -4 -26 -10 -83 -4 -6 rrcurveto
          -5 3 -6 -5 85 callgsubr
          -1 -4 vhcurveto
          -1 -26 callsubr
          -3 vvcurveto
          -7 vlineto
          -3 -47 callgsubr
          -1 -89 callgsubr
          -3 -8 2 callsubr
          vhcurveto
          -36 callsubr
          -9 -4 -9 16 -5 -13 vvcurveto
          -4 -1 -4 -2 -4 vhcurveto
          -1 -4 -3 -9 -7 1 -7 -4 vvcurveto
          -10 -11 -22 -4 -18 vhcurveto
          -3 -12 -2 -38 -2 -5 -6 -10 -14 0 -9 -8 -7 -6 -3 -9 -5 -6 rrcurveto
          -5 -7 -11 -3 -8 vvcurveto
          -7 11 2 6 vhcurveto
          -1 19 18 5 13 10 12 -3 11 hhcurveto
          5 -1 9 -48 callgsubr
          rrcurveto
          5 60 25 6 8 -18 callsubr
          16 4 27 7 5 4 2 -4 callsubr
          2 4 3 7 1 -23 callgsubr
          7 7 9 7 6 4 4 7 0 4 4 3 3 0 8 3 3 5 4 7 1 4 2 rrcurveto
          12 10 3 10 10 13 rrcurveto
          9 11 5 6 7 vvcurveto
          6 -5 8 -2 10 vhcurveto
          -6 46 1 -14 -5 12 -5 10 -5 14 -6 8 -9 15 0 13 -13 16 rrcurveto
          -8 11 -17 13 13 vvcurveto
          9 17 5 8 7 vhcurveto
          -68 callgsubr
          -46 callgsubr
          6 -37 callsubr
          3 2 rrcurveto
          12 10 28 33 12 vvcurveto
          -76 -291 rmoveto
          1 -10 1 -6 -4 vvcurveto
          -3 -14 -30 -3 -2 vhcurveto
          -6 -5 -35 -3 -14 -3 rrcurveto
          -4 -19 -31 -4 -29 hhcurveto
          -16 -15 1 3 -13 hvcurveto
          4 49 11 25 7 47 2 15 -1 27 10 9 2 -19 callsubr
          rrcurveto
          28 34 20 17 11 hhcurveto
          18 callgsubr
          -4 5 hvcurveto
          1 -1 1 -5 1 -1 4 -2 8 -2 3 -3 4 -4 3 -6 4 -5 4 -4 6 -5 1 -1 6 -12 -4 -12 5 -14 2 -3 3 -3 3 -4 1 -3 0 -4 2 -4 rrcurveto
          3 -7 7 -1 5 -39 rrcurveto
          7 270 rmoveto
          -8 -28 -33 -8 -7 vhcurveto
          -53 callgsubr
          2 -57 callsubr
          -1 0 -5 -2 -1 -87 callgsubr
          -3 -1 -50 callsubr
          -5 -3 -9 -2 -5 -2 -6 -3 2 callgsubr
          -4 -4 69 callgsubr
          rrcurveto
          -2 -2 0 -4 -2 -1 -87 callgsubr
          -3 rrcurveto
          -4 -5 -15 -18 -14 hhcurveto
          -5 0 5 0 -1 1 15 5 hvcurveto
          6 -4 7 7 14 8 14 17 -43 callgsubr
          3 15 11 6 14 5 -1 6 7 vvcurveto
          26 19 42 3 3 10 -1 -2 10 vhcurveto
          2 -1 3 -5 2 -1 7 -4 5 0 10 -4 rrcurveto
          -1 11 -5 7 -5 vhcurveto
          -1 2 -2 -2 4 hhcurveto
          8 -1 21 -33 7 -10 rrcurveto
          7 -9 4 -1 -4 vvcurveto
          endchar
        </CharString>
        <CharString name="C">
          -104 callgsubr
          endchar
        </CharString>
        <CharString name="Cacute">
          -104 callgsubr
          -72 142 -106 callgsubr
          endchar
        </CharString>
        <CharString name="Ccaron">
          -104 callgsubr
          -74 166 -104 callsubr
        </CharString>
        <CharString name="Ccedilla">
          124 311 -102 rmoveto
          6 -4 11 -5 9 vhcurveto
          -1 3 -5 2 -3 4 -2 25 callgsubr
          vvcurveto
          3 1 3 callsubr
          vhcurveto
          3 4 1 1 3 hvcurveto
          12 4 18 -1 10 47 callsubr
          3 6 3 2 1 0 1 hhcurveto
          3 0 -9 callgsubr
          hvcurveto
          8 4 7 0 3 3 7 7 1 4 7 7 4 5 8 3 3 4 4 4 1 8 2 18 callsubr
          5 12 3 4 33 36 rcurveline
          10 11 11 9 5 13 rrcurveto
          -4 hlineto
          -18 -7 -17 -8 -8 hvcurveto
          -5 -6 -8 -3 -5 -6 -5 -6 -1 68 callsubr
          -8 1 -3 -2 -10 -5 -3 -12 -6 -4 -63 callsubr
          -2 -4 -3 rrcurveto
          -14 -24 -13 -3 -39 hhcurveto
          -15 -15 1 2 -7 hvcurveto
          -4 1 -10 10 -12 7 -11 6 -12 3 -6 5 -11 9 -8 19 -3 5 -5 11 0 10 -6 5 rrcurveto
          -10 callgsubr
          0 vhcurveto
          -51 callsubr
          1 vlineto
          -10 25 1 36 -1 31 rrcurveto
          -1 9 -3 11 7 9 7 7 11 7 0 6 4 vvcurveto
          11 9 7 2 5 vhcurveto
          4 11 3 16 2 vvcurveto
          12 39 1 -3 5 8 33 callgsubr
          2 106 callsubr
          3 7 12 4 4 7 9 4 6 4 9 4 4 3 3 8 2 7 6 11 10 8 12 10 7 rrcurveto
          8 11 13 2 13 hhcurveto
          25 28 -7 -3 12 hvcurveto
          -4 13 8 -7 1 hhcurveto
          7 -4 8 0 10 -3 rrcurveto
          -3 9 4 -4 4 hhcurveto
          9 11 16 9 11 hvcurveto
          2 2 6 -44 callsubr
          rrcurveto
          6 5 12 15 5 vvcurveto
          -2 7 -21 1 -6 3 -47 23 8 -9 -12 5 rrcurveto
          4 -11 -28 12 -19 -36 callsubr
          -4 -1 -3 0 -1 hhcurveto
          -7 1 -15 -15 -7 -4 -16 -9 -21 -7 -11 -10 -5 -3 0 -7 -6 -4 -14 -11 -13 -8 -13 -14 -5 -5 -5 -2 -5 -4 -19 -18 -15 -16 -16 -17 -9 -9 -12 -9 -5 -7 rrcurveto
          -2 -3 -2 -10 -4 -5 -3 -6 -6 -5 -1 -5 -4 -7 1 -7 -5 -3 rrcurveto
          -1 0 0 66 callgsubr
          -12 -31 -3 -43 -3 -35 rrcurveto
          -1 -7 -3 -9 -6 vvcurveto
          1 -13 6 -29 1 -9 rrcurveto
          -3 3 -3 -1 vvcurveto
          5 -32 3 -29 14 -16 8 -8 6 -15 5 -6 4 -6 5 1 5 -3 rrcurveto
          1 1 -5 -28 callgsubr
          17 -13 26 -8 15 -9 rrcurveto
          -7 13 22 -3 21 hhcurveto
          -11 -19 -10 -25 -3 -17 33 -10 -18 -2 -1 -3 -3 vvcurveto
          17 callsubr
          -6 0 vvcurveto
          -2 -5 -34 -13 0 vvcurveto
          -2 vlineto
          -1 0 0 -1 vhcurveto
          -4 hlineto
          -15 -5 -19 5 -15 vvcurveto
          -19 12 1 2 13 20 14 -61 callsubr
          8 9 7 2 5 5 3 callsubr
          -13 callsubr
          2 2 5 -1 2 2 rrcurveto
          8 7 18 22 6 vvcurveto
          endchar
        </CharString>
        <CharString name="Ccircumflex">
          -104 callgsubr
          -68 88 -105 callsubr
        </CharString>
        <CharString name="Cdotaccent">
          -104 callgsubr
          -110 140 rmoveto
          80 callgsubr
          9 -11 5 -80 callgsubr
          3 -4 -1 4 -7 hhcurveto
          -7 -6 -4 0 hvcurveto
          -6 -1 -12 1 -8 -7 -3 -3 -58 callsubr
          -6 rrcurveto
          -3 -4 0 -70 callgsubr
          10 callsubr
          -20 -12 -5 -10 vvcurveto
          -1 0 -1 0 vhcurveto
          4 7 -14 9 hhcurveto
          18 13 36 7 8 hvcurveto
          3 3 -2 1 -88 callsubr
          4 6 4 -88 callsubr
          5 -2 5 -69 callgsubr
          -49 callsubr
          -88 callgsubr
          endchar
        </CharString>
        <CharString name="D">
          173 502 256 rmoveto
          25 -9 52 -13 11 vhcurveto
          0 vlineto
          2 0 2 2 4 -7 8 80 callgsubr
          8 -12 13 -3 5 vhcurveto
          -3 8 0 8 -4 6 -9 14 -13 11 -7 11 -4 5 1 8 -4 6 -3 3 -8 2 -8 5 -5 5 -4 6 -5 4 -11 8 -14 6 -8 4 rrcurveto
          1 -1 -1 6 -2 hhcurveto
          -8 4 -24 10 -4 1 rrcurveto
          -2 hlineto
          -2 -3 0 -2 hhcurveto
          -4 -2 6 1 -3 hvcurveto
          6 -18 -4 -1 -4 -2 -2 -1 -2 hhcurveto
          -9 -2 7 10 hvcurveto
          17 6 22 9 vvcurveto
          1 -6 3 -3 -4 -7 -19 -3 -2 vhcurveto
          -2 12 callgsubr
          -2 -89 callsubr
          -1 vvcurveto
          -4 -13 -3 -5 -5 vhcurveto
          -3 -3 2 -5 -63 callsubr
          -9 -43 5 -8 -3 -17 -7 -12 -21 -11 -9 -18 -15 -23 -11 -3 -21 rrcurveto
          -1 2 2 0 2 13 4 16 22 3 4 -1 4 11 14 4 11 hhcurveto
          8 10 -3 -10 hvcurveto
          -13 -8 -26 -8 -62 callgsubr
          -5 vvcurveto
          -9 -6 -9 -2 -9 vhcurveto
          -7 -30 4 -81 -12 -39 -4 -13 -2 -25 -1 -9 -2 -17 0 -11 -2 -12 -2 -13 -3 -17 -2 -17 -1 -11 -3 -32 -3 -7 callsubr
          -6 1 -3 -2 -8 -4 -2 -8 -5 -2 rrcurveto
          -9 -6 -1 10 -12 -18 rrcurveto
          -9 -14 -16 -8 -7 vvcurveto
          -5 7 -1 9 vhcurveto
          8 10 2 6 hhcurveto
          0 3 -4 4 vhcurveto
          1 8 13 4 10 11 9 -1 11 9 11 3 9 hhcurveto
          49 3 43 -2 25 7 rrcurveto
          96 callgsubr
          hvcurveto
          13 5 8 1 8 5 9 4 41 18 12 14 rrcurveto
          1 -10 callgsubr
          vhcurveto
          -13 callgsubr
          1 hhcurveto
          9 22 35 5 7 hvcurveto
          6 5 9 -3 3 13 rrcurveto
          4 2 -3 2 2 vhcurveto
          21 34 15 63 49 vvcurveto
          -55 -80 rmoveto
          -20 1 -27 -4 -7 vhcurveto
          -19 -22 -31 -8 -30 -14 -8 -4 -5 -4 -17 -3 -16 -4 -29 -1 -20 15 callsubr
          -19 -39 -10 -24 hhcurveto
          -5 -8 4 2 -63 callgsubr
          3 2 hvcurveto
          18 21 -1 47 5 41 3 24 5 25 2 24 rrcurveto
          0 -3 5 2 vvcurveto
          5 5 11 2 10 vhcurveto
          4 35 0 46 4 40 2 23 5 23 3 22 rrcurveto
          8 1 -2 4 9 hhcurveto
          15 8 -2 -6 13 hvcurveto
          31 -8 10 -8 36 -20 4 -3 18 -8 3 -4 6 -6 10 -23 6 -11 6 -10 2 -10 7 -13 4 -8 4 -8 6 -16 6 -17 3 -24 6 -22 rrcurveto
          2 -9 2 -20 -21 vvcurveto
          -6 0 -6 -1 -7 vhcurveto
          endchar
        </CharString>
        <CharString name="Dcaron">
          173 502 256 rmoveto
          25 -9 52 -13 11 vhcurveto
          0 vlineto
          2 0 2 2 4 -7 8 80 callgsubr
          8 -12 13 -3 5 vhcurveto
          -3 8 0 8 -4 6 -9 14 -13 11 -7 11 -4 5 1 8 -4 6 -3 3 -8 2 -8 5 -5 5 -4 6 -5 4 -11 8 -14 6 -8 4 rrcurveto
          1 -1 -1 6 -2 hhcurveto
          -8 4 -24 10 -4 1 rrcurveto
          -2 hlineto
          -2 -3 0 -2 hhcurveto
          -4 -2 6 1 -3 hvcurveto
          6 -18 -4 -1 -4 -2 -2 -1 -2 hhcurveto
          -9 -2 7 10 hvcurveto
          17 6 22 9 vvcurveto
          1 -6 3 -3 -4 -7 -19 -3 -2 vhcurveto
          -2 12 callgsubr
          -2 -89 callsubr
          -1 vvcurveto
          -4 -13 -3 -5 -5 vhcurveto
          -3 -3 2 -5 -63 callsubr
          -9 -43 5 -8 -3 -17 -7 -12 -21 -11 -9 -18 -15 -23 -11 -3 -21 rrcurveto
          -1 2 2 0 2 13 4 16 22 3 4 -1 4 11 14 4 11 hhcurveto
          8 10 -3 -10 hvcurveto
          -13 -8 -26 -8 -62 callgsubr
          -5 vvcurveto
          -9 -6 -9 -2 -9 vhcurveto
          -7 -30 4 -81 -12 -39 -4 -13 -2 -25 -1 -9 -2 -17 0 -11 -2 -12 -2 -13 -3 -17 -2 -17 -1 -11 -3 -32 -3 -7 callsubr
          -6 1 -3 -2 -8 -4 -2 -8 -5 -2 rrcurveto
          -9 -6 -1 10 -12 -18 rrcurveto
          -9 -14 -16 -8 -7 vvcurveto
          -5 7 -1 9 vhcurveto
          8 10 2 6 hhcurveto
          0 3 -4 4 vhcurveto
          1 8 13 4 10 11 9 -1 11 9 11 3 9 hhcurveto
          49 3 43 -2 25 7 rrcurveto
          96 callgsubr
          hvcurveto
          13 5 8 1 8 5 9 4 41 18 12 14 rrcurveto
          1 -10 callgsubr
          vhcurveto
          -13 callgsubr
          1 hhcurveto
          9 22 35 5 7 hvcurveto
          6 5 9 -3 3 13 rrcurveto
          4 2 -3 2 2 vhcurveto
          21 34 15 63 49 vvcurveto
          -55 -80 rmoveto
          -20 1 -27 -4 -7 vhcurveto
          -19 -22 -31 -8 -30 -14 -8 -4 -5 -4 -17 -3 -16 -4 -29 -1 -20 15 callsubr
          -19 -39 -10 -24 hhcurveto
          -5 -8 4 2 -63 callgsubr
          3 2 hvcurveto
          18 21 -1 47 5 41 3 24 5 25 2 24 rrcurveto
          0 -3 5 2 vvcurveto
          5 5 11 2 10 vhcurveto
          4 35 0 46 4 40 2 23 5 23 3 22 rrcurveto
          8 1 -2 4 9 hhcurveto
          15 8 -2 -6 13 hvcurveto
          31 -8 10 -8 36 -20 4 -3 18 -8 3 -4 6 -6 10 -23 6 -11 6 -10 2 -10 7 -13 4 -8 4 -8 6 -16 6 -17 3 -24 6 -22 rrcurveto
          2 -9 2 -20 -21 vvcurveto
          -6 0 -6 -1 -7 vhcurveto
          -33 516 -104 callsubr
        </CharString>
        <CharString name="Dcroat">
          175 503 256 rmoveto
          25 -9 52 -13 11 vhcurveto
          0 vlineto
          2 1 2 2 4 -8 8 -37 callgsubr
          -86 callsubr
          8 -13 13 -2 5 vhcurveto
          -4 8 0 8 -3 6 -9 14 -14 11 -7 11 -3 5 1 8 -5 6 -3 3 -8 2 -7 5 -6 5 -3 6 -6 4 -10 8 -14 6 -8 4 rrcurveto
          1 -2 0 6 -2 hhcurveto
          -8 4 -25 10 -3 1 rrcurveto
          -3 hlineto
          -2 -89 callsubr
          hhcurveto
          -4 -3 6 1 -3 hvcurveto
          6 -17 -4 -1 -4 -3 -2 -1 -2 hhcurveto
          -9 -2 7 10 hvcurveto
          17 7 22 9 vvcurveto
          1 -7 3 -2 -4 -8 -19 -3 -1 vhcurveto
          -11 callsubr
          -2 -2 -2 -83 callgsubr
          -4 -14 -3 -5 -5 vhcurveto
          -90 callsubr
          -8 -9 -43 5 -8 -3 -16 -7 -13 -21 -11 -9 -17 -15 -24 -11 -3 -21 rrcurveto
          -1 3 2 0 2 12 5 16 21 4 4 -1 3 12 13 4 11 hhcurveto
          9 10 -3 -10 hvcurveto
          -13 -9 -26 -8 -62 callgsubr
          -5 vvcurveto
          -9 -6 -9 -2 -9 vhcurveto
          -5 -22 1 -51 -4 -40 rrcurveto
          -1 -7 -5 -2 -6 -8 -12 3 -4 -3 -9 -19 -85 callsubr
          1 -2 hhcurveto
          1 -13 -17 -7 -6 hvcurveto
          -6 -9 -14 82 callgsubr
          2 10 5 8 44 callgsubr
          16 hhcurveto
          7 7 0 -1 5 hvcurveto
          -1 -10 -1 -10 -5 vvcurveto
          -3 -17 1 -11 -2 -12 -2 -13 -3 -17 -2 -17 -2 -11 -3 -32 -3 -5 -1 -3 -6 2 callsubr
          -7 -4 -3 -8 -4 -2 -9 -6 -2 10 -11 -18 rrcurveto
          -10 -14 -15 -8 -7 vvcurveto
          -5 7 -1 8 vhcurveto
          9 10 2 5 1 2 -4 5 hhcurveto
          1 7 13 4 10 11 9 -1 11 10 11 3 9 hhcurveto
          48 3 43 -2 26 7 rrcurveto
          1 7 4 callgsubr
          hvcurveto
          12 5 8 1 8 5 9 4 42 18 11 14 rrcurveto
          1 1 0 1 vhcurveto
          69 callsubr
          8 23 35 5 6 hvcurveto
          6 5 9 -3 4 13 rrcurveto
          4 2 -3 -88 callgsubr
          21 34 15 63 49 vvcurveto
          -166 32 42 callsubr
          -5 -2 -7 -2 -3 hvcurveto
          -3 43 callsubr
          -2 -2 -4 -2 hhcurveto
          80 callsubr
          -10 -10 0 1 -10 hvcurveto
          -81 callsubr
          3 1 2 4 35 -1 46 4 40 2 23 5 23 4 22 rrcurveto
          8 1 -2 4 8 hhcurveto
          15 9 -2 -6 13 hvcurveto
          30 -8 10 -8 36 -20 5 -3 17 -8 4 -4 5 -6 11 -23 5 -11 6 -10 3 -10 6 -13 4 -8 5 -8 6 -16 6 -17 3 -24 5 -22 rrcurveto
          2 -9 2 -20 -21 -6 10 callsubr
          vvcurveto
          -1 -20 1 -27 -4 -7 -19 -22 -31 -8 -30 -14 -7 -4 -5 -4 -17 -3 -16 -4 -29 -1 -20 15 callsubr
          -19 -40 -10 -24 hhcurveto
          -5 -7 4 2 -63 callgsubr
          2 2 hvcurveto
          19 21 -2 47 5 41 2 15 3 16 2 15 rrcurveto
          -1 12 13 -1 13 hhcurveto
          17 5 0 12 10 -22 callgsubr
          endchar
        </CharString>
        <CharString name="E">
          95 422 125 rmoveto
          70 callsubr
          -6 hvcurveto
          -25 -26 -6 -6 -4 -8 -5 -4 rlinecurve
          -63 callsubr
          2 -24 callgsubr
          -3 -8 -12 -3 -3 rrcurveto
          -5 -12 -14 0 -14 -29 -22 3 -7 -4 0 -2 -4 -4 -4 63 callgsubr
          -11 -8 0 hvcurveto
          -4 -16 -7 -3 -8 -2 -7 callgsubr
          hhcurveto
          17 32 -31 callgsubr
          38 5 48 3 18 2 21 59 callgsubr
          17 7 3 -1 4 5 vvcurveto
          15 3 13 16 vhcurveto
          12 19 -6 14 hhcurveto
          -1 12 15 -1 12 hhcurveto
          29 -1 13 18 24 hvcurveto
          5 -73 callsubr
          1 77 callgsubr
          3 8 -2 3 3 2 2 0 7 -36 callgsubr
          5 6 8 7 7 vvcurveto
          2 0 2 -2 -93 callsubr
          -2 -4 -7 1 -7 -13 -10 -4 -9 hhcurveto
          -20 -50 4 6 hvcurveto
          5 5 6 1 8 -4 7 34 callsubr
          6 vvcurveto
          7 vlineto
          1 23 6 21 9 vvcurveto
          6 vlineto
          73 5 15 7 42 22 24 -3 13 28 callsubr
          9 0 20 5 3 vhcurveto
          2 -46 callsubr
          4 3 5 2 7 2 -87 callsubr
          -5 7 -13 vhcurveto
          -14 -4 -9 -12 -5 -62 callgsubr
          -10 4 -47 callsubr
          4 3 -9 -22 -14 -8 -20 -7 -7 1 -6 16 callsubr
          -6 -2 -15 hvcurveto
          -25 -2 -25 0 -24 -2 -23 -2 -36 6 -6 -21 rrcurveto
          -7 4 6 -1 8 7 8 1 8 hhcurveto
          8 11 -2 -13 -9 -4 -14 -1 -14 hvcurveto
          -2 -17 1 -32 -3 -20 rrcurveto
          -1 -11 -8 -11 -22 vvcurveto
          -45 -5 2 -11 -4 vhcurveto
          -1 -3 0 -7 -2 -2 -69 callsubr
          hhcurveto
          61 callsubr
          -3 hvcurveto
          -14 -12 -27 -9 -16 vvcurveto
          -3 0 -4 5 vhcurveto
          14 23 25 14 hhcurveto
          3 4 -1 -4 -9 -3 -38 -1 -6 hvcurveto
          -2 -15 -7 -14 -2 -14 -4 -35 7 -62 -14 -13 rrcurveto
          0 0 8 callsubr
          -2 -1 vvcurveto
          -4 -6 -3 99 callsubr
          0 -3 -3 vvcurveto
          -5 vlineto
          -17 -39 8 40 callgsubr
          1 5 21 16 11 2 25 vhcurveto
          13 14 -4 17 8 10 4 12 13 78 callsubr
          50 -9 2 30 -96 callgsubr
          endchar
        </CharString>
        <CharString name="Eacute">
          95 422 125 rmoveto
          70 callsubr
          -6 hvcurveto
          -25 -26 -6 -6 -4 -8 -5 -4 rlinecurve
          -63 callsubr
          2 -24 callgsubr
          -3 -8 -12 -3 -3 rrcurveto
          -5 -12 -14 0 -14 -29 -22 3 -7 -4 0 -2 -4 -4 -4 63 callgsubr
          -11 -8 0 hvcurveto
          -4 -16 -7 -3 -8 -2 -7 callgsubr
          hhcurveto
          17 32 -31 callgsubr
          38 5 48 3 18 2 21 59 callgsubr
          17 7 3 -1 4 5 vvcurveto
          15 3 13 16 vhcurveto
          12 19 -6 14 hhcurveto
          -1 12 15 -1 12 hhcurveto
          29 -1 13 18 24 hvcurveto
          5 -73 callsubr
          1 77 callgsubr
          3 8 -2 3 3 2 2 0 7 -36 callgsubr
          5 6 8 7 7 vvcurveto
          2 0 2 -2 -93 callsubr
          -2 -4 -7 1 -7 -13 -10 -4 -9 hhcurveto
          -20 -50 4 6 hvcurveto
          5 5 6 1 8 -4 7 34 callsubr
          6 vvcurveto
          7 vlineto
          1 23 6 21 9 vvcurveto
          6 vlineto
          73 5 15 7 42 22 24 -3 13 28 callsubr
          9 0 20 5 3 vhcurveto
          2 -46 callsubr
          4 3 5 2 7 2 -87 callsubr
          -5 7 -13 vhcurveto
          -14 -4 -9 -12 -5 -62 callgsubr
          -10 4 -47 callsubr
          4 3 -9 -22 -14 -8 -20 -7 -7 1 -6 16 callsubr
          -6 -2 -15 hvcurveto
          -25 -2 -25 0 -24 -2 -23 -2 -36 6 -6 -21 rrcurveto
          -7 4 6 -1 8 7 8 1 8 hhcurveto
          8 11 -2 -13 -9 -4 -14 -1 -14 hvcurveto
          -2 -17 1 -32 -3 -20 rrcurveto
          -1 -11 -8 -11 -22 vvcurveto
          -45 -5 2 -11 -4 vhcurveto
          -1 -3 0 -7 -2 -2 -69 callsubr
          hhcurveto
          61 callsubr
          -3 hvcurveto
          -14 -12 -27 -9 -16 vvcurveto
          -3 0 -4 5 vhcurveto
          14 23 25 14 hhcurveto
          3 4 -1 -4 -9 -3 -38 -1 -6 hvcurveto
          -2 -15 -7 -14 -2 -14 -4 -35 7 -62 -14 -13 rrcurveto
          0 0 8 callsubr
          -2 -1 vvcurveto
          -4 -6 -3 99 callsubr
          0 -3 -3 vvcurveto
          -5 vlineto
          -17 -39 8 40 callgsubr
          1 5 21 16 11 2 25 vhcurveto
          13 14 -4 17 8 10 4 12 13 78 callsubr
          50 -9 2 30 -96 callgsubr
          -13 533 -106 callgsubr
          endchar
        </CharString>
        <CharString name="Ebreve">
          95 422 125 rmoveto
          70 callsubr
          -6 hvcurveto
          -25 -26 -6 -6 -4 -8 -5 -4 rlinecurve
          -63 callsubr
          2 -24 callgsubr
          -3 -8 -12 -3 -3 rrcurveto
          -5 -12 -14 0 -14 -29 -22 3 -7 -4 0 -2 -4 -4 -4 63 callgsubr
          -11 -8 0 hvcurveto
          -4 -16 -7 -3 -8 -2 -7 callgsubr
          hhcurveto
          17 32 -31 callgsubr
          38 5 48 3 18 2 21 59 callgsubr
          17 7 3 -1 4 5 vvcurveto
          15 3 13 16 vhcurveto
          12 19 -6 14 hhcurveto
          -1 12 15 -1 12 hhcurveto
          29 -1 13 18 24 hvcurveto
          5 -73 callsubr
          1 77 callgsubr
          3 8 -2 3 3 2 2 0 7 -36 callgsubr
          5 6 8 7 7 vvcurveto
          2 0 2 -2 -93 callsubr
          -2 -4 -7 1 -7 -13 -10 -4 -9 hhcurveto
          -20 -50 4 6 hvcurveto
          5 5 6 1 8 -4 7 34 callsubr
          6 vvcurveto
          7 vlineto
          1 23 6 21 9 vvcurveto
          6 vlineto
          73 5 15 7 42 22 24 -3 13 28 callsubr
          9 0 20 5 3 vhcurveto
          2 -46 callsubr
          4 3 5 2 7 2 -87 callsubr
          -5 7 -13 vhcurveto
          -14 -4 -9 -12 -5 -62 callgsubr
          -10 4 -47 callsubr
          4 3 -9 -22 -14 -8 -20 -7 -7 1 -6 16 callsubr
          -6 -2 -15 hvcurveto
          -25 -2 -25 0 -24 -2 -23 -2 -36 6 -6 -21 rrcurveto
          -7 4 6 -1 8 7 8 1 8 hhcurveto
          8 11 -2 -13 -9 -4 -14 -1 -14 hvcurveto
          -2 -17 1 -32 -3 -20 rrcurveto
          -1 -11 -8 -11 -22 vvcurveto
          -45 -5 2 -11 -4 vhcurveto
          -1 -3 0 -7 -2 -2 -69 callsubr
          hhcurveto
          61 callsubr
          -3 hvcurveto
          -14 -12 -27 -9 -16 vvcurveto
          -3 0 -4 5 vhcurveto
          14 23 25 14 hhcurveto
          3 4 -1 -4 -9 -3 -38 -1 -6 hvcurveto
          -2 -15 -7 -14 -2 -14 -4 -35 7 -62 -14 -13 rrcurveto
          0 0 8 callsubr
          -2 -1 vvcurveto
          -4 -6 -3 99 callsubr
          0 -3 -3 vvcurveto
          -5 vlineto
          -17 -39 8 40 callgsubr
          1 5 21 16 11 2 25 vhcurveto
          13 14 -4 17 8 10 4 12 13 78 callsubr
          50 -9 2 30 -96 callgsubr
          -31 546 rmoveto
          -3 -1 2 -3 hhcurveto
          -5 -11 -23 12 callsubr
          -75 callsubr
          -1 -83 callgsubr
          -2 -7 -3 -2 -1 vhcurveto
          14 callsubr
          -2 rrcurveto
          -7 -10 -38 callsubr
          -3 -4 1 -5 49 callsubr
          hhcurveto
          -6 1 5 1 -1 callgsubr
          2 -3 -1 -4 2 rrcurveto
          11 -16 -12 33 -6 hhcurveto
          -7 -10 -7 -5 -7 hvcurveto
          -13 -8 -7 -5 -8 vvcurveto
          -5 6 -12 5 -3 vhcurveto
          2 -2 -1 -1 2 -3 4 -6 0 callsubr
          -3 7 -5 7 -11 4 5 callgsubr
          11 20 -3 8 hhcurveto
          9 21 -12 callsubr
          hvcurveto
          3 2 1 5 7 6 callgsubr
          9 20 callgsubr
          1 1 0 5 callsubr
          rrcurveto
          5 7 6 3 2 vvcurveto
          3 -34 callgsubr
          -34 callsubr
          1 4 3 -36 callgsubr
          -31 callgsubr
          9 9 -56 callgsubr
        </CharString>
        <CharString name="Ecaron">
          95 422 125 rmoveto
          70 callsubr
          -6 hvcurveto
          -25 -26 -6 -6 -4 -8 -5 -4 rlinecurve
          -63 callsubr
          2 -24 callgsubr
          -3 -8 -12 -3 -3 rrcurveto
          -5 -12 -14 0 -14 -29 -22 3 -7 -4 0 -2 -4 -4 -4 63 callgsubr
          -11 -8 0 hvcurveto
          -4 -16 -7 -3 -8 -2 -7 callgsubr
          hhcurveto
          17 32 -31 callgsubr
          38 5 48 3 18 2 21 59 callgsubr
          17 7 3 -1 4 5 vvcurveto
          15 3 13 16 vhcurveto
          12 19 -6 14 hhcurveto
          -1 12 15 -1 12 hhcurveto
          29 -1 13 18 24 hvcurveto
          5 -73 callsubr
          1 77 callgsubr
          3 8 -2 3 3 2 2 0 7 -36 callgsubr
          5 6 8 7 7 vvcurveto
          2 0 2 -2 -93 callsubr
          -2 -4 -7 1 -7 -13 -10 -4 -9 hhcurveto
          -20 -50 4 6 hvcurveto
          5 5 6 1 8 -4 7 34 callsubr
          6 vvcurveto
          7 vlineto
          1 23 6 21 9 vvcurveto
          6 vlineto
          73 5 15 7 42 22 24 -3 13 28 callsubr
          9 0 20 5 3 vhcurveto
          2 -46 callsubr
          4 3 5 2 7 2 -87 callsubr
          -5 7 -13 vhcurveto
          -14 -4 -9 -12 -5 -62 callgsubr
          -10 4 -47 callsubr
          4 3 -9 -22 -14 -8 -20 -7 -7 1 -6 16 callsubr
          -6 -2 -15 hvcurveto
          -25 -2 -25 0 -24 -2 -23 -2 -36 6 -6 -21 rrcurveto
          -7 4 6 -1 8 7 8 1 8 hhcurveto
          8 11 -2 -13 -9 -4 -14 -1 -14 hvcurveto
          -2 -17 1 -32 -3 -20 rrcurveto
          -1 -11 -8 -11 -22 vvcurveto
          -45 -5 2 -11 -4 vhcurveto
          -1 -3 0 -7 -2 -2 -69 callsubr
          hhcurveto
          61 callsubr
          -3 hvcurveto
          -14 -12 -27 -9 -16 vvcurveto
          -3 0 -4 5 vhcurveto
          14 23 25 14 hhcurveto
          3 4 -1 -4 -9 -3 -38 -1 -6 hvcurveto
          -2 -15 -7 -14 -2 -14 -4 -35 7 -62 -14 -13 rrcurveto
          0 0 8 callsubr
          -2 -1 vvcurveto
          -4 -6 -3 99 callsubr
          0 -3 -3 vvcurveto
          -5 vlineto
          -17 -39 8 40 callgsubr
          1 5 21 16 11 2 25 vhcurveto
          13 14 -4 17 8 10 4 12 13 78 callsubr
          50 -9 2 30 -96 callgsubr
          -21 553 -104 callsubr
        </CharString>
        <CharString name="Ecircumflex">
          95 422 125 rmoveto
          70 callsubr
          -6 hvcurveto
          -25 -26 -6 -6 -4 -8 -5 -4 rlinecurve
          -63 callsubr
          2 -24 callgsubr
          -3 -8 -12 -3 -3 rrcurveto
          -5 -12 -14 0 -14 -29 -22 3 -7 -4 0 -2 -4 -4 -4 63 callgsubr
          -11 -8 0 hvcurveto
          -4 -16 -7 -3 -8 -2 -7 callgsubr
          hhcurveto
          17 32 -31 callgsubr
          38 5 48 3 18 2 21 59 callgsubr
          17 7 3 -1 4 5 vvcurveto
          15 3 13 16 vhcurveto
          12 19 -6 14 hhcurveto
          -1 12 15 -1 12 hhcurveto
          29 -1 13 18 24 hvcurveto
          5 -73 callsubr
          1 77 callgsubr
          3 8 -2 3 3 2 2 0 7 -36 callgsubr
          5 6 8 7 7 vvcurveto
          2 0 2 -2 -93 callsubr
          -2 -4 -7 1 -7 -13 -10 -4 -9 hhcurveto
          -20 -50 4 6 hvcurveto
          5 5 6 1 8 -4 7 34 callsubr
          6 vvcurveto
          7 vlineto
          1 23 6 21 9 vvcurveto
          6 vlineto
          73 5 15 7 42 22 24 -3 13 28 callsubr
          9 0 20 5 3 vhcurveto
          2 -46 callsubr
          4 3 5 2 7 2 -87 callsubr
          -5 7 -13 vhcurveto
          -14 -4 -9 -12 -5 -62 callgsubr
          -10 4 -47 callsubr
          4 3 -9 -22 -14 -8 -20 -7 -7 1 -6 16 callsubr
          -6 -2 -15 hvcurveto
          -25 -2 -25 0 -24 -2 -23 -2 -36 6 -6 -21 rrcurveto
          -7 4 6 -1 8 7 8 1 8 hhcurveto
          8 11 -2 -13 -9 -4 -14 -1 -14 hvcurveto
          -2 -17 1 -32 -3 -20 rrcurveto
          -1 -11 -8 -11 -22 vvcurveto
          -45 -5 2 -11 -4 vhcurveto
          -1 -3 0 -7 -2 -2 -69 callsubr
          hhcurveto
          61 callsubr
          -3 hvcurveto
          -14 -12 -27 -9 -16 vvcurveto
          -3 0 -4 5 vhcurveto
          14 23 25 14 hhcurveto
          3 4 -1 -4 -9 -3 -38 -1 -6 hvcurveto
          -2 -15 -7 -14 -2 -14 -4 -35 7 -62 -14 -13 rrcurveto
          0 0 8 callsubr
          -2 -1 vvcurveto
          -4 -6 -3 99 callsubr
          0 -3 -3 vvcurveto
          -5 vlineto
          -17 -39 8 40 callgsubr
          1 5 21 16 11 2 25 vhcurveto
          13 14 -4 17 8 10 4 12 13 78 callsubr
          50 -9 2 30 -96 callgsubr
          -28 473 -105 callsubr
        </CharString>
        <CharString name="Edieresis">
          95 422 125 rmoveto
          70 callsubr
          -6 hvcurveto
          -25 -26 -6 -6 -4 -8 -5 -4 rlinecurve
          -63 callsubr
          2 -24 callgsubr
          -3 -8 -12 -3 -3 rrcurveto
          -5 -12 -14 0 -14 -29 -22 3 -7 -4 0 -2 -4 -4 -4 63 callgsubr
          -11 -8 0 hvcurveto
          -4 -16 -7 -3 -8 -2 -7 callgsubr
          hhcurveto
          17 32 -31 callgsubr
          38 5 48 3 18 2 21 59 callgsubr
          17 7 3 -1 4 5 vvcurveto
          15 3 13 16 vhcurveto
          12 19 -6 14 hhcurveto
          -1 12 15 -1 12 hhcurveto
          29 -1 13 18 24 hvcurveto
          5 -73 callsubr
          1 77 callgsubr
          3 8 -2 3 3 2 2 0 7 -36 callgsubr
          5 6 8 7 7 vvcurveto
          2 0 2 -2 -93 callsubr
          -2 -4 -7 1 -7 -13 -10 -4 -9 hhcurveto
          -20 -50 4 6 hvcurveto
          5 5 6 1 8 -4 7 34 callsubr
          6 vvcurveto
          7 vlineto
          1 23 6 21 9 vvcurveto
          6 vlineto
          73 5 15 7 42 22 24 -3 13 28 callsubr
          9 0 20 5 3 vhcurveto
          2 -46 callsubr
          4 3 5 2 7 2 -87 callsubr
          -5 7 -13 vhcurveto
          -14 -4 -9 -12 -5 -62 callgsubr
          -10 4 -47 callsubr
          4 3 -9 -22 -14 -8 -20 -7 -7 1 -6 16 callsubr
          -6 -2 -15 hvcurveto
          -25 -2 -25 0 -24 -2 -23 -2 -36 6 -6 -21 rrcurveto
          -7 4 6 -1 8 7 8 1 8 hhcurveto
          8 11 -2 -13 -9 -4 -14 -1 -14 hvcurveto
          -2 -17 1 -32 -3 -20 rrcurveto
          -1 -11 -8 -11 -22 vvcurveto
          -45 -5 2 -11 -4 vhcurveto
          -1 -3 0 -7 -2 -2 -69 callsubr
          hhcurveto
          61 callsubr
          -3 hvcurveto
          -14 -12 -27 -9 -16 vvcurveto
          -3 0 -4 5 vhcurveto
          14 23 25 14 hhcurveto
          3 4 -1 -4 -9 -3 -38 -1 -6 hvcurveto
          -2 -15 -7 -14 -2 -14 -4 -35 7 -62 -14 -13 rrcurveto
          0 0 8 callsubr
          -2 -1 vvcurveto
          -4 -6 -3 99 callsubr
          0 -3 -3 vvcurveto
          -5 vlineto
          -17 -39 8 40 callgsubr
          1 5 21 16 11 2 25 vhcurveto
          13 14 -4 17 8 10 4 12 13 78 callsubr
          50 -9 2 30 -96 callgsubr
          -111 524 rmoveto
          80 callgsubr
          9 -11 5 -80 callgsubr
          3 -4 -1 4 -7 hhcurveto
          -7 -6 -4 0 hvcurveto
          -6 -1 -12 1 -8 -7 -3 -3 -58 callsubr
          -6 rrcurveto
          -3 -4 0 -70 callgsubr
          10 callsubr
          -20 -12 -5 -10 vvcurveto
          -1 0 -1 0 vhcurveto
          4 7 -14 9 hhcurveto
          18 13 36 7 8 hvcurveto
          3 3 -2 1 -88 callsubr
          4 6 4 -88 callsubr
          5 -2 5 -69 callgsubr
          -49 callsubr
          -88 callgsubr
          105 hmoveto
          -37 callgsubr
          -86 callsubr
          9 -11 5 -80 callgsubr
          3 -5 0 4 -7 hhcurveto
          -8 -6 -4 0 hvcurveto
          -6 -1 -11 1 -8 -7 -4 -3 -58 callsubr
          -6 rrcurveto
          -2 -4 -1 -70 callgsubr
          1 -6 -7 -20 -13 -5 -10 vvcurveto
          -26 callgsubr
          0 vhcurveto
          4 7 -14 8 hhcurveto
          18 14 36 7 7 hvcurveto
          3 3 -2 1 -88 callsubr
          4 7 3 callsubr
          2 -66 callgsubr
          -69 callgsubr
          1 -43 callsubr
          endchar
        </CharString>
        <CharString name="Edotaccent">
          95 422 125 rmoveto
          70 callsubr
          -6 hvcurveto
          -25 -26 -6 -6 -4 -8 -5 -4 rlinecurve
          -63 callsubr
          2 -24 callgsubr
          -3 -8 -12 -3 -3 rrcurveto
          -5 -12 -14 0 -14 -29 -22 3 -7 -4 0 -2 -4 -4 -4 63 callgsubr
          -11 -8 0 hvcurveto
          -4 -16 -7 -3 -8 -2 -7 callgsubr
          hhcurveto
          17 32 -31 callgsubr
          38 5 48 3 18 2 21 59 callgsubr
          17 7 3 -1 4 5 vvcurveto
          15 3 13 16 vhcurveto
          12 19 -6 14 hhcurveto
          -1 12 15 -1 12 hhcurveto
          29 -1 13 18 24 hvcurveto
          5 -73 callsubr
          1 77 callgsubr
          3 8 -2 3 3 2 2 0 7 -36 callgsubr
          5 6 8 7 7 vvcurveto
          2 0 2 -2 -93 callsubr
          -2 -4 -7 1 -7 -13 -10 -4 -9 hhcurveto
          -20 -50 4 6 hvcurveto
          5 5 6 1 8 -4 7 34 callsubr
          6 vvcurveto
          7 vlineto
          1 23 6 21 9 vvcurveto
          6 vlineto
          73 5 15 7 42 22 24 -3 13 28 callsubr
          9 0 20 5 3 vhcurveto
          2 -46 callsubr
          4 3 5 2 7 2 -87 callsubr
          -5 7 -13 vhcurveto
          -14 -4 -9 -12 -5 -62 callgsubr
          -10 4 -47 callsubr
          4 3 -9 -22 -14 -8 -20 -7 -7 1 -6 16 callsubr
          -6 -2 -15 hvcurveto
          -25 -2 -25 0 -24 -2 -23 -2 -36 6 -6 -21 rrcurveto
          -7 4 6 -1 8 7 8 1 8 hhcurveto
          8 11 -2 -13 -9 -4 -14 -1 -14 hvcurveto
          -2 -17 1 -32 -3 -20 rrcurveto
          -1 -11 -8 -11 -22 vvcurveto
          -45 -5 2 -11 -4 vhcurveto
          -1 -3 0 -7 -2 -2 -69 callsubr
          hhcurveto
          61 callsubr
          -3 hvcurveto
          -14 -12 -27 -9 -16 vvcurveto
          -3 0 -4 5 vhcurveto
          14 23 25 14 hhcurveto
          3 4 -1 -4 -9 -3 -38 -1 -6 hvcurveto
          -2 -15 -7 -14 -2 -14 -4 -35 7 -62 -14 -13 rrcurveto
          0 0 8 callsubr
          -2 -1 vvcurveto
          -4 -6 -3 99 callsubr
          0 -3 -3 vvcurveto
          -5 vlineto
          -17 -39 8 40 callgsubr
          1 5 21 16 11 2 25 vhcurveto
          13 14 -4 17 8 10 4 12 13 78 callsubr
          50 -9 2 30 -96 callgsubr
          -67 520 rmoveto
          80 callgsubr
          9 -11 5 -80 callgsubr
          3 -4 -1 4 -7 hhcurveto
          -7 -6 -4 0 hvcurveto
          -6 -1 -12 1 -8 -7 -3 -3 -58 callsubr
          -6 rrcurveto
          -3 -4 0 -70 callgsubr
          10 callsubr
          -20 -12 -5 -10 vvcurveto
          -1 0 -1 0 vhcurveto
          4 7 -14 9 hhcurveto
          18 13 36 7 8 hvcurveto
          3 3 -2 1 -88 callsubr
          4 6 4 -88 callsubr
          5 -2 5 -69 callgsubr
          -49 callsubr
          -88 callgsubr
          endchar
        </CharString>
        <CharString name="Egrave">
          95 422 125 rmoveto
          70 callsubr
          -6 hvcurveto
          -25 -26 -6 -6 -4 -8 -5 -4 rlinecurve
          -63 callsubr
          2 -24 callgsubr
          -3 -8 -12 -3 -3 rrcurveto
          -5 -12 -14 0 -14 -29 -22 3 -7 -4 0 -2 -4 -4 -4 63 callgsubr
          -11 -8 0 hvcurveto
          -4 -16 -7 -3 -8 -2 -7 callgsubr
          hhcurveto
          17 32 -31 callgsubr
          38 5 48 3 18 2 21 59 callgsubr
          17 7 3 -1 4 5 vvcurveto
          15 3 13 16 vhcurveto
          12 19 -6 14 hhcurveto
          -1 12 15 -1 12 hhcurveto
          29 -1 13 18 24 hvcurveto
          5 -73 callsubr
          1 77 callgsubr
          3 8 -2 3 3 2 2 0 7 -36 callgsubr
          5 6 8 7 7 vvcurveto
          2 0 2 -2 -93 callsubr
          -2 -4 -7 1 -7 -13 -10 -4 -9 hhcurveto
          -20 -50 4 6 hvcurveto
          5 5 6 1 8 -4 7 34 callsubr
          6 vvcurveto
          7 vlineto
          1 23 6 21 9 vvcurveto
          6 vlineto
          73 5 15 7 42 22 24 -3 13 28 callsubr
          9 0 20 5 3 vhcurveto
          2 -46 callsubr
          4 3 5 2 7 2 -87 callsubr
          -5 7 -13 vhcurveto
          -14 -4 -9 -12 -5 -62 callgsubr
          -10 4 -47 callsubr
          4 3 -9 -22 -14 -8 -20 -7 -7 1 -6 16 callsubr
          -6 -2 -15 hvcurveto
          -25 -2 -25 0 -24 -2 -23 -2 -36 6 -6 -21 rrcurveto
          -7 4 6 -1 8 7 8 1 8 hhcurveto
          8 11 -2 -13 -9 -4 -14 -1 -14 hvcurveto
          -2 -17 1 -32 -3 -20 rrcurveto
          -1 -11 -8 -11 -22 vvcurveto
          -45 -5 2 -11 -4 vhcurveto
          -1 -3 0 -7 -2 -2 -69 callsubr
          hhcurveto
          61 callsubr
          -3 hvcurveto
          -14 -12 -27 -9 -16 vvcurveto
          -3 0 -4 5 vhcurveto
          14 23 25 14 hhcurveto
          3 4 -1 -4 -9 -3 -38 -1 -6 hvcurveto
          -2 -15 -7 -14 -2 -14 -4 -35 7 -62 -14 -13 rrcurveto
          0 0 8 callsubr
          -2 -1 vvcurveto
          -4 -6 -3 99 callsubr
          0 -3 -3 vvcurveto
          -5 vlineto
          -17 -39 8 40 callgsubr
          1 5 21 16 11 2 25 vhcurveto
          13 14 -4 17 8 10 4 12 13 78 callsubr
          50 -9 2 30 -96 callgsubr
          -100 477 rmoveto
          -103 callsubr
        </CharString>
        <CharString name="Emacron">
          95 422 125 rmoveto
          70 callsubr
          -6 hvcurveto
          -25 -26 -6 -6 -4 -8 -5 -4 rlinecurve
          -63 callsubr
          2 -24 callgsubr
          -3 -8 -12 -3 -3 rrcurveto
          -5 -12 -14 0 -14 -29 -22 3 -7 -4 0 -2 -4 -4 -4 63 callgsubr
          -11 -8 0 hvcurveto
          -4 -16 -7 -3 -8 -2 -7 callgsubr
          hhcurveto
          17 32 -31 callgsubr
          38 5 48 3 18 2 21 59 callgsubr
          17 7 3 -1 4 5 vvcurveto
          15 3 13 16 vhcurveto
          12 19 -6 14 hhcurveto
          -1 12 15 -1 12 hhcurveto
          29 -1 13 18 24 hvcurveto
          5 -73 callsubr
          1 77 callgsubr
          3 8 -2 3 3 2 2 0 7 -36 callgsubr
          5 6 8 7 7 vvcurveto
          2 0 2 -2 -93 callsubr
          -2 -4 -7 1 -7 -13 -10 -4 -9 hhcurveto
          -20 -50 4 6 hvcurveto
          5 5 6 1 8 -4 7 34 callsubr
          6 vvcurveto
          7 vlineto
          1 23 6 21 9 vvcurveto
          6 vlineto
          73 5 15 7 42 22 24 -3 13 28 callsubr
          9 0 20 5 3 vhcurveto
          2 -46 callsubr
          4 3 5 2 7 2 -87 callsubr
          -5 7 -13 vhcurveto
          -14 -4 -9 -12 -5 -62 callgsubr
          -10 4 -47 callsubr
          4 3 -9 -22 -14 -8 -20 -7 -7 1 -6 16 callsubr
          -6 -2 -15 hvcurveto
          -25 -2 -25 0 -24 -2 -23 -2 -36 6 -6 -21 rrcurveto
          -7 4 6 -1 8 7 8 1 8 hhcurveto
          8 11 -2 -13 -9 -4 -14 -1 -14 hvcurveto
          -2 -17 1 -32 -3 -20 rrcurveto
          -1 -11 -8 -11 -22 vvcurveto
          -45 -5 2 -11 -4 vhcurveto
          -1 -3 0 -7 -2 -2 -69 callsubr
          hhcurveto
          61 callsubr
          -3 hvcurveto
          -14 -12 -27 -9 -16 vvcurveto
          -3 0 -4 5 vhcurveto
          14 23 25 14 hhcurveto
          3 4 -1 -4 -9 -3 -38 -1 -6 hvcurveto
          -2 -15 -7 -14 -2 -14 -4 -35 7 -62 -14 -13 rrcurveto
          0 0 8 callsubr
          -2 -1 vvcurveto
          -4 -6 -3 99 callsubr
          0 -3 -3 vvcurveto
          -5 vlineto
          -17 -39 8 40 callgsubr
          1 5 21 16 11 2 25 vhcurveto
          13 14 -4 17 8 10 4 12 13 78 callsubr
          50 -9 2 30 -96 callgsubr
          21 527 -102 callgsubr
        </CharString>
        <CharString name="Eng">
          -107 callsubr
          6 -10 rcurveline
          -2 -13 0 -13 -3 -8 -5 -12 -2 -22 -4 -6 7 callsubr
          -7 -3 -4 -2 -89 callgsubr
          -4 -6 -2 -1 -4 vhcurveto
          -3 -6 -1 -6 -3 -6 -2 -1 -4 -1 -2 -2 -2 61 callsubr
          -4 -7 -9 -11 -8 -7 -8 -10 -11 -7 -8 -9 -7 -8 -6 -9 -3 50 callgsubr
          -4 -13 0 -13 vvcurveto
          -3 -1 -2 5 21 20 15 7 10 vhcurveto
          4 2 4 -1 3 3 3 2 1 2 3 2 43 34 28 32 28 37 3 3 1 7 3 -9 callgsubr
          4 -91 callgsubr
          4 7 2 9 3 8 8 10 3 3 1 3 rrcurveto
          -48 callgsubr
          10 1 9 3 12 2 11 2 11 2 11 0 11 4 8 -99 callgsubr
          endchar
        </CharString>
        <CharString name="Eogonek">
          95 398 -122 rmoveto
          -14 -9 16 5 -8 hvcurveto
          -6 3 -6 0 -3 3 rrcurveto
          -4 3 -16 17 3 vvcurveto
          -2 -1 -12 109 callsubr
          5 14 3 10 vhcurveto
          15 2 10 6 1 13 -96 callgsubr
          -5 hlineto
          70 callsubr
          -6 hvcurveto
          -25 -26 -6 -6 -4 -8 -5 -4 rlinecurve
          -63 callsubr
          2 -24 callgsubr
          -3 -8 -12 -3 -3 rrcurveto
          -5 -12 -14 0 -14 -29 -22 3 -7 -4 0 -2 -4 -4 -4 63 callgsubr
          -11 -8 0 hvcurveto
          -4 -16 -7 -3 -8 -2 -7 callgsubr
          hhcurveto
          17 32 -31 callgsubr
          38 5 48 3 18 2 21 59 callgsubr
          17 7 3 -1 4 5 vvcurveto
          15 3 13 16 vhcurveto
          12 19 -6 14 hhcurveto
          -1 12 15 -1 12 hhcurveto
          29 -1 13 18 24 hvcurveto
          5 -73 callsubr
          1 77 callgsubr
          3 8 -2 3 3 2 2 0 7 -36 callgsubr
          5 6 8 7 7 vvcurveto
          2 0 2 -2 -93 callsubr
          -2 -4 -7 1 -7 -13 -10 -4 -9 hhcurveto
          -20 -50 4 6 hvcurveto
          5 5 6 1 8 -4 7 34 callsubr
          6 vvcurveto
          7 vlineto
          1 23 6 21 9 vvcurveto
          6 vlineto
          73 5 15 7 42 22 24 -3 13 28 callsubr
          9 0 20 5 3 vhcurveto
          2 -46 callsubr
          4 3 5 2 7 2 -87 callsubr
          -5 7 -13 vhcurveto
          -14 -4 -9 -12 -5 -62 callgsubr
          -10 4 -47 callsubr
          4 3 -9 -22 -14 -8 -20 -7 -7 1 -6 16 callsubr
          -6 -2 -15 hvcurveto
          -25 -2 -25 0 -24 -2 -23 -2 -36 6 -6 -21 rrcurveto
          -7 4 6 -1 8 7 8 1 8 hhcurveto
          8 11 -2 -13 -9 -4 -14 -1 -14 hvcurveto
          -2 -17 1 -32 -3 -20 rrcurveto
          -1 -11 -8 -11 -22 vvcurveto
          -45 -5 2 -11 -4 vhcurveto
          -1 -3 0 -7 -2 -2 -69 callsubr
          hhcurveto
          61 callsubr
          -3 hvcurveto
          -14 -12 -27 -9 -16 vvcurveto
          -3 0 -4 5 vhcurveto
          14 23 25 14 hhcurveto
          3 4 -1 -4 -9 -3 -38 -1 -6 hvcurveto
          -2 -15 -7 -14 -2 -14 -4 -35 7 -62 -14 -13 rrcurveto
          0 0 8 callsubr
          -2 -1 vvcurveto
          -4 -6 -3 99 callsubr
          0 -3 -3 vvcurveto
          -5 vlineto
          -17 -39 8 40 callgsubr
          1 5 21 16 11 2 25 vhcurveto
          13 14 -4 17 8 10 4 12 13 15 -1 13 hhcurveto
          6 5 0 1 5 hvcurveto
          17 2 18 -1 17 1 -5 -8 -4 -7 -4 -3 rrcurveto
          0 0 -1 0 vhcurveto
          -7 callgsubr
          -1 vvcurveto
          -1 vlineto
          -4 -10 -8 -4 0 vvcurveto
          -3 -8 2 -5 -1 -8 rrcurveto
          -1 -4 -2 -1 -5 vvcurveto
          -9 8 -55 callsubr
          2 -2 4 1 3 -1 2 -2 1 -5 3 -2 rrcurveto
          8 -8 21 -13 -4 -7 callgsubr
          -1 vvcurveto
          -1 -10 callgsubr
          vhcurveto
          2 1 1 1 5 0 30 callgsubr
          6 hvcurveto
          6 34 callgsubr
          endchar
        </CharString>
        <CharString name="Eth">
          175 503 256 rmoveto
          25 -9 52 -13 11 vhcurveto
          0 vlineto
          2 1 2 2 4 -8 8 -37 callgsubr
          -86 callsubr
          8 -13 13 -2 5 vhcurveto
          -4 8 0 8 -3 6 -9 14 -14 11 -7 11 -3 5 1 8 -5 6 -3 3 -8 2 -7 5 -6 5 -3 6 -6 4 -10 8 -14 6 -8 4 rrcurveto
          1 -2 0 6 -2 hhcurveto
          -8 4 -25 10 -3 1 rrcurveto
          -3 hlineto
          -2 -89 callsubr
          hhcurveto
          -4 -3 6 1 -3 hvcurveto
          6 -17 -4 -1 -4 -3 -2 -1 -2 hhcurveto
          -9 -2 7 10 hvcurveto
          17 7 22 9 vvcurveto
          1 -7 3 -2 -4 -8 -19 -3 -1 vhcurveto
          -11 callsubr
          -2 -2 -2 -83 callgsubr
          -4 -14 -3 -5 -5 vhcurveto
          -90 callsubr
          -8 -9 -43 5 -8 -3 -16 -7 -13 -21 -11 -9 -17 -15 -24 -11 -3 -21 rrcurveto
          -1 3 2 0 2 12 5 16 21 4 4 -1 3 12 13 4 11 hhcurveto
          9 10 -3 -10 hvcurveto
          -13 -9 -26 -8 -62 callgsubr
          -5 vvcurveto
          -9 -6 -9 -2 -9 vhcurveto
          -5 -22 1 -51 -4 -40 rrcurveto
          -1 -7 -5 -2 -6 -8 -12 3 -4 -3 -9 -19 -85 callsubr
          1 -2 hhcurveto
          1 -13 -17 -7 -6 hvcurveto
          -6 -9 -14 82 callgsubr
          2 10 5 8 44 callgsubr
          16 hhcurveto
          7 7 0 -1 5 hvcurveto
          -1 -10 -1 -10 -5 vvcurveto
          -3 -17 1 -11 -2 -12 -2 -13 -3 -17 -2 -17 -2 -11 -3 -32 -3 -5 -1 -3 -6 2 callsubr
          -7 -4 -3 -8 -4 -2 -9 -6 -2 10 -11 -18 rrcurveto
          -10 -14 -15 -8 -7 vvcurveto
          -5 7 -1 8 vhcurveto
          9 10 2 5 1 2 -4 5 hhcurveto
          1 7 13 4 10 11 9 -1 11 10 11 3 9 hhcurveto
          48 3 43 -2 26 7 rrcurveto
          1 7 4 callgsubr
          hvcurveto
          12 5 8 1 8 5 9 4 42 18 11 14 rrcurveto
          1 1 0 1 vhcurveto
          69 callsubr
          8 23 35 5 6 hvcurveto
          6 5 9 -3 4 13 rrcurveto
          4 2 -3 -88 callgsubr
          21 34 15 63 49 vvcurveto
          -166 32 42 callsubr
          -5 -2 -7 -2 -3 hvcurveto
          -3 43 callsubr
          -2 -2 -4 -2 hhcurveto
          80 callsubr
          -10 -10 0 1 -10 hvcurveto
          -81 callsubr
          3 1 2 4 35 -1 46 4 40 2 23 5 23 4 22 rrcurveto
          8 1 -2 4 8 hhcurveto
          15 9 -2 -6 13 hvcurveto
          30 -8 10 -8 36 -20 5 -3 17 -8 4 -4 5 -6 11 -23 5 -11 6 -10 3 -10 6 -13 4 -8 5 -8 6 -16 6 -17 3 -24 5 -22 rrcurveto
          2 -9 2 -20 -21 -6 10 callsubr
          vvcurveto
          -1 -20 1 -27 -4 -7 -19 -22 -31 -8 -30 -14 -7 -4 -5 -4 -17 -3 -16 -4 -29 -1 -20 15 callsubr
          -19 -40 -10 -24 hhcurveto
          -5 -7 4 2 -63 callgsubr
          2 2 hvcurveto
          19 21 -2 47 5 41 2 15 3 16 2 15 rrcurveto
          -1 12 13 -1 13 hhcurveto
          17 5 0 12 10 -22 callgsubr
          endchar
        </CharString>
        <CharString name="Euro">
          239 583 500 rmoveto
          5 5 2 5 4 vvcurveto
          16 -38 10 -13 4 vhcurveto
          7 -19 -40 8 -19 hhcurveto
          -10 1 -9 -2 -4 hvcurveto
          -9 -5 -10 3 -7 -2 -2 -1 -3 -5 -2 -1 -8 -5 -9 -2 -5 -4 -11 -11 -5 102 callgsubr
          -1 -6 -2 callsubr
          -4 -3 -5 1 -3 -2 -18 -11 -19 -22 -14 -11 -13 -9 -4 -14 -8 -10 -10 -12 -20 -10 -6 -10 rrcurveto
          -11 -7 -1 -24 -19 -19 -13 3 -7 hhcurveto
          -18 -16 -24 -10 -10 hvcurveto
          -11 -12 -19 -14 -13 vvcurveto
          -69 callsubr
          1 -2 vhcurveto
          16 3 11 12 9 4 5 2 7 0 3 1 rrcurveto
          3 10 21 9 14 hhcurveto
          7 7 -2 -5 hvcurveto
          -70 callgsubr
          -1 vvcurveto
          -34 -5 6 -23 -24 -14 -20 6 -12 hhcurveto
          -16 -21 -6 -5 -3 hvcurveto
          -75 callsubr
          -1 -2 63 callgsubr
          -5 -11 -3 -2 hvcurveto
          -12 -16 -18 -19 -3 -17 rrcurveto
          2 1 -1 1 hhcurveto
          11 9 19 4 12 hvcurveto
          12 5 17 1 12 2 rrcurveto
          3 3 3 1 hhcurveto
          1 8 8 1 8 15 11 -2 -1 hhcurveto
          4 hlineto
          11 3 -11 -9 hvcurveto
          -17 -2 -22 -17 vvcurveto
          -18 7 -1 8 -14 vhcurveto
          3 -5 -2 -5 3 -5 rrcurveto
          2 -3 9 -1 -5 -7 callgsubr
          -75 callsubr
          vvcurveto
          6 24 -31 9 -7 vhcurveto
          4 -3 8 -1 6 -4 7 -4 4 -9 3 -1 12 -5 20 2 5 -4 rrcurveto
          -12 12 31 -8 22 hhcurveto
          11 -2 7 2 6 hvcurveto
          16 4 -1 -9 22 23 20 21 21 17 10 16 6 12 11 9 8 9 rrcurveto
          11 11 19 7 17 vvcurveto
          6 -5 0 -2 -10 -2 -12 -4 -3 vhcurveto
          -87 callgsubr
          -2 -2 -2 0 -4 -2 -2 -87 callgsubr
          -2 -15 -15 rcurveline
          -18 -16 -16 -30 -27 -1 rrcurveto
          -7 -2 7 -7 -5 -5 -1 -4 hhcurveto
          -4 -5 6 3 -5 hvcurveto
          -12 3 -13 -1 -8 4 -4 2 -3 7 -4 2 -11 6 -12 1 -6 4 -5 4 -7 8 -7 7 rrcurveto
          -15 14 -5 7 19 vvcurveto
          17 4 19 2 15 vhcurveto
          -3 6 6 -1 4 hhcurveto
          10 6 4 4 4 hvcurveto
          2 1 28 16 9 -39 callgsubr
          6 0 2 2 vhcurveto
          9 11 14 6 2 12 rrcurveto
          3 -3 -3 1 -3 hhcurveto
          -12 -10 -14 -1 -5 hvcurveto
          -5 -17 -15 -5 -17 hhcurveto
          -10 -4 0 10 hvcurveto
          23 5 -6 5 5 0 -74 callgsubr
          9 vlineto
          13 6 2 12 vhcurveto
          32 6 -5 10 hhcurveto
          24 14 23 12 12 hvcurveto
          17 16 17 10 3 21 rrcurveto
          3 -2 -2 1 -2 -10 -6 -12 -3 -3 -3 1 -3 hhcurveto
          -7 -5 -11 -4 -5 hvcurveto
          -14 -22 -24 0 -26 hhcurveto
          -7 -13 1 6 5 6 19 2 5 hvcurveto
          7 31 14 13 30 29 rrcurveto
          12 13 20 28 16 4 11 -3 5 hhcurveto
          32 -3 14 -2 23 -7 rrcurveto
          -5 17 15 -7 11 hhcurveto
          10 2 8 1 7 hvcurveto
          -2 26 13 5 6 hvcurveto
          endchar
        </CharString>
        <CharString name="F">
          47 436 543 rmoveto
          3 -2 -3 1 -4 hhcurveto
          -8 -9 -3 -1 -11 hvcurveto
          -2 -28 -22 -5 -15 -6 -8 0 -9 -43 -74 -19 -36 -8 -7 1 -7 hhcurveto
          -19 -13 1 -17 -8 13 -2 10 hvcurveto
          7 7 8 6 hhcurveto
          0 vlineto
          -4 14 3 -23 -18 -6 -27 -25 -9 0 -9 -8 vvcurveto
          -10 -4 -18 -3 -20 vhcurveto
          -2 -15 1 -23 -3 -6 -3 -6 -18 -10 -4 -2 -5 -45 callsubr
          -4 -2 rrcurveto
          -12 -10 -18 -3 -20 vvcurveto
          -6 -75 callgsubr
          vhcurveto
          22 2 19 22 hhcurveto
          7 -1 -5 -5 -19 -5 -27 -3 -10 hvcurveto
          -4 -11 3 -6 -3 -9 rrcurveto
          -3 -8 -3 -5 -4 1 -5 -4 vvcurveto
          -9 -7 -7 -1 -7 vhcurveto
          -39 -6 10 -66 -43 hhcurveto
          -9 hlineto
          -3 -4 0 -1 -3 hvcurveto
          -1 0 -3 -2 hhcurveto
          -12 -4 -7 2 -14 vvcurveto
          -1 3 4 -1 3 13 15 7 14 5 5 -1 7 21 22 8 19 hhcurveto
          25 hlineto
          22 22 2 11 11 -14 1 -14 hvcurveto
          -8 -7 0 -5 hhcurveto
          -3 -3 0 1 hvcurveto
          -2 9 12 60 1 3 rrcurveto
          24 3 3 137 23 3 6 -1 6 12 6 1 4 4 3 -1 7 hhcurveto
          8 hlineto
          9 8 -3 6 hhcurveto
          2 hlineto
          1 1 11 10 2 hhcurveto
          5 3 5 2 4 hvcurveto
          27 19 27 16 4 38 rrcurveto
          -3 hlineto
          -18 -9 -19 -7 -6 hvcurveto
          -4 -2 105 callsubr
          -38 callsubr
          -6 -8 -2 rrcurveto
          -2 -8 -16 -1 -15 hhcurveto
          -29 -32 3 7 -5 hvcurveto
          -2 2 0 6 7 vvcurveto
          32 -28 callsubr
          23 vhcurveto
          4 18 -4 21 3 20 1 10 5 8 1 7 rrcurveto
          27 4 6 16 17 14 19 -6 17 12 19 4 15 hhcurveto
          8 7 -1 -3 5 hvcurveto
          2 -2 12 -34 -1 vvcurveto
          -3 vlineto
          -6 -2 -7 -5 vvcurveto
          -3 1 -2 1 -3 vhcurveto
          18 6 -8 18 5 13 rrcurveto
          2 11 9 6 -4 callsubr
          vvcurveto
          2 7 3 -61 callsubr
          3 7 10 18 12 104 callsubr
          -1 1 vhcurveto
          endchar
        </CharString>
        <CharString name="G">
          190 539 318 rmoveto
          1 -2 -3 0 -2 hhcurveto
          -14 -12 -9 -6 -10 hvcurveto
          -15 -26 -23 -22 -34 -10 -2 4 -6 hhcurveto
          -17 -26 -2 -2 -6 hvcurveto
          -2 -9 -10 -5 -1 -2 -69 callsubr
          hhcurveto
          -4 -7 -13 -2 -4 hvcurveto
          88 callgsubr
          hhcurveto
          -1 -14 -9 -6 hvcurveto
          -13 -30 -9 -16 vvcurveto
          -7 5 -1 4 10 4 12 5 7 vhcurveto
          12 6 19 9 9 3 rrcurveto
          2 9 67 10 23 hhcurveto
          9 0 0 -15 -26 -8 -25 -1 -26 hvcurveto
          -1 -17 2 -15 -4 -5 rrcurveto
          -7 callgsubr
          -1 hvcurveto
          105 callsubr
          vvcurveto
          -5 -6 -3 -6 -8 vhcurveto
          -5 -7 0 -5 -5 -6 -5 -4 -8 -3 -6 -4 rrcurveto
          -5 -9 -5 -7 -10 11 callgsubr
          -6 -14 -10 -2 -8 hhcurveto
          -12 -21 2 4 -13 hvcurveto
          1 -2 -4 6 -2 -2 -7 callgsubr
          hhcurveto
          -15 -1 -24 20 -9 6 -24 16 1 7 -10 29 rrcurveto
          -5 14 -11 19 12 4 1 6 5 12 -7 8 7 7 7 15 11 vvcurveto
          8 -6 5 -1 9 vhcurveto
          3 1 15 4 hvcurveto
          9 -1 9 8 vvcurveto
          6 3 18 5 4 vhcurveto
          0 0 1 1 -5 callgsubr
          vvcurveto
          15 11 17 3 6 vhcurveto
          -29 callgsubr
          3 4 11 18 10 7 16 15 26 26 16 15 27 6 3 1 -1 2 1 1 rrcurveto
          4 9 9 1 12 hhcurveto
          23 25 -6 -3 14 hvcurveto
          11 -2 13 1 12 15 callsubr
          16 23 -8 13 hhcurveto
          19 1 19 14 12 hvcurveto
          3 3 10 8 9 vvcurveto
          16 -12 -6 -23 3 vhcurveto
          5 -42 -39 15 -39 hhcurveto
          -7 96 callsubr
          -5 -1 -30 callgsubr
          -2 -9 -4 -12 -3 -12 -7 -5 -2 -1 -6 -5 -3 -5 -4 -9 0 -4 -3 rrcurveto
          -5 -5 -10 -17 -7 hhcurveto
          -5 -1 -6 -7 -3 vvcurveto
          -8 -15 -8 -3 -3 vhcurveto
          -22 -16 -22 -27 -14 -19 rrcurveto
          26 callgsubr
          -2 hhcurveto
          -4 -1 -11 -3 -3 hvcurveto
          -5 -5 -6 -1 -5 vvcurveto
          -1 -11 -25 -15 -3 -7 rrcurveto
          -4 -6 0 -13 -3 vvcurveto
          -1 -14 -10 -20 -5 -8 4 -10 -8 -5 -4 -9 -5 -10 -1 -11 -10 vvcurveto
          -43 7 -35 12 -33 vhcurveto
          5 -13 17 -29 1 -1 0 -3 -1 vvcurveto
          -3 6 0 2 -1 vhcurveto
          2 -4 -1 -5 2 -3 rrcurveto
          0 24 -17 5 -1 vhcurveto
          4 4 -5 -2 3 hvcurveto
          13 -8 2 0 15 -3 rrcurveto
          1 8 -7 2 hhcurveto
          -1 2 4 0 3 8 7 1 8 12 12 -4 9 hhcurveto
          4 hlineto
          5 20 23 10 7 -13 callgsubr
          2 hhcurveto
          4 1 6 2 4 hvcurveto
          10 5 12 -79 callsubr
          8 7 10 6 8 5 2 100 callgsubr
          5 2 6 -2 5 3 14 9 19 12 6 4 rrcurveto
          22 15 13 8 22 9 -2 9 7 7 4 1 8 86 callsubr
          vvcurveto
          10 5 7 2 10 vhcurveto
          2 11 0 16 2 7 rrcurveto
          1 3 1 1 vvcurveto
          4 12 -3 25 3 6 7 20 18 0 4 24 rrcurveto
          endchar
        </CharString>
        <CharString name="Gbreve">
          190 539 318 rmoveto
          1 -2 -3 0 -2 hhcurveto
          -14 -12 -9 -6 -10 hvcurveto
          -15 -26 -23 -22 -34 -10 -2 4 -6 hhcurveto
          -17 -26 -2 -2 -6 hvcurveto
          -2 -9 -10 -5 -1 -2 -69 callsubr
          hhcurveto
          -4 -7 -13 -2 -4 hvcurveto
          88 callgsubr
          hhcurveto
          -1 -14 -9 -6 hvcurveto
          -13 -30 -9 -16 vvcurveto
          -7 5 -1 4 10 4 12 5 7 vhcurveto
          12 6 19 9 9 3 rrcurveto
          2 9 67 10 23 hhcurveto
          9 0 0 -15 -26 -8 -25 -1 -26 hvcurveto
          -1 -17 2 -15 -4 -5 rrcurveto
          -7 callgsubr
          -1 hvcurveto
          105 callsubr
          vvcurveto
          -5 -6 -3 -6 -8 vhcurveto
          -5 -7 0 -5 -5 -6 -5 -4 -8 -3 -6 -4 rrcurveto
          -5 -9 -5 -7 -10 11 callgsubr
          -6 -14 -10 -2 -8 hhcurveto
          -12 -21 2 4 -13 hvcurveto
          1 -2 -4 6 -2 -2 -7 callgsubr
          hhcurveto
          -15 -1 -24 20 -9 6 -24 16 1 7 -10 29 rrcurveto
          -5 14 -11 19 12 4 1 6 5 12 -7 8 7 7 7 15 11 vvcurveto
          8 -6 5 -1 9 vhcurveto
          3 1 15 4 hvcurveto
          9 -1 9 8 vvcurveto
          6 3 18 5 4 vhcurveto
          0 0 1 1 -5 callgsubr
          vvcurveto
          15 11 17 3 6 vhcurveto
          -29 callgsubr
          3 4 11 18 10 7 16 15 26 26 16 15 27 6 3 1 -1 2 1 1 rrcurveto
          4 9 9 1 12 hhcurveto
          23 25 -6 -3 14 hvcurveto
          11 -2 13 1 12 15 callsubr
          16 23 -8 13 hhcurveto
          19 1 19 14 12 hvcurveto
          3 3 10 8 9 vvcurveto
          16 -12 -6 -23 3 vhcurveto
          5 -42 -39 15 -39 hhcurveto
          -7 96 callsubr
          -5 -1 -30 callgsubr
          -2 -9 -4 -12 -3 -12 -7 -5 -2 -1 -6 -5 -3 -5 -4 -9 0 -4 -3 rrcurveto
          -5 -5 -10 -17 -7 hhcurveto
          -5 -1 -6 -7 -3 vvcurveto
          -8 -15 -8 -3 -3 vhcurveto
          -22 -16 -22 -27 -14 -19 rrcurveto
          26 callgsubr
          -2 hhcurveto
          -4 -1 -11 -3 -3 hvcurveto
          -5 -5 -6 -1 -5 vvcurveto
          -1 -11 -25 -15 -3 -7 rrcurveto
          -4 -6 0 -13 -3 vvcurveto
          -1 -14 -10 -20 -5 -8 4 -10 -8 -5 -4 -9 -5 -10 -1 -11 -10 vvcurveto
          -43 7 -35 12 -33 vhcurveto
          5 -13 17 -29 1 -1 0 -3 -1 vvcurveto
          -3 6 0 2 -1 vhcurveto
          2 -4 -1 -5 2 -3 rrcurveto
          0 24 -17 5 -1 vhcurveto
          4 4 -5 -2 3 hvcurveto
          13 -8 2 0 15 -3 rrcurveto
          1 8 -7 2 hhcurveto
          -1 2 4 0 3 8 7 1 8 12 12 -4 9 hhcurveto
          4 hlineto
          5 20 23 10 7 -13 callgsubr
          2 hhcurveto
          4 1 6 2 4 hvcurveto
          10 5 12 -79 callsubr
          8 7 10 6 8 5 2 100 callgsubr
          5 2 6 -2 5 3 14 9 19 12 6 4 rrcurveto
          22 15 13 8 22 9 -2 9 7 7 4 1 8 86 callsubr
          vvcurveto
          10 5 7 2 10 vhcurveto
          2 11 0 16 2 7 rrcurveto
          1 3 1 1 vvcurveto
          4 12 -3 25 3 6 7 20 18 0 4 24 rrcurveto
          -103 363 rmoveto
          -3 -1 2 -3 hhcurveto
          -5 -11 -23 12 callsubr
          -75 callsubr
          -1 -83 callgsubr
          -2 -7 -3 -2 -1 vhcurveto
          14 callsubr
          -2 rrcurveto
          -7 -10 -38 callsubr
          -3 -4 1 -5 49 callsubr
          hhcurveto
          -6 1 5 1 -1 callgsubr
          2 -3 -1 -4 2 rrcurveto
          11 -16 -12 33 -6 hhcurveto
          -7 -10 -7 -5 -7 hvcurveto
          -13 -8 -7 -5 -8 vvcurveto
          -5 6 -12 5 -3 vhcurveto
          2 -2 -1 -1 2 -3 4 -6 0 callsubr
          -3 7 -5 7 -11 4 5 callgsubr
          11 20 -3 8 hhcurveto
          9 21 -12 callsubr
          hvcurveto
          3 2 1 5 7 6 callgsubr
          9 20 callgsubr
          1 1 0 5 callsubr
          rrcurveto
          5 7 6 3 2 vvcurveto
          3 -34 callgsubr
          -34 callsubr
          1 4 3 -36 callgsubr
          -31 callgsubr
          9 9 -56 callgsubr
        </CharString>
        <CharString name="Gcircumflex">
          190 539 318 rmoveto
          1 -2 -3 0 -2 hhcurveto
          -14 -12 -9 -6 -10 hvcurveto
          -15 -26 -23 -22 -34 -10 -2 4 -6 hhcurveto
          -17 -26 -2 -2 -6 hvcurveto
          -2 -9 -10 -5 -1 -2 -69 callsubr
          hhcurveto
          -4 -7 -13 -2 -4 hvcurveto
          88 callgsubr
          hhcurveto
          -1 -14 -9 -6 hvcurveto
          -13 -30 -9 -16 vvcurveto
          -7 5 -1 4 10 4 12 5 7 vhcurveto
          12 6 19 9 9 3 rrcurveto
          2 9 67 10 23 hhcurveto
          9 0 0 -15 -26 -8 -25 -1 -26 hvcurveto
          -1 -17 2 -15 -4 -5 rrcurveto
          -7 callgsubr
          -1 hvcurveto
          105 callsubr
          vvcurveto
          -5 -6 -3 -6 -8 vhcurveto
          -5 -7 0 -5 -5 -6 -5 -4 -8 -3 -6 -4 rrcurveto
          -5 -9 -5 -7 -10 11 callgsubr
          -6 -14 -10 -2 -8 hhcurveto
          -12 -21 2 4 -13 hvcurveto
          1 -2 -4 6 -2 -2 -7 callgsubr
          hhcurveto
          -15 -1 -24 20 -9 6 -24 16 1 7 -10 29 rrcurveto
          -5 14 -11 19 12 4 1 6 5 12 -7 8 7 7 7 15 11 vvcurveto
          8 -6 5 -1 9 vhcurveto
          3 1 15 4 hvcurveto
          9 -1 9 8 vvcurveto
          6 3 18 5 4 vhcurveto
          0 0 1 1 -5 callgsubr
          vvcurveto
          15 11 17 3 6 vhcurveto
          -29 callgsubr
          3 4 11 18 10 7 16 15 26 26 16 15 27 6 3 1 -1 2 1 1 rrcurveto
          4 9 9 1 12 hhcurveto
          23 25 -6 -3 14 hvcurveto
          11 -2 13 1 12 15 callsubr
          16 23 -8 13 hhcurveto
          19 1 19 14 12 hvcurveto
          3 3 10 8 9 vvcurveto
          16 -12 -6 -23 3 vhcurveto
          5 -42 -39 15 -39 hhcurveto
          -7 96 callsubr
          -5 -1 -30 callgsubr
          -2 -9 -4 -12 -3 -12 -7 -5 -2 -1 -6 -5 -3 -5 -4 -9 0 -4 -3 rrcurveto
          -5 -5 -10 -17 -7 hhcurveto
          -5 -1 -6 -7 -3 vvcurveto
          -8 -15 -8 -3 -3 vhcurveto
          -22 -16 -22 -27 -14 -19 rrcurveto
          26 callgsubr
          -2 hhcurveto
          -4 -1 -11 -3 -3 hvcurveto
          -5 -5 -6 -1 -5 vvcurveto
          -1 -11 -25 -15 -3 -7 rrcurveto
          -4 -6 0 -13 -3 vvcurveto
          -1 -14 -10 -20 -5 -8 4 -10 -8 -5 -4 -9 -5 -10 -1 -11 -10 vvcurveto
          -43 7 -35 12 -33 vhcurveto
          5 -13 17 -29 1 -1 0 -3 -1 vvcurveto
          -3 6 0 2 -1 vhcurveto
          2 -4 -1 -5 2 -3 rrcurveto
          0 24 -17 5 -1 vhcurveto
          4 4 -5 -2 3 hvcurveto
          13 -8 2 0 15 -3 rrcurveto
          1 8 -7 2 hhcurveto
          -1 2 4 0 3 8 7 1 8 12 12 -4 9 hhcurveto
          4 hlineto
          5 20 23 10 7 -13 callgsubr
          2 hhcurveto
          4 1 6 2 4 hvcurveto
          10 5 12 -79 callsubr
          8 7 10 6 8 5 2 100 callgsubr
          5 2 6 -2 5 3 14 9 19 12 6 4 rrcurveto
          22 15 13 8 22 9 -2 9 7 7 4 1 8 86 callsubr
          vvcurveto
          10 5 7 2 10 vhcurveto
          2 11 0 16 2 7 rrcurveto
          1 3 1 1 vvcurveto
          4 12 -3 25 3 6 7 20 18 0 4 24 rrcurveto
          -113 282 -105 callsubr
        </CharString>
        <CharString name="Gcommaaccent">
          190 539 318 rmoveto
          1 -2 -3 0 -2 hhcurveto
          -14 -12 -9 -6 -10 hvcurveto
          -15 -26 -23 -22 -34 -10 -2 4 -6 hhcurveto
          -17 -26 -2 -2 -6 hvcurveto
          -2 -9 -10 -5 -1 -2 -69 callsubr
          hhcurveto
          -4 -7 -13 -2 -4 hvcurveto
          88 callgsubr
          hhcurveto
          -1 -14 -9 -6 hvcurveto
          -13 -30 -9 -16 vvcurveto
          -7 5 -1 4 10 4 12 5 7 vhcurveto
          12 6 19 9 9 3 rrcurveto
          2 9 67 10 23 hhcurveto
          9 0 0 -15 -26 -8 -25 -1 -26 hvcurveto
          -1 -17 2 -15 -4 -5 rrcurveto
          -7 callgsubr
          -1 hvcurveto
          105 callsubr
          vvcurveto
          -5 -6 -3 -6 -8 vhcurveto
          -5 -7 0 -5 -5 -6 -5 -4 -8 -3 -6 -4 rrcurveto
          -5 -9 -5 -7 -10 11 callgsubr
          -6 -14 -10 -2 -8 hhcurveto
          -12 -21 2 4 -13 hvcurveto
          1 -2 -4 6 -2 -2 -7 callgsubr
          hhcurveto
          -15 -1 -24 20 -9 6 -24 16 1 7 -10 29 rrcurveto
          -5 14 -11 19 12 4 1 6 5 12 -7 8 7 7 7 15 11 vvcurveto
          8 -6 5 -1 9 vhcurveto
          3 1 15 4 hvcurveto
          9 -1 9 8 vvcurveto
          6 3 18 5 4 vhcurveto
          0 0 1 1 -5 callgsubr
          vvcurveto
          15 11 17 3 6 vhcurveto
          -29 callgsubr
          3 4 11 18 10 7 16 15 26 26 16 15 27 6 3 1 -1 2 1 1 rrcurveto
          4 9 9 1 12 hhcurveto
          23 25 -6 -3 14 hvcurveto
          11 -2 13 1 12 15 callsubr
          16 23 -8 13 hhcurveto
          19 1 19 14 12 hvcurveto
          3 3 10 8 9 vvcurveto
          16 -12 -6 -23 3 vhcurveto
          5 -42 -39 15 -39 hhcurveto
          -7 96 callsubr
          -5 -1 -30 callgsubr
          -2 -9 -4 -12 -3 -12 -7 -5 -2 -1 -6 -5 -3 -5 -4 -9 0 -4 -3 rrcurveto
          -5 -5 -10 -17 -7 hhcurveto
          -5 -1 -6 -7 -3 vvcurveto
          -8 -15 -8 -3 -3 vhcurveto
          -22 -16 -22 -27 -14 -19 rrcurveto
          26 callgsubr
          -2 hhcurveto
          -4 -1 -11 -3 -3 hvcurveto
          -5 -5 -6 -1 -5 vvcurveto
          -1 -11 -25 -15 -3 -7 rrcurveto
          -4 -6 0 -13 -3 vvcurveto
          -1 -14 -10 -20 -5 -8 4 -10 -8 -5 -4 -9 -5 -10 -1 -11 -10 vvcurveto
          -43 7 -35 12 -33 vhcurveto
          5 -13 17 -29 1 -1 0 -3 -1 vvcurveto
          -3 6 0 2 -1 vhcurveto
          2 -4 -1 -5 2 -3 rrcurveto
          0 24 -17 5 -1 vhcurveto
          4 4 -5 -2 3 hvcurveto
          13 -8 2 0 15 -3 rrcurveto
          1 8 -7 2 hhcurveto
          -1 2 4 0 3 8 7 1 8 12 12 -4 9 hhcurveto
          4 hlineto
          5 20 23 10 7 -13 callgsubr
          2 hhcurveto
          4 1 6 2 4 hvcurveto
          10 5 12 -79 callsubr
          8 7 10 6 8 5 2 100 callgsubr
          5 2 6 -2 5 3 14 9 19 12 6 4 rrcurveto
          22 15 13 8 22 9 -2 9 7 7 4 1 8 86 callsubr
          vvcurveto
          10 5 7 2 10 vhcurveto
          2 11 0 16 2 7 rrcurveto
          1 3 1 1 vvcurveto
          4 12 -3 25 3 6 7 20 18 0 4 24 rrcurveto
          -238 -430 rmoveto
          7 -4 -74 callgsubr
          -88 callsubr
          1 vhcurveto
          -1 vlineto
          -3 19 -5 13 -1 -72 callgsubr
          2 3 -12 9 1 vvcurveto
          1 hlineto
          -65 callsubr
          -8 -9 -4 0 hvcurveto
          1 hlineto
          -9 -3 -17 -12 -14 vvcurveto
          -6 2 -9 2 -8 vhcurveto
          1 -7 1 -11 2 -7 rrcurveto
          1 -4 callgsubr
          -6 -3 -5 -1 -7 3 -4 -5 vvcurveto
          -2 -5 -7 -2 -4 vhcurveto
          -4 -6 -15 -26 -7 vvcurveto
          -4 11 -76 callgsubr
          10 13 1 2 -91 callgsubr
          0 0 11 callsubr
          -96 callsubr
        </CharString>
        <CharString name="Gdotaccent">
          190 539 318 rmoveto
          1 -2 -3 0 -2 hhcurveto
          -14 -12 -9 -6 -10 hvcurveto
          -15 -26 -23 -22 -34 -10 -2 4 -6 hhcurveto
          -17 -26 -2 -2 -6 hvcurveto
          -2 -9 -10 -5 -1 -2 -69 callsubr
          hhcurveto
          -4 -7 -13 -2 -4 hvcurveto
          88 callgsubr
          hhcurveto
          -1 -14 -9 -6 hvcurveto
          -13 -30 -9 -16 vvcurveto
          -7 5 -1 4 10 4 12 5 7 vhcurveto
          12 6 19 9 9 3 rrcurveto
          2 9 67 10 23 hhcurveto
          9 0 0 -15 -26 -8 -25 -1 -26 hvcurveto
          -1 -17 2 -15 -4 -5 rrcurveto
          -7 callgsubr
          -1 hvcurveto
          105 callsubr
          vvcurveto
          -5 -6 -3 -6 -8 vhcurveto
          -5 -7 0 -5 -5 -6 -5 -4 -8 -3 -6 -4 rrcurveto
          -5 -9 -5 -7 -10 11 callgsubr
          -6 -14 -10 -2 -8 hhcurveto
          -12 -21 2 4 -13 hvcurveto
          1 -2 -4 6 -2 -2 -7 callgsubr
          hhcurveto
          -15 -1 -24 20 -9 6 -24 16 1 7 -10 29 rrcurveto
          -5 14 -11 19 12 4 1 6 5 12 -7 8 7 7 7 15 11 vvcurveto
          8 -6 5 -1 9 vhcurveto
          3 1 15 4 hvcurveto
          9 -1 9 8 vvcurveto
          6 3 18 5 4 vhcurveto
          0 0 1 1 -5 callgsubr
          vvcurveto
          15 11 17 3 6 vhcurveto
          -29 callgsubr
          3 4 11 18 10 7 16 15 26 26 16 15 27 6 3 1 -1 2 1 1 rrcurveto
          4 9 9 1 12 hhcurveto
          23 25 -6 -3 14 hvcurveto
          11 -2 13 1 12 15 callsubr
          16 23 -8 13 hhcurveto
          19 1 19 14 12 hvcurveto
          3 3 10 8 9 vvcurveto
          16 -12 -6 -23 3 vhcurveto
          5 -42 -39 15 -39 hhcurveto
          -7 96 callsubr
          -5 -1 -30 callgsubr
          -2 -9 -4 -12 -3 -12 -7 -5 -2 -1 -6 -5 -3 -5 -4 -9 0 -4 -3 rrcurveto
          -5 -5 -10 -17 -7 hhcurveto
          -5 -1 -6 -7 -3 vvcurveto
          -8 -15 -8 -3 -3 vhcurveto
          -22 -16 -22 -27 -14 -19 rrcurveto
          26 callgsubr
          -2 hhcurveto
          -4 -1 -11 -3 -3 hvcurveto
          -5 -5 -6 -1 -5 vvcurveto
          -1 -11 -25 -15 -3 -7 rrcurveto
          -4 -6 0 -13 -3 vvcurveto
          -1 -14 -10 -20 -5 -8 4 -10 -8 -5 -4 -9 -5 -10 -1 -11 -10 vvcurveto
          -43 7 -35 12 -33 vhcurveto
          5 -13 17 -29 1 -1 0 -3 -1 vvcurveto
          -3 6 0 2 -1 vhcurveto
          2 -4 -1 -5 2 -3 rrcurveto
          0 24 -17 5 -1 vhcurveto
          4 4 -5 -2 3 hvcurveto
          13 -8 2 0 15 -3 rrcurveto
          1 8 -7 2 hhcurveto
          -1 2 4 0 3 8 7 1 8 12 12 -4 9 hhcurveto
          4 hlineto
          5 20 23 10 7 -13 callgsubr
          2 hhcurveto
          4 1 6 2 4 hvcurveto
          10 5 12 -79 callsubr
          8 7 10 6 8 5 2 100 callgsubr
          5 2 6 -2 5 3 14 9 19 12 6 4 rrcurveto
          22 15 13 8 22 9 -2 9 7 7 4 1 8 86 callsubr
          vvcurveto
          10 5 7 2 10 vhcurveto
          2 11 0 16 2 7 rrcurveto
          1 3 1 1 vvcurveto
          4 12 -3 25 3 6 7 20 18 0 4 24 rrcurveto
          -156 336 rmoveto
          80 callgsubr
          9 -11 5 -80 callgsubr
          3 -4 -1 4 -7 hhcurveto
          -7 -6 -4 0 hvcurveto
          -6 -1 -12 1 -8 -7 -3 -3 -58 callsubr
          -6 rrcurveto
          -3 -4 0 -70 callgsubr
          10 callsubr
          -20 -12 -5 -10 vvcurveto
          -1 0 -1 0 vhcurveto
          4 7 -14 9 hhcurveto
          18 13 36 7 8 hvcurveto
          3 3 -2 1 -88 callsubr
          4 6 4 -88 callsubr
          5 -2 5 -69 callgsubr
          -49 callsubr
          -88 callgsubr
          endchar
        </CharString>
        <CharString name="H">
          -95 callgsubr
          -3 -6 0 -5 -4 -9 3 -7 -11 vvcurveto
          -7 -6 -15 -2 -13 vhcurveto
          -92 callgsubr
          7 9 3 16 8 -1 7 9 vvcurveto
          19 16 58 6 39 vhcurveto
          -94 callsubr
          -2 -12 -2 -16 -12 -14 6 -10 -8 vvcurveto
          -11 -8 3 -2 -4 vhcurveto
          -3 -1 -9 -74 -4 hhcurveto
          16 callgsubr
          -6 vvcurveto
          -9 -6 -6 -1 -7 vhcurveto
          -5 4 -2 -7 vvcurveto
          -1 -3 -2 -1 -5 vhcurveto
          -2 -18 2 -14 -4 -16 rrcurveto
          -2 -9 -6 -9 -10 vvcurveto
          -6 3 callgsubr
          vhcurveto
          -18 -4 0 -1 -9 vhcurveto
          -3 -25 -2 1 -24 -1 rrcurveto
          -14 -1 -20 -3 -13 -1 -89 callgsubr
          1 vlineto
          0 4 -7 -1 vvcurveto
          -2 3 2 -1 3 hhcurveto
          8 10 6 1 7 hvcurveto
          6 2 -4 5 12 7 7 6 4 1 -3 6 hhcurveto
          9 10 9 2 9 hvcurveto
          20 4 56 -7 22 vvcurveto
          6 -8 1 -4 vhcurveto
          -5 -4 -1 -3 hhcurveto
          -29 -2 0 20 47 2 11 6 46 hvcurveto
          24 2 2 32 22 8 10 -1 10 hhcurveto
          29 -3 6 1 14 hvcurveto
          2 27 68 3 36 hhcurveto
          23 0 2 -11 -18 -2 -47 -2 -11 hvcurveto
          -2 -11 -6 -14 -10 -6 -58 callsubr
          vvcurveto
          -8 -6 -7 -5 -17 vhcurveto
          -5 -16 0 -11 -3 -2 -4 -4 -21 3 -7 -3 rrcurveto
          -14 -4 -5 -5 -7 vvcurveto
          -10 7 -3 8 vhcurveto
          12 17 7 6 15 4 -14 7 2 3 5 6 hhcurveto
          6 hlineto
          5 4 4 2 4 hvcurveto
          6 3 5 8 11 3 rrcurveto
          25 8 37 -7 13 vvcurveto
          7 -9 9 -10 vhcurveto
          -9 -15 -5 -11 hhcurveto
          -5 -5 1 4 -2 hvcurveto
          0 2 33 2 14 vhcurveto
          1 11 7 7 11 7 -1 4 4 vvcurveto
          9 6 9 2 7 vhcurveto
          1 8 1 9 9 -66 callgsubr
          6 vvcurveto
          8 1 8 1 8 vhcurveto
          1 7 6 -31 callgsubr
          -4 1 6 vvcurveto
          9 2 9 2 17 vhcurveto
          1 7 7 8 9 vvcurveto
          6 vlineto
          3 4 7 0 vhcurveto
          6 -4 5 6 vvcurveto
          2 vlineto
          0 3 1 -88 callgsubr
          63 14 -2 120 24 37 callgsubr
          3 vlineto
          endchar
        </CharString>
        <CharString name="Hbar">
          -95 callgsubr
          -2 -5 rlineto
          1 -59 -75 7 -38 -2 -29 -1 -33 hhcurveto
          5 26 10 38 4 28 rrcurveto
          -94 callsubr
          -1 -79 callgsubr
          vhcurveto
          -21 hlineto
          -7 -1 -7 -3 -21 -18 -7 -7 -3 -70 callgsubr
          rrcurveto
          -7 -9 -14 -9 -11 vvcurveto
          -69 callsubr
          3 9 5 8 3 10 vhcurveto
          5 2 29 1 30 1 rrcurveto
          1 -5 2 -4 -4 vvcurveto
          -11 -8 3 -2 -4 vhcurveto
          -3 -1 -9 -74 -4 hhcurveto
          16 callgsubr
          -6 vvcurveto
          -9 -6 -6 -1 -7 vhcurveto
          -5 4 -2 -7 vvcurveto
          -1 -3 -2 -1 -5 vhcurveto
          -2 -18 2 -14 -4 -16 rrcurveto
          -2 -9 -6 -9 -10 vvcurveto
          -6 3 callgsubr
          vhcurveto
          -18 -4 0 -1 -9 vhcurveto
          -3 -25 -2 1 -24 -1 rrcurveto
          -14 -1 -20 -3 -13 -1 -89 callgsubr
          1 vlineto
          0 4 -7 -1 vvcurveto
          -2 3 2 -1 3 hhcurveto
          8 10 6 1 7 hvcurveto
          6 2 -4 5 12 7 7 6 4 1 -3 6 hhcurveto
          9 10 9 2 9 hvcurveto
          20 4 56 -7 22 vvcurveto
          6 -8 1 -4 vhcurveto
          -5 -4 -1 -3 hhcurveto
          -29 -2 0 20 47 2 11 6 46 hvcurveto
          24 2 2 32 22 8 10 -1 10 hhcurveto
          29 -3 6 1 14 hvcurveto
          2 27 68 3 36 hhcurveto
          23 0 2 -11 -18 -2 -47 -2 -11 hvcurveto
          -2 -11 -6 -14 -10 -6 -58 callsubr
          vvcurveto
          -8 -6 -7 -5 -17 vhcurveto
          -5 -16 0 -11 -3 -2 -4 -4 -21 3 -7 -3 rrcurveto
          -14 -4 -5 -5 -7 vvcurveto
          -10 7 -3 8 vhcurveto
          12 17 7 6 15 4 -14 7 2 3 5 6 hhcurveto
          6 hlineto
          5 4 4 2 4 hvcurveto
          6 3 5 8 11 3 rrcurveto
          25 8 37 -7 13 vvcurveto
          7 -9 9 -10 vhcurveto
          -9 -15 -5 -11 hhcurveto
          -5 -5 1 4 -2 hvcurveto
          0 2 33 2 14 vhcurveto
          1 11 7 7 11 7 -1 4 4 vvcurveto
          9 6 9 2 7 vhcurveto
          1 8 1 9 9 -66 callgsubr
          6 vvcurveto
          8 1 8 1 8 vhcurveto
          1 7 6 -31 callgsubr
          -4 1 6 vvcurveto
          9 2 9 2 17 vhcurveto
          1 7 7 8 9 vvcurveto
          6 vlineto
          1 0 2 -88 callgsubr
          8 2 7 2 5 5 21 22 28 18 9 28 rrcurveto
          1 -49 callgsubr
          -4 -2 -7 -1 53 callgsubr
          -5 -3 -12 -1 -16 -2 rrcurveto
          65 10 1 92 21 37 callgsubr
          -193 -220 rmoveto
          9 11 -4 -2 20 hvcurveto
          -1 -6 -2 -7 -1 -6 -92 callgsubr
          vvcurveto
          -13 callsubr
          3 9 vhcurveto
          6 hlineto
          17 106 -3 5 15 39 5 9 hhcurveto
          endchar
        </CharString>
        <CharString name="Hcircumflex">
          -95 callgsubr
          -3 -6 0 -5 -4 -9 3 -7 -11 vvcurveto
          -7 -6 -15 -2 -13 vhcurveto
          -92 callgsubr
          7 9 3 16 8 -1 7 9 vvcurveto
          19 16 58 6 39 vhcurveto
          -94 callsubr
          -2 -12 -2 -16 -12 -14 6 -10 -8 vvcurveto
          -11 -8 3 -2 -4 vhcurveto
          -3 -1 -9 -74 -4 hhcurveto
          16 callgsubr
          -6 vvcurveto
          -9 -6 -6 -1 -7 vhcurveto
          -5 4 -2 -7 vvcurveto
          -1 -3 -2 -1 -5 vhcurveto
          -2 -18 2 -14 -4 -16 rrcurveto
          -2 -9 -6 -9 -10 vvcurveto
          -6 3 callgsubr
          vhcurveto
          -18 -4 0 -1 -9 vhcurveto
          -3 -25 -2 1 -24 -1 rrcurveto
          -14 -1 -20 -3 -13 -1 -89 callgsubr
          1 vlineto
          0 4 -7 -1 vvcurveto
          -2 3 2 -1 3 hhcurveto
          8 10 6 1 7 hvcurveto
          6 2 -4 5 12 7 7 6 4 1 -3 6 hhcurveto
          9 10 9 2 9 hvcurveto
          20 4 56 -7 22 vvcurveto
          6 -8 1 -4 vhcurveto
          -5 -4 -1 -3 hhcurveto
          -29 -2 0 20 47 2 11 6 46 hvcurveto
          24 2 2 32 22 8 10 -1 10 hhcurveto
          29 -3 6 1 14 hvcurveto
          2 27 68 3 36 hhcurveto
          23 0 2 -11 -18 -2 -47 -2 -11 hvcurveto
          -2 -11 -6 -14 -10 -6 -58 callsubr
          vvcurveto
          -8 -6 -7 -5 -17 vhcurveto
          -5 -16 0 -11 -3 -2 -4 -4 -21 3 -7 -3 rrcurveto
          -14 -4 -5 -5 -7 vvcurveto
          -10 7 -3 8 vhcurveto
          12 17 7 6 15 4 -14 7 2 3 5 6 hhcurveto
          6 hlineto
          5 4 4 2 4 hvcurveto
          6 3 5 8 11 3 rrcurveto
          25 8 37 -7 13 vvcurveto
          7 -9 9 -10 vhcurveto
          -9 -15 -5 -11 hhcurveto
          -5 -5 1 4 -2 hvcurveto
          0 2 33 2 14 vhcurveto
          1 11 7 7 11 7 -1 4 4 vvcurveto
          9 6 9 2 7 vhcurveto
          1 8 1 9 9 -66 callgsubr
          6 vvcurveto
          8 1 8 1 8 vhcurveto
          1 7 6 -31 callgsubr
          -4 1 6 vvcurveto
          9 2 9 2 17 vhcurveto
          1 7 7 8 9 vvcurveto
          6 vlineto
          3 4 7 0 vhcurveto
          6 -4 5 6 vvcurveto
          2 vlineto
          0 3 1 -88 callgsubr
          63 14 -2 120 24 37 callgsubr
          -132 67 -105 callsubr
        </CharString>
        <CharString name="I">
          -74 -105 callgsubr
          endchar
        </CharString>
        <CharString name="IJ">
          180 -105 callgsubr
          260 hmoveto
          3 9 callgsubr
          -11 -15 -4 -15 hhcurveto
          -13 -6 10 1 -7 hvcurveto
          -5 -3 -6 -1 -3 hvcurveto
          -5 -3 -10 1 -7 -2 rrcurveto
          0 0 -3 -3 -1 vhcurveto
          -13 -3 -63 -11 callsubr
          rrcurveto
          -4 -4 0 -25 0 vvcurveto
          -3 -10 callsubr
          4 hhcurveto
          8 10 3 1 9 hvcurveto
          1 2 -3 4 hhcurveto
          1 hlineto
          -2 2 10 11 6 hhcurveto
          1 1 0 -2 1 hvcurveto
          -1 -24 -6 -24 -4 -25 rrcurveto
          -7 callgsubr
          -1 -4 1 -4 -4 -9 -8 -5 -7 -3 4 -1 -3 -1 -4 -2 -4 vvcurveto
          -2 -35 -9 -18 -31 -8 0 -9 -9 vvcurveto
          -15 -5 -16 -2 -16 vhcurveto
          -3 -20 -1 -24 -3 -11 -3 -11 3 -8 -8 -10 -5 -25 1 -42 -6 -20 -5 -15 1 -19 -4 -10 -5 -12 -3 -22 -3 -6 rrcurveto
          -2 -3 -6 -3 -4 -2 -89 callgsubr
          -4 -6 -2 -1 -4 vhcurveto
          -4 -6 0 -6 -4 -6 -1 -1 -4 -1 -2 -2 -2 61 callsubr
          -4 -7 -9 -11 -8 -7 -8 -10 -11 -7 -8 -9 -7 -8 -6 -10 -3 -7 -5 rrcurveto
          -6 -4 -13 0 -13 vvcurveto
          -3 -1 -2 5 20 20 15 7 11 vhcurveto
          4 2 4 -1 3 3 3 2 1 2 3 2 43 34 28 32 28 37 3 3 1 7 3 -9 callgsubr
          4 -91 callgsubr
          4 7 2 10 4 9 3 5 7 5 1 4 rrcurveto
          4 13 1 17 3 14 rrcurveto
          3 15 8 16 14 -66 callgsubr
          5 18 8 8 19 7 -1 8 8 vvcurveto
          20 9 23 3 22 vhcurveto
          3 23 4 24 22 7 -1 7 7 vvcurveto
          3 0 3 1 3 vhcurveto
          1 10 10 24 13 -5 callgsubr
          vvcurveto
          2 4 6 0 vhcurveto
          5 -4 5 7 vvcurveto
          13 8 21 3 14 vhcurveto
          5 24 2 18 8 6 5 4 18 -3 9 2 rrcurveto
          14 3 8 -1 13 vvcurveto
          endchar
        </CharString>
        <CharString name="Iacute">
          -74 -105 callgsubr
          48 133 -106 callgsubr
          endchar
        </CharString>
        <CharString name="Ibreve">
          -74 -105 callgsubr
          15 144 rmoveto
          -3 -1 2 -3 hhcurveto
          -5 -11 -23 12 callsubr
          -75 callsubr
          -1 -83 callgsubr
          -2 -7 -3 -2 -1 vhcurveto
          14 callsubr
          -2 rrcurveto
          -7 -10 -38 callsubr
          -3 -4 1 -5 49 callsubr
          hhcurveto
          -6 1 5 1 -1 callgsubr
          2 -3 -1 -4 2 rrcurveto
          11 -16 -12 33 -6 hhcurveto
          -7 -10 -7 -5 -7 hvcurveto
          -13 -8 -7 -5 -8 vvcurveto
          -5 6 -12 5 -3 vhcurveto
          2 -2 -1 -1 2 -3 4 -6 0 callsubr
          -3 7 -5 7 -11 4 5 callgsubr
          11 20 -3 8 hhcurveto
          9 21 -12 callsubr
          hvcurveto
          3 2 1 5 7 6 callgsubr
          9 20 callgsubr
          1 1 0 5 callsubr
          rrcurveto
          5 7 6 3 2 vvcurveto
          3 -34 callgsubr
          -34 callsubr
          1 4 3 -36 callgsubr
          -31 callgsubr
          9 9 -56 callgsubr
        </CharString>
        <CharString name="Icircumflex">
          -74 -105 callgsubr
          8 66 -105 callsubr
        </CharString>
        <CharString name="Idieresis">
          -74 -105 callgsubr
          -78 106 rmoveto
          80 callgsubr
          9 -11 5 -80 callgsubr
          3 -4 -1 4 -7 hhcurveto
          -7 -6 -4 0 hvcurveto
          -6 -1 -12 1 -8 -7 -3 -3 -58 callsubr
          -6 rrcurveto
          -3 -4 0 -70 callgsubr
          10 callsubr
          -20 -12 -5 -10 vvcurveto
          -1 0 -1 0 vhcurveto
          4 7 -14 9 hhcurveto
          18 13 36 7 8 hvcurveto
          3 3 -2 1 -88 callsubr
          4 6 4 -88 callsubr
          5 -2 5 -69 callgsubr
          -49 callsubr
          -88 callgsubr
          105 hmoveto
          -37 callgsubr
          -86 callsubr
          9 -11 5 -80 callgsubr
          3 -5 0 4 -7 hhcurveto
          -8 -6 -4 0 hvcurveto
          -6 -1 -11 1 -8 -7 -4 -3 -58 callsubr
          -6 rrcurveto
          -2 -4 -1 -70 callgsubr
          1 -6 -7 -20 -13 -5 -10 vvcurveto
          -26 callgsubr
          0 vhcurveto
          4 7 -14 8 hhcurveto
          18 14 36 7 7 hvcurveto
          3 3 -2 1 -88 callsubr
          4 7 3 callsubr
          2 -66 callgsubr
          -69 callgsubr
          1 -43 callsubr
          endchar
        </CharString>
        <CharString name="Idotaccent">
          -74 -105 callgsubr
          -32 108 rmoveto
          80 callgsubr
          9 -11 5 -80 callgsubr
          3 -4 -1 4 -7 hhcurveto
          -7 -6 -4 0 hvcurveto
          -6 -1 -12 1 -8 -7 -3 -3 -58 callsubr
          -6 rrcurveto
          -3 -4 0 -70 callgsubr
          10 callsubr
          -20 -12 -5 -10 vvcurveto
          -1 0 -1 0 vhcurveto
          4 7 -14 9 hhcurveto
          18 13 36 7 8 hvcurveto
          3 3 -2 1 -88 callsubr
          4 6 4 -88 callsubr
          5 -2 5 -69 callgsubr
          -49 callsubr
          -88 callgsubr
          endchar
        </CharString>
        <CharString name="Igrave">
          -74 -105 callgsubr
          -60 70 rmoveto
          -103 callsubr
        </CharString>
        <CharString name="Imacron">
          -74 -105 callgsubr
          63 114 -102 callgsubr
        </CharString>
        <CharString name="Iogonek">
          -74 206 -60 callgsubr
          -13 109 callsubr
          4 12 4 9 vhcurveto
          2 hlineto
          14 6 81 15 7 vvcurveto
          8 -9 1 -6 vhcurveto
          -11 -12 -5 -12 -3 -3 1 -3 hhcurveto
          31 callsubr
          12 -5 15 6 9 8 5 -54 callsubr
          1 vlineto
          12 36 -2 41 5 54 2 14 3 20 2 17 rrcurveto
          4 20 8 19 20 9 -1 10 10 vvcurveto
          23 7 34 4 30 vhcurveto
          50 7 -1 26 28 4 4 -1 5 hhcurveto
          9 22 3 11 2 -83 callsubr
          3 hvcurveto
          3 -4 -5 2 -6 -17 -22 -9 -4 -4 -9 14 -12 hhcurveto
          -18 -14 -18 -3 -13 hvcurveto
          -28 -8 -35 15 -23 vvcurveto
          -8 8 -5 4 vhcurveto
          11 13 9 11 hhcurveto
          3 3 -1 -1 3 hvcurveto
          -8 -25 5 -26 -4 -29 -2 -8 -4 -8 57 callgsubr
          1 -9 -2 -15 rrcurveto
          -1 -14 -6 -11 -15 -10 1 -10 -10 vvcurveto
          -16 -2 callgsubr
          -13 vhcurveto
          -4 -28 0 -30 -3 -26 -2 -10 -4 -8 -1 -8 rrcurveto
          -20 -3 -11 -118 -6 hhcurveto
          -8 hlineto
          -32 callsubr
          hvcurveto
          -17 -4 -30 2 -16 vvcurveto
          -11 6 -3 10 vhcurveto
          18 29 10 17 4 4 0 3 hhcurveto
          -4 -8 -5 -6 -3 -3 rrcurveto
          -65 callgsubr
          -3 -8 2 -5 -2 -8 rrcurveto
          -4 -3 -1 -5 -77 callsubr
          3 -1 2 -2 1 -5 3 -2 rrcurveto
          7 -8 22 -13 -4 -1 -1 -2 -1 vvcurveto
          -1 1 0 1 vhcurveto
          -37 callgsubr
          1 5 0 30 callgsubr
          5 hvcurveto
          13 callsubr
          endchar
        </CharString>
        <CharString name="Itilde">
          -74 -105 callgsubr
          64 125 rmoveto
          10 -5 6 -6 -2 -2 -1 -70 callsubr
          -14 -22 -20 -32 -9 -1 rrcurveto
          -6 -18 5 1 -3 hvcurveto
          -79 callgsubr
          -1 -2 -2 -1 -3 hhcurveto
          -3 -34 callsubr
          -2 hvcurveto
          -16 8 -16 7 -12 7 rrcurveto
          8 -15 -15 14 -13 hhcurveto
          -14 -1 -5 -8 -8 hvcurveto
          -24 callgsubr
          -1 -4 -3 -79 callgsubr
          -4 -2 -67 callsubr
          -3 -1 -6 -7 -5 -7 -11 -8 rrcurveto
          -15 -12 -10 2 -16 vvcurveto
          -10 3 -4 9 12 -1 10 20 14 vhcurveto
          1 1 5 0 -36 callgsubr
          6 6 -3 12 13 hhcurveto
          10 9 -12 -3 12 hvcurveto
          20 -6 17 -11 14 -9 11 -7 14 -3 8 -5 rrcurveto
          -4 6 -66 callgsubr
          hhcurveto
          17 7 12 2 3 hvcurveto
          2 1 9 11 2 vvcurveto
          10 14 45 28 16 vvcurveto
          endchar
        </CharString>
        <CharString name="J">
          -80 300 67 callgsubr
          -11 -15 -4 -15 hhcurveto
          -13 -6 10 1 -7 hvcurveto
          -5 -3 -6 -1 -3 hvcurveto
          -5 -3 -10 1 -7 -2 rrcurveto
          0 0 -3 -3 -1 vhcurveto
          -13 -3 -63 -11 callsubr
          rrcurveto
          -4 -4 0 -25 0 vvcurveto
          -3 -10 callsubr
          4 hhcurveto
          8 10 3 1 9 hvcurveto
          1 2 -3 4 hhcurveto
          1 hlineto
          -2 2 10 11 6 hhcurveto
          1 1 0 -2 1 hvcurveto
          -1 -24 -6 -24 -4 -25 rrcurveto
          -7 callgsubr
          -1 -4 1 -4 -4 -9 -8 -5 -7 -3 4 -1 -3 -1 -4 -2 -4 vvcurveto
          -2 -35 -9 -18 -31 -8 0 -9 -9 vvcurveto
          -15 -5 -16 -2 -16 vhcurveto
          -3 -20 -1 -24 -3 -11 -3 -11 3 -8 -8 -10 -5 -25 1 -42 -6 -20 -5 -15 1 -19 -4 -10 -5 -12 -3 -22 -3 -6 rrcurveto
          -2 -3 -6 -3 -4 -2 -89 callgsubr
          -4 -6 -2 -1 -4 vhcurveto
          -4 -6 0 -6 -4 -6 -1 -1 -4 -1 -2 -2 -2 61 callsubr
          -4 -7 -9 -11 -8 -7 -8 -10 -11 -7 -8 -9 -7 -8 -6 -10 -3 -7 -5 rrcurveto
          -6 -4 -13 0 -13 vvcurveto
          -3 -1 -2 5 20 20 15 7 11 vhcurveto
          4 2 4 -1 3 3 3 2 1 2 3 2 43 34 28 32 28 37 3 3 1 7 3 -9 callgsubr
          4 -91 callgsubr
          4 7 2 10 4 9 3 5 7 5 1 4 rrcurveto
          4 13 1 17 3 14 rrcurveto
          3 15 8 16 14 -66 callgsubr
          5 18 8 8 19 7 -1 8 8 vvcurveto
          20 9 23 3 22 vhcurveto
          3 23 4 24 22 7 -1 7 7 vvcurveto
          3 0 3 1 3 vhcurveto
          1 10 10 24 13 -5 callgsubr
          vvcurveto
          2 4 6 0 vhcurveto
          5 -4 5 7 vvcurveto
          13 8 21 3 14 vhcurveto
          5 24 2 18 8 6 5 4 18 -3 9 2 rrcurveto
          14 3 8 -1 13 vvcurveto
          endchar
        </CharString>
        <CharString name="Jcircumflex">
          -80 300 67 callgsubr
          -11 -15 -4 -15 hhcurveto
          -13 -6 10 1 -7 hvcurveto
          -5 -3 -6 -1 -3 hvcurveto
          -5 -3 -10 1 -7 -2 rrcurveto
          0 0 -3 -3 -1 vhcurveto
          -13 -3 -63 -11 callsubr
          rrcurveto
          -4 -4 0 -25 0 vvcurveto
          -3 -10 callsubr
          4 hhcurveto
          8 10 3 1 9 hvcurveto
          1 2 -3 4 hhcurveto
          1 hlineto
          -2 2 10 11 6 hhcurveto
          1 1 0 -2 1 hvcurveto
          -1 -24 -6 -24 -4 -25 rrcurveto
          -7 callgsubr
          -1 -4 1 -4 -4 -9 -8 -5 -7 -3 4 -1 -3 -1 -4 -2 -4 vvcurveto
          -2 -35 -9 -18 -31 -8 0 -9 -9 vvcurveto
          -15 -5 -16 -2 -16 vhcurveto
          -3 -20 -1 -24 -3 -11 -3 -11 3 -8 -8 -10 -5 -25 1 -42 -6 -20 -5 -15 1 -19 -4 -10 -5 -12 -3 -22 -3 -6 rrcurveto
          -2 -3 -6 -3 -4 -2 -89 callgsubr
          -4 -6 -2 -1 -4 vhcurveto
          -4 -6 0 -6 -4 -6 -1 -1 -4 -1 -2 -2 -2 61 callsubr
          -4 -7 -9 -11 -8 -7 -8 -10 -11 -7 -8 -9 -7 -8 -6 -10 -3 -7 -5 rrcurveto
          -6 -4 -13 0 -13 vvcurveto
          -3 -1 -2 5 20 20 15 7 11 vhcurveto
          4 2 4 -1 3 3 3 2 1 2 3 2 43 34 28 32 28 37 3 3 1 7 3 -9 callgsubr
          4 -91 callgsubr
          4 7 2 10 4 9 3 5 7 5 1 4 rrcurveto
          4 13 1 17 3 14 rrcurveto
          3 15 8 16 14 -66 callgsubr
          5 18 8 8 19 7 -1 8 8 vvcurveto
          20 9 23 3 22 vhcurveto
          3 23 4 24 22 7 -1 7 7 vvcurveto
          3 0 3 1 3 vhcurveto
          1 10 10 24 13 -5 callgsubr
          vvcurveto
          2 4 6 0 vhcurveto
          5 -4 5 7 vvcurveto
          13 8 21 3 14 vhcurveto
          5 24 2 18 8 6 5 4 18 -3 9 2 rrcurveto
          14 3 8 -1 13 vvcurveto
          5 68 -105 callsubr
        </CharString>
        <CharString name="K">
          219 555 90 rmoveto
          3 -1 -4 0 -4 hhcurveto
          -19 0 -5 -9 -1 hvcurveto
          -9 -25 -7 -5 -21 -21 20 14 -16 vhcurveto
          -13 12 -16 19 -11 10 rrcurveto
          -3 3 -8 -3 6 vvcurveto
          5 vlineto
          3 -1 4 -8 callgsubr
          -4 5 -29 13 11 10 -18 6 6 vvcurveto
          4 -2 -2 -2 2 vhcurveto
          -7 10 -11 16 80 callgsubr
          2 -18 10 -4 6 vhcurveto
          -7 9 -8 18 2 vvcurveto
          12 3 14 21 7 -68 callgsubr
          -81 callgsubr
          2 2 2 0 4 55 callsubr
          5 -2 3 3 6 callgsubr
          7 6 6 19 22 27 19 16 21 8 10 8 5 6 7 rrcurveto
          4 4 0 7 3 4 4 3 7 0 4 4 19 15 13 21 12 15 12 24 24 -9 22 11 rrcurveto
          11 -1 -9 3 -11 -13 -18 -4 -14 -8 -8 1 -8 hhcurveto
          -13 -7 -6 -2 -10 hvcurveto
          -34 -5 -32 3 -20 vvcurveto
          -10 8 -5 5 vhcurveto
          12 9 11 8 hhcurveto
          -13 callgsubr
          -2 2 hvcurveto
          -4 -26 -25 -18 -12 -14 -90 callsubr
          -9 -11 -11 -8 -9 -10 -18 -21 -16 -28 -18 -17 -9 -10 -12 -6 -11 -10 -10 -9 -9 -10 -11 -10 rrcurveto
          -6 -6 -15 -17 -5 hhcurveto
          -79 callgsubr
          1 hvcurveto
          11 36 1 67 10 32 rrcurveto
          2 7 1 7 3 vvcurveto
          6 vlineto
          24 9 65 9 9 vhcurveto
          2 3 4 0 5 hhcurveto
          13 hlineto
          3 3 0 1 2 hvcurveto
          0 -91 callgsubr
          vvcurveto
          3 6 0 3 vhcurveto
          5 hlineto
          3 3 1 4 2 -3 13 -10 hvcurveto
          -2 -7 -4 -2 hhcurveto
          -20 -1 -14 -4 -13 -2 -29 -5 -69 -3 callsubr
          rrcurveto
          -4 -4 -3 -10 -7 vvcurveto
          -13 7 -4 5 vhcurveto
          10 9 10 9 hhcurveto
          3 2 0 -2 2 hvcurveto
          -6 -78 -10 -58 -6 -50 -2 -14 1 -15 -2 -14 rrcurveto
          -4 -17 -8 -13 -10 -59 callgsubr
          vlineto
          -9 -54 -6 -46 -10 -57 rrcurveto
          -30 -5 -2 -40 -12 -4 -6 1 -3 hhcurveto
          -20 -13 -14 -9 -4 3 -5 13 21 38 9 1 5 hvcurveto
          2 hlineto
          2 2 -91 callgsubr
          -10 callgsubr
          hhcurveto
          5 25 32 7 4 5 73 callgsubr
          2 4 1 3 hvcurveto
          1 2 2 0 2 4 3 -1 2 hhcurveto
          3 5 -66 callsubr
          -7 2 -7 hvcurveto
          -9 0 -4 -6 -8 -11 4 -7 hhcurveto
          -2 -1 -1 -2 callsubr
          4 0 3 3 vvcurveto
          21 3 23 5 4 vhcurveto
          3 22 -3 23 3 21 rrcurveto
          4 24 8 17 25 vvcurveto
          11 vlineto
          14 1 13 9 13 vhcurveto
          5 -7 -2 -4 4 -8 4 -6 8 0 3 -4 3 -5 1 -9 3 -5 4 -5 7 -4 4 -5 3 -5 0 -8 4 -5 4 -6 6 -3 5 -6 5 -7 8 -9 5 -6 rrcurveto
          2 -3 -1 -5 2 -3 8 -9 12 -7 10 -10 19 -19 17 -18 18 -17 10 -9 8 -13 8 -7 3 -2 6 -2 6 -3 4 -3 3 -6 3 -2 rrcurveto
          -7 11 11 -5 9 4 5 5 2 -13 callgsubr
          2 hhcurveto
          3 6 13 2 2 hvcurveto
          14 12 20 15 10 13 2 4 -2 4 52 callsubr
          12 14 3 8 vvcurveto
          2 0 -15 callsubr
          endchar
        </CharString>
        <CharString name="Kcommaaccent">
          219 555 90 rmoveto
          3 -1 -4 0 -4 hhcurveto
          -19 0 -5 -9 -1 hvcurveto
          -9 -25 -7 -5 -21 -21 20 14 -16 vhcurveto
          -13 12 -16 19 -11 10 rrcurveto
          -3 3 -8 -3 6 vvcurveto
          5 vlineto
          3 -1 4 -8 callgsubr
          -4 5 -29 13 11 10 -18 6 6 vvcurveto
          4 -2 -2 -2 2 vhcurveto
          -7 10 -11 16 80 callgsubr
          2 -18 10 -4 6 vhcurveto
          -7 9 -8 18 2 vvcurveto
          12 3 14 21 7 -68 callgsubr
          -81 callgsubr
          2 2 2 0 4 55 callsubr
          5 -2 3 3 6 callgsubr
          7 6 6 19 22 27 19 16 21 8 10 8 5 6 7 rrcurveto
          4 4 0 7 3 4 4 3 7 0 4 4 19 15 13 21 12 15 12 24 24 -9 22 11 rrcurveto
          11 -1 -9 3 -11 -13 -18 -4 -14 -8 -8 1 -8 hhcurveto
          -13 -7 -6 -2 -10 hvcurveto
          -34 -5 -32 3 -20 vvcurveto
          -10 8 -5 5 vhcurveto
          12 9 11 8 hhcurveto
          -13 callgsubr
          -2 2 hvcurveto
          -4 -26 -25 -18 -12 -14 -90 callsubr
          -9 -11 -11 -8 -9 -10 -18 -21 -16 -28 -18 -17 -9 -10 -12 -6 -11 -10 -10 -9 -9 -10 -11 -10 rrcurveto
          -6 -6 -15 -17 -5 hhcurveto
          -79 callgsubr
          1 hvcurveto
          11 36 1 67 10 32 rrcurveto
          2 7 1 7 3 vvcurveto
          6 vlineto
          24 9 65 9 9 vhcurveto
          2 3 4 0 5 hhcurveto
          13 hlineto
          3 3 0 1 2 hvcurveto
          0 -91 callgsubr
          vvcurveto
          3 6 0 3 vhcurveto
          5 hlineto
          3 3 1 4 2 -3 13 -10 hvcurveto
          -2 -7 -4 -2 hhcurveto
          -20 -1 -14 -4 -13 -2 -29 -5 -69 -3 callsubr
          rrcurveto
          -4 -4 -3 -10 -7 vvcurveto
          -13 7 -4 5 vhcurveto
          10 9 10 9 hhcurveto
          3 2 0 -2 2 hvcurveto
          -6 -78 -10 -58 -6 -50 -2 -14 1 -15 -2 -14 rrcurveto
          -4 -17 -8 -13 -10 -59 callgsubr
          vlineto
          -9 -54 -6 -46 -10 -57 rrcurveto
          -30 -5 -2 -40 -12 -4 -6 1 -3 hhcurveto
          -20 -13 -14 -9 -4 3 -5 13 21 38 9 1 5 hvcurveto
          2 hlineto
          2 2 -91 callgsubr
          -10 callgsubr
          hhcurveto
          5 25 32 7 4 5 73 callgsubr
          2 4 1 3 hvcurveto
          1 2 2 0 2 4 3 -1 2 hhcurveto
          3 5 -66 callsubr
          -7 2 -7 hvcurveto
          -9 0 -4 -6 -8 -11 4 -7 hhcurveto
          -2 -1 -1 -2 callsubr
          4 0 3 3 vvcurveto
          21 3 23 5 4 vhcurveto
          3 22 -3 23 3 21 rrcurveto
          4 24 8 17 25 vvcurveto
          11 vlineto
          14 1 13 9 13 vhcurveto
          5 -7 -2 -4 4 -8 4 -6 8 0 3 -4 3 -5 1 -9 3 -5 4 -5 7 -4 4 -5 3 -5 0 -8 4 -5 4 -6 6 -3 5 -6 5 -7 8 -9 5 -6 rrcurveto
          2 -3 -1 -5 2 -3 8 -9 12 -7 10 -10 19 -19 17 -18 18 -17 10 -9 8 -13 8 -7 3 -2 6 -2 6 -3 4 -3 3 -6 3 -2 rrcurveto
          -7 11 11 -5 9 4 5 5 2 -13 callgsubr
          2 hhcurveto
          3 6 13 2 2 hvcurveto
          14 12 20 15 10 13 2 4 -2 4 52 callsubr
          12 14 3 8 vvcurveto
          2 0 -15 callsubr
          -240 -202 rmoveto
          7 -4 -74 callgsubr
          -88 callsubr
          1 vhcurveto
          -1 vlineto
          -3 19 -5 13 -1 -72 callgsubr
          2 3 -12 9 1 vvcurveto
          1 hlineto
          -65 callsubr
          -8 -9 -4 0 hvcurveto
          1 hlineto
          -9 -3 -17 -12 -14 vvcurveto
          -6 2 -9 2 -8 vhcurveto
          1 -7 1 -11 2 -7 rrcurveto
          1 -4 callgsubr
          -6 -3 -5 -1 -7 3 -4 -5 vvcurveto
          -2 -5 -7 -2 -4 vhcurveto
          -4 -6 -15 -26 -7 vvcurveto
          -4 11 -76 callgsubr
          10 13 1 2 -91 callgsubr
          0 0 11 callsubr
          -96 callsubr
        </CharString>
        <CharString name="L">
          87 -103 callgsubr
          2 vlineto
          endchar
        </CharString>
        <CharString name="Lacute">
          87 -103 callgsubr
          -107 559 -106 callgsubr
          endchar
        </CharString>
        <CharString name="Lcaron">
          87 -103 callgsubr
          -39 480 72 callsubr
          3 vvcurveto
          1 2 3 1 vhcurveto
          1 hlineto
          -3 18 -5 14 -1 -72 callgsubr
          1 4 -13 8 2 vvcurveto
          1 hlineto
          -49 callgsubr
          -7 -9 -4 -1 hvcurveto
          0 vlineto
          -8 -2 -18 -12 -15 vvcurveto
          -5 3 -10 1 -7 vhcurveto
          2 -8 0 -11 2 -6 rrcurveto
          2 -5 6 -4 -8 -6 12 callgsubr
          -7 4 -3 -6 vvcurveto
          -2 -2 callgsubr
          -4 vhcurveto
          -4 -5 -14 -26 -8 vvcurveto
          -3 10 -76 callgsubr
          11 13 1 1 0 2 2 0 0 11 callsubr
          11 15 6 -7 5 21 callsubr
          endchar
        </CharString>
        <CharString name="Lcommaaccent">
          87 -103 callgsubr
          -190 -218 rmoveto
          7 -4 -74 callgsubr
          -88 callsubr
          1 vhcurveto
          -1 vlineto
          -3 19 -5 13 -1 -72 callgsubr
          2 3 -12 9 1 vvcurveto
          1 hlineto
          -65 callsubr
          -8 -9 -4 0 hvcurveto
          1 hlineto
          -9 -3 -17 -12 -14 vvcurveto
          -6 2 -9 2 -8 vhcurveto
          1 -7 1 -11 2 -7 rrcurveto
          1 -4 callgsubr
          -6 -3 -5 -1 -7 3 -4 -5 vvcurveto
          -2 -5 -7 -2 -4 vhcurveto
          -4 -6 -15 -26 -7 vvcurveto
          -4 11 -76 callgsubr
          10 13 1 2 -91 callgsubr
          0 0 11 callsubr
          -96 callsubr
        </CharString>
        <CharString name="Ldot">
          173 -103 callgsubr
          72 231 rmoveto
          -4 44 callsubr
          1 -3 3 6 -7 hhcurveto
          -4 105 callgsubr
          hvcurveto
          -17 -3 -7 -9 -2 -10 rrcurveto
          -3 -10 -6 -32 -16 vvcurveto
          -4 2 -12 3 -2 vhcurveto
          -3 4 6 45 callgsubr
          25 13 hvcurveto
          3 6 8 3 9 1 0 1 2 vvcurveto
          endchar
        </CharString>
        <CharString name="Lslash">
          87 -98 callgsubr
          8 39 2 24 2 23 16 5 rcurveline
          8 3 3 1 10 15 21 30 29 27 8 31 rrcurveto
          1 -2 -7 callgsubr
          hhcurveto
          -7 -3 -11 -32 -26 -9 -5 -2 -17 -5 -20 -7 3 27 4 26 3 25 4 36 -1 35 4 27 2 9 6 17 3 14 5 18 -2 13 12 10 rrcurveto
          8 6 37 -9 19 vvcurveto
          9 -6 4 -7 vhcurveto
          -15 -8 -7 -5 hhcurveto
          -23 -8 -4 1 -10 -1 rrcurveto
          -38 -6 -64 9 -38 vvcurveto
          -4 6 -1 4 vhcurveto
          6 9 2 7 hhcurveto
          11 2 -7 -16 -15 -3 -21 -2 -20 hvcurveto
          -3 -31 -1 -30 -3 -26 rrcurveto
          -2 -11 -6 -10 0 -2 1 -3 -1 vvcurveto
          -13 -7 -25 -1 -4 vhcurveto
          -2 -7 -1 -8 -6 vvcurveto
          -2 -3 -3 -1 -1 hhcurveto
          -10 -63 callsubr
          -11 -13 -1 -1 -5 -5 -3 -3 rrcurveto
          -9 -12 -26 -39 -11 vvcurveto
          -1 2 -63 callgsubr
          vhcurveto
          8 3 10 26 15 6 4 1 14 4 18 5 rrcurveto
          -13 0 -13 -1 -11 vhcurveto
          -1 -8 -5 -7 -1 -10 -4 -30 4 -29 -8 -25 -61 callgsubr
          -5 -1 -4 -2 -10 -2 2 -3 -7 69 callgsubr
          -3 rrcurveto
          -6 -8 -17 -5 -9 vvcurveto
          -9 9 -3 6 12 18 10 2 11 vhcurveto
          10 1 19 2 0 vvcurveto
          2 0 -3 5 1 2 3 5 hhcurveto
          1 5 17 callgsubr
          hhcurveto
          21 13 -6 -2 20 hvcurveto
          -2 15 18 0 17 hhcurveto
          31 19 1 5 10 hvcurveto
          13 7 15 23 8 10 10 12 14 12 9 8 3 3 -2 -75 callgsubr
          rrcurveto
          8 11 14 7 13 vvcurveto
          2 vlineto
          endchar
        </CharString>
        <CharString name="M">
          390 714 24 rmoveto
          -3 3 -4 4 -4 1 rrcurveto
          -4 -23 -9 -11 hhcurveto
          -6 -12 12 15 hvcurveto
          10 4 9 10 5 -3 10 6 vvcurveto
          29 6 29 1 20 vhcurveto
          3 4 4 0 vhcurveto
          7 -4 13 9 11 4 7 13 8 0 9 9 vvcurveto
          35 9 36 2 36 vhcurveto
          2 41 -2 44 7 28 rrcurveto
          3 13 4 14 11 vvcurveto
          13 -5 10 -16 -4 -85 callsubr
          -6 vhcurveto
          -7 -2 -18 -22 -9 vvcurveto
          -1 -4 -2 2 -1 -11 callsubr
          0 -7 -3 -5 -4 -5 -7 -2 -4 -4 32 callsubr
          -7 -12 -6 -5 -5 -5 -15 -18 -2 -9 -16 -24 -8 -12 -15 -14 -2 -10 rrcurveto
          -3 -10 -9 -7 -3 -5 -2 -62 callgsubr
          -2 -70 callgsubr
          -7 -6 -4 -6 -5 -7 0 -2 -2 -6 rrcurveto
          -1 -1 -6 -1 -1 vvcurveto
          -6 -11 0 -13 -6 -9 rrcurveto
          -1 -6 -2 -1 -1 vhcurveto
          -3 -3 2 -4 -2 -4 -2 -2 -4 0 -45 callsubr
          -2 2 -32 callsubr
          -5 -22 callsubr
          -1 -3 -8 -11 -6 -10 -1 -1 rrcurveto
          -17 -11 -17 -37 -11 hhcurveto
          -13 3 21 8 -2 hvcurveto
          1 -6 4 -80 callgsubr
          -5 15 -2 19 -4 14 rrcurveto
          -5 8 -6 10 5 vvcurveto
          5 vlineto
          -6 21 -12 18 -4 13 -2 5 0 8 -1 5 -3 7 -3 5 -2 6 -6 18 -3 33 -9 7 rrcurveto
          -1 -63 callgsubr
          hvcurveto
          1 1 3 1 vvcurveto
          2 -7 4 -80 callgsubr
          -4 14 2 15 -5 15 rrcurveto
          1 -6 7 -64 callgsubr
          -5 10 0 9 -2 6 rrcurveto
          -4 13 -2 4 17 8 0 8 7 vvcurveto
          16 2 0 -13 vhcurveto
          -4 -4 0 -1 hhcurveto
          -21 -14 -23 -19 -3 -5 4 -4 -2 vvcurveto
          -7 -6 -12 -1 -7 vhcurveto
          -2 -15 0 -18 -2 -14 rrcurveto
          -1 -12 -6 -12 -13 vvcurveto
          -1 -27 -12 -25 -2 -24 -1 -30 -12 -28 -5 -34 -2 -13 1 -15 -3 -15 rrcurveto
          -1 -9 -6 -6 -2 -89 callsubr
          -3 vvcurveto
          -2 vlineto
          -5 -18 -10 -24 -4 -12 rrcurveto
          -2 -89 callgsubr
          0 0 -1 -1 -1 vhcurveto
          -4 -23 -10 -18 -7 -21 rrcurveto
          -1 0 -1 -1 -3 0 -3 -3 vvcurveto
          -2 -6 -20 -16 -9 vhcurveto
          -15 -9 -32 12 -22 vvcurveto
          -10 6 -4 9 12 15 6 1 9 vhcurveto
          15 2 24 2 8 3 20 9 23 -3 23 5 rrcurveto
          -81 callsubr
          3 5 hhcurveto
          15 1 3 -1 4 15 rrcurveto
          6 -7 -8 1 -8 -16 -18 -7 -16 hhcurveto
          2 17 -1 17 3 16 2 18 6 14 2 16 4 20 0 18 4 20 rrcurveto
          1 3 2 4 hvcurveto
          -91 callsubr
          2 23 6 10 15 17 callgsubr
          6 vvcurveto
          -1 10 7 10 1 11 2 18 -2 14 4 8 5 13 0 66 13 1 rrcurveto
          -2 12 -18 -3 1 hvcurveto
          2 -6 0 -6 1 -3 8 -24 11 -29 3 -13 5 -16 2 -13 4 -11 rrcurveto
          2 -4 6 -6 -4 -2 -1 -4 -3 vvcurveto
          -4 5 -3 3 -6 vhcurveto
          5 -14 10 -30 3 -11 rrcurveto
          -1 0 -78 callsubr
          -5 3 1 1 -2 vhcurveto
          5 -9 -1 -13 3 -11 1 -1 2 1 1 -3 rrcurveto
          6 -22 5 -10 -6 vvcurveto
          -6 vlineto
          5 -20 6 -14 7 -14 rrcurveto
          0 0 -1 -1 -1 -33 callsubr
          -11 15 -5 0 vhcurveto
          4 6 4 8 1 3 -3 5 hhcurveto
          26 -1 31 27 9 hvcurveto
          17 48 34 79 33 55 15 25 7 9 7 14 8 13 11 19 7 8 rrcurveto
          6 6 12 19 1 1 0 3 1 1 0 11 callsubr
          9 14 9 19 19 6 rrcurveto
          1 -16 0 -21 -22 vvcurveto
          -55 -2 -67 -3 -59 vhcurveto
          -49 -3 7 -105 -34 11 callgsubr
          -4 hhcurveto
          -21 -13 -6 -16 -7 7 -4 8 hvcurveto
          1 8 25 10 20 6 7 -6 8 hhcurveto
          12 8 8 5 12 hvcurveto
          9 4 12 5 12 2 rrcurveto
          23 5 32 -6 11 104 callsubr
          -3 3 vhcurveto
          endchar
        </CharString>
        <CharString name="N">
          -107 callsubr
          rrcurveto
          -18 13 23 -41 11 hhcurveto
          27 7 88 25 7 hvcurveto
          -99 callgsubr
          endchar
        </CharString>
        <CharString name="Nacute">
          -107 callsubr
          rrcurveto
          -18 13 23 -41 11 hhcurveto
          27 7 88 25 7 hvcurveto
          -99 callgsubr
          -152 89 -106 callgsubr
          endchar
        </CharString>
        <CharString name="Ncaron">
          -107 callsubr
          rrcurveto
          -18 13 23 -41 11 hhcurveto
          27 7 88 25 7 hvcurveto
          -99 callgsubr
          -160 128 -104 callsubr
        </CharString>
        <CharString name="Ncommaaccent">
          -107 callsubr
          rrcurveto
          -18 13 23 -41 11 hhcurveto
          27 7 88 25 7 hvcurveto
          -99 callgsubr
          -306 -658 rmoveto
          7 -4 -74 callgsubr
          -88 callsubr
          1 vhcurveto
          -1 vlineto
          -3 19 -5 13 -1 -72 callgsubr
          2 3 -12 9 1 vvcurveto
          1 hlineto
          -65 callsubr
          -8 -9 -4 0 hvcurveto
          1 hlineto
          -9 -3 -17 -12 -14 vvcurveto
          -6 2 -9 2 -8 vhcurveto
          1 -7 1 -11 2 -7 rrcurveto
          1 -4 callgsubr
          -6 -3 -5 -1 -7 3 -4 -5 vvcurveto
          -2 -5 -7 -2 -4 vhcurveto
          -4 -6 -15 -26 -7 vvcurveto
          -4 11 -76 callgsubr
          10 13 1 2 -91 callgsubr
          0 0 11 callsubr
          -96 callsubr
        </CharString>
        <CharString name="Ntilde">
          -107 callsubr
          rrcurveto
          -18 13 23 -41 11 hhcurveto
          27 7 88 25 7 hvcurveto
          -99 callgsubr
          -104 127 rmoveto
          10 -5 6 -6 -2 -2 -1 -70 callsubr
          -14 -22 -20 -32 -9 -1 rrcurveto
          -6 -18 5 1 -3 hvcurveto
          -79 callgsubr
          -1 -2 -2 -1 -3 hhcurveto
          -3 -34 callsubr
          -2 hvcurveto
          -16 8 -16 7 -12 7 rrcurveto
          8 -15 -15 14 -13 hhcurveto
          -14 -1 -5 -8 -8 hvcurveto
          -24 callgsubr
          -1 -4 -3 -79 callgsubr
          -4 -2 -67 callsubr
          -3 -1 -6 -7 -5 -7 -11 -8 rrcurveto
          -15 -12 -10 2 -16 vvcurveto
          -10 3 -4 9 12 -1 10 20 14 vhcurveto
          1 1 5 0 -36 callgsubr
          6 6 -3 12 13 hhcurveto
          10 9 -12 -3 12 hvcurveto
          20 -6 17 -11 14 -9 11 -7 14 -3 8 -5 rrcurveto
          -4 6 -66 callgsubr
          hhcurveto
          17 7 12 2 3 hvcurveto
          2 1 9 11 2 vvcurveto
          10 14 45 28 16 vvcurveto
          endchar
        </CharString>
        <CharString name="O">
          200 537 291 rmoveto
          1 12 1 15 14 vvcurveto
          26 -2 26 -4 16 vhcurveto
          -1 5 -5 62 callgsubr
          5 0 8 -2 5 -3 10 -4 11 -4 8 rrcurveto
          -3 8 -8 9 5 vvcurveto
          4 -2 -2 -80 callgsubr
          -8 17 -3 26 -15 1 rrcurveto
          -7 -1 8 3 -3 hvcurveto
          -10 8 -8 5 -11 5 -15 5 -29 2 -11 3 rrcurveto
          2 -6 -9 1 -9 hhcurveto
          -12 -12 -1 -2 -6 hvcurveto
          -47 callgsubr
          0 hvcurveto
          -25 -6 -33 -27 0 vvcurveto
          -39 -27 -27 -20 -26 -29 -7 -9 -10 -8 -4 -5 -2 -90 callgsubr
          -3 -3 58 callgsubr
          -1 -2 -3 -3 1 -5 -2 2 callgsubr
          -29 callsubr
          -3 -3 1 -7 callsubr
          rrcurveto
          -2 -2 -4 -3 -2 -2 -80 callsubr
          -2 -4 rrcurveto
          -2 -4 -5 -78 callsubr
          -5 -9 1 -14 -4 -13 -6 -22 -3 -11 -2 -26 rrcurveto
          -1 -19 -3 -17 -16 vvcurveto
          -22 2 -15 6 -13 vhcurveto
          8 -18 7 -36 7 -11 4 -7 10 -5 8 -10 3 -62 callgsubr
          3 -8 callsubr
          5 0 17 callsubr
          -4 -2 -4 3 -4 3 -2 87 callsubr
          9 -6 7 -9 9 -7 rrcurveto
          20 -16 20 5 11 -11 rrcurveto
          -1 7 -28 callsubr
          hhcurveto
          21 16 6 7 12 hvcurveto
          4 55 callsubr
          2 8 6 11 -3 6 47 callsubr
          2 9 4 -81 callsubr
          1 4 0 8 2 -13 callgsubr
          1 4 -2 7 4 hhcurveto
          2 3 6 -91 callgsubr
          13 8 6 10 10 8 4 2 -81 callgsubr
          2 rrcurveto
          3 2 2 8 4 -81 callsubr
          2 hhcurveto
          3 20 callsubr
          hvcurveto
          6 5 9 5 3 4 2 3 20 callsubr
          4 6 10 3 15 callgsubr
          3 0 -75 callgsubr
          10 16 19 callsubr
          3 23 40 13 37 4 40 rrcurveto
          -58 54 -85 callgsubr
          -8 5 -16 4 -6 6 -2 2 2 7 -3 1 -1 3 callgsubr
          -1 2 50 callsubr
          -2 3 -1 3 callgsubr
          -1 2 rrcurveto
          -3 4 -1 9 -3 5 -4 6 -6 0 -2 -81 callgsubr
          0 8 -2 7 rrcurveto
          -4 10 -2 2 9 vvcurveto
          9 vlineto
          6 0 5 -1 7 vhcurveto
          -1 7 -6 7 -1 7 rrcurveto
          3 6 -48 callsubr
          vvcurveto
          9 -3 3 -1 14 vhcurveto
          5 vlineto
          56 callsubr
          vvcurveto
          9 2 19 2 14 vhcurveto
          2 19 1 20 4 12 5 13 11 16 10 22 -81 callsubr
          5 2 3 callsubr
          7 -32 callgsubr
          2 4 -2 4 3 3 48 callsubr
          7 5 4 -72 callgsubr
          2 2 rrcurveto
          9 7 13 7 15 8 7 4 17 1 16 2 rrcurveto
          4 11 1 7 21 25 -6 -9 12 vhcurveto
          4 -3 2 -8 6 -4 5 -5 8 1 5 -3 rrcurveto
          8 -7 10 -11 -2 -2 0 -3 -2 70 callgsubr
          7 -14 19 -12 7 -32 2 -9 11 -19 2 -16 rrcurveto
          endchar
        </CharString>
        <CharString name="OE">
          436 764 129 rmoveto
          70 callsubr
          -6 hvcurveto
          -25 -26 -6 -6 -4 -8 -5 -4 rlinecurve
          -24 callgsubr
          2 -63 callsubr
          -3 -9 -12 -2 -3 rrcurveto
          -6 -12 -14 1 -15 -28 -22 3 -7 98 callsubr
          -8 callsubr
          hhcurveto
          -6 -10 -8 0 hvcurveto
          -4 -16 -7 -3 -9 46 callsubr
          17 32 4 7 4 38 6 48 3 18 2 21 59 callgsubr
          17 7 3 -1 4 5 vvcurveto
          15 3 13 16 vhcurveto
          12 18 -6 14 hhcurveto
          -1 13 15 -1 12 hhcurveto
          29 -2 13 18 24 hvcurveto
          6 -73 callsubr
          1 77 callgsubr
          3 7 -2 3 3 2 1 1 8 -36 callgsubr
          5 6 8 7 7 vvcurveto
          2 -1 2 -1 -93 callsubr
          -2 -5 -6 1 -7 -13 -10 -4 -9 hhcurveto
          -21 -49 4 6 hvcurveto
          5 5 6 1 8 -4 7 34 callsubr
          6 vvcurveto
          7 vlineto
          1 23 6 21 9 vvcurveto
          6 vlineto
          73 5 15 6 41 23 24 -3 12 5 16 4 8 hhcurveto
          10 2 -13 -11 hvcurveto
          -19 -7 -16 -13 vvcurveto
          16 callgsubr
          6 9 0 20 5 3 vhcurveto
          2 -46 callsubr
          4 3 4 1 8 3 -87 callsubr
          -5 7 -13 vhcurveto
          -15 -3 -9 -12 -5 -62 callgsubr
          -10 4 -4 -3 -5 4 4 -8 -22 -15 -8 -20 -6 -7 1 -6 16 callsubr
          -6 -2 -15 hvcurveto
          -25 -2 -25 0 -24 -2 -11 -1 -14 1 -12 -1 rrcurveto
          -1 hlineto
          -7 -1 8 3 -3 hvcurveto
          -10 8 -8 5 -11 5 -15 5 -29 2 -11 3 rrcurveto
          2 -6 -9 1 -9 hhcurveto
          -12 -12 -1 -2 -6 hvcurveto
          -47 callgsubr
          0 hvcurveto
          -25 -6 -33 -27 0 vvcurveto
          -39 -27 -27 -20 -26 -29 -7 -9 -10 -8 -4 -5 -2 -90 callgsubr
          -3 -3 58 callgsubr
          -1 -2 -3 -3 1 -5 -2 2 callgsubr
          -29 callsubr
          -3 -3 1 -7 callsubr
          rrcurveto
          -2 -2 -4 -3 -2 -2 -80 callsubr
          -2 -4 rrcurveto
          -2 -4 -5 -78 callsubr
          -5 -9 1 -14 -4 -13 -6 -22 -3 -11 -2 -26 rrcurveto
          -1 -19 -3 -17 -16 vvcurveto
          -22 2 -15 6 -13 vhcurveto
          8 -18 7 -36 7 -11 4 -7 10 -5 8 -10 3 -62 callgsubr
          3 -8 callsubr
          5 0 17 callsubr
          -4 -2 -4 3 -4 3 -2 87 callsubr
          9 -6 7 -9 9 -7 rrcurveto
          20 -16 20 5 11 -11 rrcurveto
          -1 7 -28 callsubr
          hhcurveto
          21 16 6 7 12 hvcurveto
          4 55 callsubr
          2 8 6 11 -3 6 47 callsubr
          2 9 4 -81 callsubr
          1 4 0 8 2 -13 callgsubr
          1 4 -2 7 4 hhcurveto
          2 3 6 -91 callgsubr
          13 8 6 10 10 8 4 2 -81 callgsubr
          2 rrcurveto
          3 2 2 8 4 -81 callsubr
          2 hhcurveto
          3 20 callsubr
          hvcurveto
          6 5 9 5 3 4 2 3 20 callsubr
          1 1 0 2 2 1 rrcurveto
          -32 1 -34 -10 -9 vhcurveto
          0 0 8 callsubr
          -45 callsubr
          -7 -3 -2 vvcurveto
          -2 -26 callsubr
          -3 vvcurveto
          -4 vlineto
          -17 -40 8 -15 vvcurveto
          -9 8 1 5 21 16 11 2 25 vhcurveto
          13 14 -4 17 7 11 4 12 13 15 -1 13 hhcurveto
          6 5 0 1 5 hvcurveto
          38 3 51 -8 2 30 -96 callgsubr
          -290 216 -58 callgsubr
          -9 0 -9 -1 -9 vhcurveto
          -45 callsubr
          0 -3 -1 7 callsubr
          0 -7 -3 -1 -89 callsubr
          hhcurveto
          -2 -3 callsubr
          -3 hvcurveto
          -15 -12 -26 -9 -16 vvcurveto
          -3 0 -4 4 14 24 24 1 13 vhcurveto
          -1 -9 1 -9 -2 -9 -4 -18 -2 -7 -8 -15 -5 -8 -47 callgsubr
          -13 -5 -17 -20 -20 -12 -17 rrcurveto
          -7 -4 -19 -30 -7 -1 -2 1 -2 hhcurveto
          113 callgsubr
          vvcurveto
          -10 -9 -42 -18 -24 hhcurveto
          -12 -10 3 10 -16 hvcurveto
          -3 2 -4 0 -4 2 -3 2 -1 7 -3 2 -8 5 -16 4 -6 6 -2 2 2 7 -3 1 -1 3 callgsubr
          -1 2 50 callsubr
          -2 3 -1 3 callgsubr
          -1 2 rrcurveto
          -3 4 -1 9 -3 5 -4 6 -6 0 -2 -81 callgsubr
          0 8 -2 7 rrcurveto
          -4 10 -2 2 9 vvcurveto
          9 vlineto
          6 0 5 -1 7 vhcurveto
          -1 7 -6 7 -1 7 rrcurveto
          3 6 -48 callsubr
          vvcurveto
          9 -3 3 -1 14 vhcurveto
          5 vlineto
          56 callsubr
          vvcurveto
          9 2 19 2 14 vhcurveto
          2 19 1 20 4 12 5 13 11 16 10 22 -81 callsubr
          5 2 3 callsubr
          7 -32 callgsubr
          2 4 -2 4 3 3 48 callsubr
          7 5 4 -72 callgsubr
          2 2 rrcurveto
          9 7 13 7 15 8 7 4 17 1 16 2 rrcurveto
          4 11 1 7 21 25 -6 -9 12 vhcurveto
          4 -3 2 -8 6 -4 5 -5 8 1 5 -3 rrcurveto
          8 -7 10 -11 -2 -2 0 -3 -2 70 callgsubr
          7 -14 19 -12 7 -32 2 -9 11 -19 2 -16 rrcurveto
          18 139 rmoveto
          -3 6 -3 8 -2 7 rrcurveto
          7 -1 7 -4 -10 vvcurveto
          -5 -1 -5 -1 -5 vhcurveto
          -91 callsubr
          4 -2 -2 -80 callgsubr
          endchar
        </CharString>
        <CharString name="Oacute">
          200 537 291 rmoveto
          1 12 1 15 14 vvcurveto
          26 -2 26 -4 16 vhcurveto
          -1 5 -5 62 callgsubr
          5 0 8 -2 5 -3 10 -4 11 -4 8 rrcurveto
          -3 8 -8 9 5 vvcurveto
          4 -2 -2 -80 callgsubr
          -8 17 -3 26 -15 1 rrcurveto
          -7 -1 8 3 -3 hvcurveto
          -10 8 -8 5 -11 5 -15 5 -29 2 -11 3 rrcurveto
          2 -6 -9 1 -9 hhcurveto
          -12 -12 -1 -2 -6 hvcurveto
          -47 callgsubr
          0 hvcurveto
          -25 -6 -33 -27 0 vvcurveto
          -39 -27 -27 -20 -26 -29 -7 -9 -10 -8 -4 -5 -2 -90 callgsubr
          -3 -3 58 callgsubr
          -1 -2 -3 -3 1 -5 -2 2 callgsubr
          -29 callsubr
          -3 -3 1 -7 callsubr
          rrcurveto
          -2 -2 -4 -3 -2 -2 -80 callsubr
          -2 -4 rrcurveto
          -2 -4 -5 -78 callsubr
          -5 -9 1 -14 -4 -13 -6 -22 -3 -11 -2 -26 rrcurveto
          -1 -19 -3 -17 -16 vvcurveto
          -22 2 -15 6 -13 vhcurveto
          8 -18 7 -36 7 -11 4 -7 10 -5 8 -10 3 -62 callgsubr
          3 -8 callsubr
          5 0 17 callsubr
          -4 -2 -4 3 -4 3 -2 87 callsubr
          9 -6 7 -9 9 -7 rrcurveto
          20 -16 20 5 11 -11 rrcurveto
          -1 7 -28 callsubr
          hhcurveto
          21 16 6 7 12 hvcurveto
          4 55 callsubr
          2 8 6 11 -3 6 47 callsubr
          2 9 4 -81 callsubr
          1 4 0 8 2 -13 callgsubr
          1 4 -2 7 4 hhcurveto
          2 3 6 -91 callgsubr
          13 8 6 10 10 8 4 2 -81 callgsubr
          2 rrcurveto
          3 2 2 8 4 -81 callsubr
          2 hhcurveto
          3 20 callsubr
          hvcurveto
          6 5 9 5 3 4 2 3 20 callsubr
          4 6 10 3 15 callgsubr
          3 0 -75 callgsubr
          10 16 19 callsubr
          3 23 40 13 37 4 40 rrcurveto
          -58 54 -85 callgsubr
          -8 5 -16 4 -6 6 -2 2 2 7 -3 1 -1 3 callgsubr
          -1 2 50 callsubr
          -2 3 -1 3 callgsubr
          -1 2 rrcurveto
          -3 4 -1 9 -3 5 -4 6 -6 0 -2 -81 callgsubr
          0 8 -2 7 rrcurveto
          -4 10 -2 2 9 vvcurveto
          9 vlineto
          6 0 5 -1 7 vhcurveto
          -1 7 -6 7 -1 7 rrcurveto
          3 6 -48 callsubr
          vvcurveto
          9 -3 3 -1 14 vhcurveto
          5 vlineto
          56 callsubr
          vvcurveto
          9 2 19 2 14 vhcurveto
          2 19 1 20 4 12 5 13 11 16 10 22 -81 callsubr
          5 2 3 callsubr
          7 -32 callgsubr
          2 4 -2 4 3 3 48 callsubr
          7 5 4 -72 callgsubr
          2 2 rrcurveto
          9 7 13 7 15 8 7 4 17 1 16 2 rrcurveto
          4 11 1 7 21 25 -6 -9 12 vhcurveto
          4 -3 2 -8 6 -4 5 -5 8 1 5 -3 rrcurveto
          8 -7 10 -11 -2 -2 0 -3 -2 70 callgsubr
          7 -14 19 -12 7 -32 2 -9 11 -19 2 -16 rrcurveto
          -4 346 -106 callgsubr
          endchar
        </CharString>
        <CharString name="Obreve">
          200 537 291 rmoveto
          1 12 1 15 14 vvcurveto
          26 -2 26 -4 16 vhcurveto
          -1 5 -5 62 callgsubr
          5 0 8 -2 5 -3 10 -4 11 -4 8 rrcurveto
          -3 8 -8 9 5 vvcurveto
          4 -2 -2 -80 callgsubr
          -8 17 -3 26 -15 1 rrcurveto
          -7 -1 8 3 -3 hvcurveto
          -10 8 -8 5 -11 5 -15 5 -29 2 -11 3 rrcurveto
          2 -6 -9 1 -9 hhcurveto
          -12 -12 -1 -2 -6 hvcurveto
          -47 callgsubr
          0 hvcurveto
          -25 -6 -33 -27 0 vvcurveto
          -39 -27 -27 -20 -26 -29 -7 -9 -10 -8 -4 -5 -2 -90 callgsubr
          -3 -3 58 callgsubr
          -1 -2 -3 -3 1 -5 -2 2 callgsubr
          -29 callsubr
          -3 -3 1 -7 callsubr
          rrcurveto
          -2 -2 -4 -3 -2 -2 -80 callsubr
          -2 -4 rrcurveto
          -2 -4 -5 -78 callsubr
          -5 -9 1 -14 -4 -13 -6 -22 -3 -11 -2 -26 rrcurveto
          -1 -19 -3 -17 -16 vvcurveto
          -22 2 -15 6 -13 vhcurveto
          8 -18 7 -36 7 -11 4 -7 10 -5 8 -10 3 -62 callgsubr
          3 -8 callsubr
          5 0 17 callsubr
          -4 -2 -4 3 -4 3 -2 87 callsubr
          9 -6 7 -9 9 -7 rrcurveto
          20 -16 20 5 11 -11 rrcurveto
          -1 7 -28 callsubr
          hhcurveto
          21 16 6 7 12 hvcurveto
          4 55 callsubr
          2 8 6 11 -3 6 47 callsubr
          2 9 4 -81 callsubr
          1 4 0 8 2 -13 callgsubr
          1 4 -2 7 4 hhcurveto
          2 3 6 -91 callgsubr
          13 8 6 10 10 8 4 2 -81 callgsubr
          2 rrcurveto
          3 2 2 8 4 -81 callsubr
          2 hhcurveto
          3 20 callsubr
          hvcurveto
          6 5 9 5 3 4 2 3 20 callsubr
          4 6 10 3 15 callgsubr
          3 0 -75 callgsubr
          10 16 19 callsubr
          3 23 40 13 37 4 40 rrcurveto
          -58 54 -85 callgsubr
          -8 5 -16 4 -6 6 -2 2 2 7 -3 1 -1 3 callgsubr
          -1 2 50 callsubr
          -2 3 -1 3 callgsubr
          -1 2 rrcurveto
          -3 4 -1 9 -3 5 -4 6 -6 0 -2 -81 callgsubr
          0 8 -2 7 rrcurveto
          -4 10 -2 2 9 vvcurveto
          9 vlineto
          6 0 5 -1 7 vhcurveto
          -1 7 -6 7 -1 7 rrcurveto
          3 6 -48 callsubr
          vvcurveto
          9 -3 3 -1 14 vhcurveto
          5 vlineto
          56 callsubr
          vvcurveto
          9 2 19 2 14 vhcurveto
          2 19 1 20 4 12 5 13 11 16 10 22 -81 callsubr
          5 2 3 callsubr
          7 -32 callgsubr
          2 4 -2 4 3 3 48 callsubr
          7 5 4 -72 callgsubr
          2 2 rrcurveto
          9 7 13 7 15 8 7 4 17 1 16 2 rrcurveto
          4 11 1 7 21 25 -6 -9 12 vhcurveto
          4 -3 2 -8 6 -4 5 -5 8 1 5 -3 rrcurveto
          8 -7 10 -11 -2 -2 0 -3 -2 70 callgsubr
          7 -14 19 -12 7 -32 2 -9 11 -19 2 -16 rrcurveto
          -36 345 rmoveto
          -3 -1 2 -3 hhcurveto
          -5 -11 -23 12 callsubr
          -75 callsubr
          -1 -83 callgsubr
          -2 -7 -3 -2 -1 vhcurveto
          14 callsubr
          -2 rrcurveto
          -7 -10 -38 callsubr
          -3 -4 1 -5 49 callsubr
          hhcurveto
          -6 1 5 1 -1 callgsubr
          2 -3 -1 -4 2 rrcurveto
          11 -16 -12 33 -6 hhcurveto
          -7 -10 -7 -5 -7 hvcurveto
          -13 -8 -7 -5 -8 vvcurveto
          -5 6 -12 5 -3 vhcurveto
          2 -2 -1 -1 2 -3 4 -6 0 callsubr
          -3 7 -5 7 -11 4 5 callgsubr
          11 20 -3 8 hhcurveto
          9 21 -12 callsubr
          hvcurveto
          3 2 1 5 7 6 callgsubr
          9 20 callgsubr
          1 1 0 5 callsubr
          rrcurveto
          5 7 6 3 2 vvcurveto
          3 -34 callgsubr
          -34 callsubr
          1 4 3 -36 callgsubr
          -31 callgsubr
          9 9 -56 callgsubr
        </CharString>
        <CharString name="Ocircumflex">
          200 537 291 rmoveto
          1 12 1 15 14 vvcurveto
          26 -2 26 -4 16 vhcurveto
          -1 5 -5 62 callgsubr
          5 0 8 -2 5 -3 10 -4 11 -4 8 rrcurveto
          -3 8 -8 9 5 vvcurveto
          4 -2 -2 -80 callgsubr
          -8 17 -3 26 -15 1 rrcurveto
          -7 -1 8 3 -3 hvcurveto
          -10 8 -8 5 -11 5 -15 5 -29 2 -11 3 rrcurveto
          2 -6 -9 1 -9 hhcurveto
          -12 -12 -1 -2 -6 hvcurveto
          -47 callgsubr
          0 hvcurveto
          -25 -6 -33 -27 0 vvcurveto
          -39 -27 -27 -20 -26 -29 -7 -9 -10 -8 -4 -5 -2 -90 callgsubr
          -3 -3 58 callgsubr
          -1 -2 -3 -3 1 -5 -2 2 callgsubr
          -29 callsubr
          -3 -3 1 -7 callsubr
          rrcurveto
          -2 -2 -4 -3 -2 -2 -80 callsubr
          -2 -4 rrcurveto
          -2 -4 -5 -78 callsubr
          -5 -9 1 -14 -4 -13 -6 -22 -3 -11 -2 -26 rrcurveto
          -1 -19 -3 -17 -16 vvcurveto
          -22 2 -15 6 -13 vhcurveto
          8 -18 7 -36 7 -11 4 -7 10 -5 8 -10 3 -62 callgsubr
          3 -8 callsubr
          5 0 17 callsubr
          -4 -2 -4 3 -4 3 -2 87 callsubr
          9 -6 7 -9 9 -7 rrcurveto
          20 -16 20 5 11 -11 rrcurveto
          -1 7 -28 callsubr
          hhcurveto
          21 16 6 7 12 hvcurveto
          4 55 callsubr
          2 8 6 11 -3 6 47 callsubr
          2 9 4 -81 callsubr
          1 4 0 8 2 -13 callgsubr
          1 4 -2 7 4 hhcurveto
          2 3 6 -91 callgsubr
          13 8 6 10 10 8 4 2 -81 callgsubr
          2 rrcurveto
          3 2 2 8 4 -81 callsubr
          2 hhcurveto
          3 20 callsubr
          hvcurveto
          6 5 9 5 3 4 2 3 20 callsubr
          4 6 10 3 15 callgsubr
          3 0 -75 callgsubr
          10 16 19 callsubr
          3 23 40 13 37 4 40 rrcurveto
          -58 54 -85 callgsubr
          -8 5 -16 4 -6 6 -2 2 2 7 -3 1 -1 3 callgsubr
          -1 2 50 callsubr
          -2 3 -1 3 callgsubr
          -1 2 rrcurveto
          -3 4 -1 9 -3 5 -4 6 -6 0 -2 -81 callgsubr
          0 8 -2 7 rrcurveto
          -4 10 -2 2 9 vvcurveto
          9 vlineto
          6 0 5 -1 7 vhcurveto
          -1 7 -6 7 -1 7 rrcurveto
          3 6 -48 callsubr
          vvcurveto
          9 -3 3 -1 14 vhcurveto
          5 vlineto
          56 callsubr
          vvcurveto
          9 2 19 2 14 vhcurveto
          2 19 1 20 4 12 5 13 11 16 10 22 -81 callsubr
          5 2 3 callsubr
          7 -32 callgsubr
          2 4 -2 4 3 3 48 callsubr
          7 5 4 -72 callgsubr
          2 2 rrcurveto
          9 7 13 7 15 8 7 4 17 1 16 2 rrcurveto
          4 11 1 7 21 25 -6 -9 12 vhcurveto
          4 -3 2 -8 6 -4 5 -5 8 1 5 -3 rrcurveto
          8 -7 10 -11 -2 -2 0 -3 -2 70 callgsubr
          7 -14 19 -12 7 -32 2 -9 11 -19 2 -16 rrcurveto
          -26 277 -105 callsubr
        </CharString>
        <CharString name="Odieresis">
          200 537 291 rmoveto
          1 12 1 15 14 vvcurveto
          26 -2 26 -4 16 vhcurveto
          -1 5 -5 62 callgsubr
          5 0 8 -2 5 -3 10 -4 11 -4 8 rrcurveto
          -3 8 -8 9 5 vvcurveto
          4 -2 -2 -80 callgsubr
          -8 17 -3 26 -15 1 rrcurveto
          -7 -1 8 3 -3 hvcurveto
          -10 8 -8 5 -11 5 -15 5 -29 2 -11 3 rrcurveto
          2 -6 -9 1 -9 hhcurveto
          -12 -12 -1 -2 -6 hvcurveto
          -47 callgsubr
          0 hvcurveto
          -25 -6 -33 -27 0 vvcurveto
          -39 -27 -27 -20 -26 -29 -7 -9 -10 -8 -4 -5 -2 -90 callgsubr
          -3 -3 58 callgsubr
          -1 -2 -3 -3 1 -5 -2 2 callgsubr
          -29 callsubr
          -3 -3 1 -7 callsubr
          rrcurveto
          -2 -2 -4 -3 -2 -2 -80 callsubr
          -2 -4 rrcurveto
          -2 -4 -5 -78 callsubr
          -5 -9 1 -14 -4 -13 -6 -22 -3 -11 -2 -26 rrcurveto
          -1 -19 -3 -17 -16 vvcurveto
          -22 2 -15 6 -13 vhcurveto
          8 -18 7 -36 7 -11 4 -7 10 -5 8 -10 3 -62 callgsubr
          3 -8 callsubr
          5 0 17 callsubr
          -4 -2 -4 3 -4 3 -2 87 callsubr
          9 -6 7 -9 9 -7 rrcurveto
          20 -16 20 5 11 -11 rrcurveto
          -1 7 -28 callsubr
          hhcurveto
          21 16 6 7 12 hvcurveto
          4 55 callsubr
          2 8 6 11 -3 6 47 callsubr
          2 9 4 -81 callsubr
          1 4 0 8 2 -13 callgsubr
          1 4 -2 7 4 hhcurveto
          2 3 6 -91 callgsubr
          13 8 6 10 10 8 4 2 -81 callgsubr
          2 rrcurveto
          3 2 2 8 4 -81 callsubr
          2 hhcurveto
          3 20 callsubr
          hvcurveto
          6 5 9 5 3 4 2 3 20 callsubr
          4 6 10 3 15 callgsubr
          3 0 -75 callgsubr
          10 16 19 callsubr
          3 23 40 13 37 4 40 rrcurveto
          -58 54 -85 callgsubr
          -8 5 -16 4 -6 6 -2 2 2 7 -3 1 -1 3 callgsubr
          -1 2 50 callsubr
          -2 3 -1 3 callgsubr
          -1 2 rrcurveto
          -3 4 -1 9 -3 5 -4 6 -6 0 -2 -81 callgsubr
          0 8 -2 7 rrcurveto
          -4 10 -2 2 9 vvcurveto
          9 vlineto
          6 0 5 -1 7 vhcurveto
          -1 7 -6 7 -1 7 rrcurveto
          3 6 -48 callsubr
          vvcurveto
          9 -3 3 -1 14 vhcurveto
          5 vlineto
          56 callsubr
          vvcurveto
          9 2 19 2 14 vhcurveto
          2 19 1 20 4 12 5 13 11 16 10 22 -81 callsubr
          5 2 3 callsubr
          7 -32 callgsubr
          2 4 -2 4 3 3 48 callsubr
          7 5 4 -72 callgsubr
          2 2 rrcurveto
          9 7 13 7 15 8 7 4 17 1 16 2 rrcurveto
          4 11 1 7 21 25 -6 -9 12 vhcurveto
          4 -3 2 -8 6 -4 5 -5 8 1 5 -3 rrcurveto
          8 -7 10 -11 -2 -2 0 -3 -2 70 callgsubr
          7 -14 19 -12 7 -32 2 -9 11 -19 2 -16 rrcurveto
          -128 323 rmoveto
          80 callgsubr
          9 -11 5 -80 callgsubr
          3 -4 -1 4 -7 hhcurveto
          -7 -6 -4 0 hvcurveto
          -6 -1 -12 1 -8 -7 -3 -3 -58 callsubr
          -6 rrcurveto
          -3 -4 0 -70 callgsubr
          10 callsubr
          -20 -12 -5 -10 vvcurveto
          -1 0 -1 0 vhcurveto
          4 7 -14 9 hhcurveto
          18 13 36 7 8 hvcurveto
          3 3 -2 1 -88 callsubr
          4 6 4 -88 callsubr
          5 -2 5 -69 callgsubr
          -49 callsubr
          -88 callgsubr
          105 hmoveto
          -37 callgsubr
          -86 callsubr
          9 -11 5 -80 callgsubr
          3 -5 0 4 -7 hhcurveto
          -8 -6 -4 0 hvcurveto
          -6 -1 -11 1 -8 -7 -4 -3 -58 callsubr
          -6 rrcurveto
          -2 -4 -1 -70 callgsubr
          1 -6 -7 -20 -13 -5 -10 vvcurveto
          -26 callgsubr
          0 vhcurveto
          4 7 -14 8 hhcurveto
          18 14 36 7 7 hvcurveto
          3 3 -2 1 -88 callsubr
          4 7 3 callsubr
          2 -66 callgsubr
          -69 callgsubr
          1 -43 callsubr
          endchar
        </CharString>
</ttFont>
